%TF.GenerationSoftware,KiCad,Pcbnew,6.0.9-8da3e8f707~116~ubuntu20.04.1*%
%TF.CreationDate,2023-03-08T00:08:02+01:00*%
%TF.ProjectId,clocks_pmod,636c6f63-6b73-45f7-906d-6f642e6b6963,rev?*%
%TF.SameCoordinates,Original*%
%TF.FileFunction,Drillmap*%
%TF.FilePolarity,Positive*%
%FSLAX45Y45*%
G04 Gerber Fmt 4.5, Leading zero omitted, Abs format (unit mm)*
G04 Created by KiCad (PCBNEW 6.0.9-8da3e8f707~116~ubuntu20.04.1) date 2023-03-08 00:08:02*
%MOMM*%
%LPD*%
G01*
G04 APERTURE LIST*
%ADD10C,0.100000*%
%ADD11C,0.200000*%
%ADD12C,0.040000*%
G04 APERTURE END LIST*
D10*
X10160000Y-13906500D02*
X10160000Y-6794500D01*
X7810500Y-6731000D02*
G75*
G03*
X7747000Y-6794500I0J-63500D01*
G01*
X7747000Y-6794500D02*
X7747000Y-13906500D01*
X10096500Y-6731000D02*
X7810500Y-6731000D01*
X7810500Y-13970000D02*
X10096500Y-13970000D01*
X10160000Y-6794500D02*
G75*
G03*
X10096500Y-6731000I-63500J0D01*
G01*
X7747000Y-13906500D02*
G75*
G03*
X7810500Y-13970000I63500J0D01*
G01*
X10096500Y-13970000D02*
G75*
G03*
X10160000Y-13906500I0J63500D01*
G01*
D11*
D12*
X9996240Y-7169220D02*
X10036240Y-7209220D01*
X10036240Y-7169220D02*
X9996240Y-7209220D01*
D10*
X8139900Y-11645900D02*
G75*
G03*
X8139900Y-11645900I-50000J0D01*
G01*
X8139900Y-11899900D02*
G75*
G03*
X8139900Y-11899900I-50000J0D01*
G01*
X8139900Y-12153900D02*
G75*
G03*
X8139900Y-12153900I-50000J0D01*
G01*
X8139900Y-12407900D02*
G75*
G03*
X8139900Y-12407900I-50000J0D01*
G01*
X8139900Y-12661900D02*
G75*
G03*
X8139900Y-12661900I-50000J0D01*
G01*
X8139900Y-12915900D02*
G75*
G03*
X8139900Y-12915900I-50000J0D01*
G01*
X8139900Y-13169900D02*
G75*
G03*
X8139900Y-13169900I-50000J0D01*
G01*
X8178000Y-7112000D02*
G75*
G03*
X8178000Y-7112000I-50000J0D01*
G01*
X8178000Y-7366000D02*
G75*
G03*
X8178000Y-7366000I-50000J0D01*
G01*
X8178000Y-9017000D02*
G75*
G03*
X8178000Y-9017000I-50000J0D01*
G01*
X8178000Y-9271000D02*
G75*
G03*
X8178000Y-9271000I-50000J0D01*
G01*
X8178000Y-9525000D02*
G75*
G03*
X8178000Y-9525000I-50000J0D01*
G01*
X8178000Y-9779000D02*
G75*
G03*
X8178000Y-9779000I-50000J0D01*
G01*
X8178000Y-10033000D02*
G75*
G03*
X8178000Y-10033000I-50000J0D01*
G01*
X8178000Y-10287000D02*
G75*
G03*
X8178000Y-10287000I-50000J0D01*
G01*
X8178000Y-10541000D02*
G75*
G03*
X8178000Y-10541000I-50000J0D01*
G01*
X8305000Y-7874000D02*
G75*
G03*
X8305000Y-7874000I-50000J0D01*
G01*
X8432000Y-7112000D02*
G75*
G03*
X8432000Y-7112000I-50000J0D01*
G01*
X8432000Y-7366000D02*
G75*
G03*
X8432000Y-7366000I-50000J0D01*
G01*
X8559000Y-7874000D02*
G75*
G03*
X8559000Y-7874000I-50000J0D01*
G01*
X8686000Y-7112000D02*
G75*
G03*
X8686000Y-7112000I-50000J0D01*
G01*
X8686000Y-7366000D02*
G75*
G03*
X8686000Y-7366000I-50000J0D01*
G01*
X8940000Y-7112000D02*
G75*
G03*
X8940000Y-7112000I-50000J0D01*
G01*
X8940000Y-7366000D02*
G75*
G03*
X8940000Y-7366000I-50000J0D01*
G01*
X9194000Y-7112000D02*
G75*
G03*
X9194000Y-7112000I-50000J0D01*
G01*
X9194000Y-7366000D02*
G75*
G03*
X9194000Y-7366000I-50000J0D01*
G01*
X9448000Y-7112000D02*
G75*
G03*
X9448000Y-7112000I-50000J0D01*
G01*
X9448000Y-7366000D02*
G75*
G03*
X9448000Y-7366000I-50000J0D01*
G01*
X9448000Y-7874000D02*
G75*
G03*
X9448000Y-7874000I-50000J0D01*
G01*
X9702000Y-7874000D02*
G75*
G03*
X9702000Y-7874000I-50000J0D01*
G01*
D11*
X7999619Y-14285476D02*
X7999619Y-14085476D01*
X8047238Y-14085476D01*
X8075809Y-14095000D01*
X8094857Y-14114048D01*
X8104381Y-14133095D01*
X8113905Y-14171190D01*
X8113905Y-14199762D01*
X8104381Y-14237857D01*
X8094857Y-14256905D01*
X8075809Y-14275952D01*
X8047238Y-14285476D01*
X7999619Y-14285476D01*
X8199619Y-14285476D02*
X8199619Y-14152143D01*
X8199619Y-14190238D02*
X8209143Y-14171190D01*
X8218667Y-14161667D01*
X8237714Y-14152143D01*
X8256762Y-14152143D01*
X8323428Y-14285476D02*
X8323428Y-14152143D01*
X8323428Y-14085476D02*
X8313905Y-14095000D01*
X8323428Y-14104524D01*
X8332952Y-14095000D01*
X8323428Y-14085476D01*
X8323428Y-14104524D01*
X8447238Y-14285476D02*
X8428190Y-14275952D01*
X8418667Y-14256905D01*
X8418667Y-14085476D01*
X8552000Y-14285476D02*
X8532952Y-14275952D01*
X8523429Y-14256905D01*
X8523429Y-14085476D01*
X8780571Y-14285476D02*
X8780571Y-14085476D01*
X8847238Y-14228333D01*
X8913905Y-14085476D01*
X8913905Y-14285476D01*
X9094857Y-14285476D02*
X9094857Y-14180714D01*
X9085333Y-14161667D01*
X9066286Y-14152143D01*
X9028190Y-14152143D01*
X9009143Y-14161667D01*
X9094857Y-14275952D02*
X9075810Y-14285476D01*
X9028190Y-14285476D01*
X9009143Y-14275952D01*
X8999619Y-14256905D01*
X8999619Y-14237857D01*
X9009143Y-14218809D01*
X9028190Y-14209286D01*
X9075810Y-14209286D01*
X9094857Y-14199762D01*
X9190095Y-14152143D02*
X9190095Y-14352143D01*
X9190095Y-14161667D02*
X9209143Y-14152143D01*
X9247238Y-14152143D01*
X9266286Y-14161667D01*
X9275810Y-14171190D01*
X9285333Y-14190238D01*
X9285333Y-14247381D01*
X9275810Y-14266428D01*
X9266286Y-14275952D01*
X9247238Y-14285476D01*
X9209143Y-14285476D01*
X9190095Y-14275952D01*
X9371048Y-14266428D02*
X9380571Y-14275952D01*
X9371048Y-14285476D01*
X9361524Y-14275952D01*
X9371048Y-14266428D01*
X9371048Y-14285476D01*
X9371048Y-14161667D02*
X9380571Y-14171190D01*
X9371048Y-14180714D01*
X9361524Y-14171190D01*
X9371048Y-14161667D01*
X9371048Y-14180714D01*
D12*
X7702000Y-14595000D02*
X7742000Y-14635000D01*
X7742000Y-14595000D02*
X7702000Y-14635000D01*
D11*
X8037714Y-14505476D02*
X8056762Y-14505476D01*
X8075809Y-14515000D01*
X8085333Y-14524524D01*
X8094857Y-14543571D01*
X8104381Y-14581667D01*
X8104381Y-14629286D01*
X8094857Y-14667381D01*
X8085333Y-14686428D01*
X8075809Y-14695952D01*
X8056762Y-14705476D01*
X8037714Y-14705476D01*
X8018667Y-14695952D01*
X8009143Y-14686428D01*
X7999619Y-14667381D01*
X7990095Y-14629286D01*
X7990095Y-14581667D01*
X7999619Y-14543571D01*
X8009143Y-14524524D01*
X8018667Y-14515000D01*
X8037714Y-14505476D01*
X8190095Y-14686428D02*
X8199619Y-14695952D01*
X8190095Y-14705476D01*
X8180571Y-14695952D01*
X8190095Y-14686428D01*
X8190095Y-14705476D01*
X8371048Y-14572143D02*
X8371048Y-14705476D01*
X8323428Y-14495952D02*
X8275809Y-14638809D01*
X8399619Y-14638809D01*
X8513905Y-14505476D02*
X8532952Y-14505476D01*
X8552000Y-14515000D01*
X8561524Y-14524524D01*
X8571048Y-14543571D01*
X8580571Y-14581667D01*
X8580571Y-14629286D01*
X8571048Y-14667381D01*
X8561524Y-14686428D01*
X8552000Y-14695952D01*
X8532952Y-14705476D01*
X8513905Y-14705476D01*
X8494857Y-14695952D01*
X8485333Y-14686428D01*
X8475810Y-14667381D01*
X8466286Y-14629286D01*
X8466286Y-14581667D01*
X8475810Y-14543571D01*
X8485333Y-14524524D01*
X8494857Y-14515000D01*
X8513905Y-14505476D01*
X8704381Y-14505476D02*
X8723429Y-14505476D01*
X8742476Y-14515000D01*
X8752000Y-14524524D01*
X8761524Y-14543571D01*
X8771048Y-14581667D01*
X8771048Y-14629286D01*
X8761524Y-14667381D01*
X8752000Y-14686428D01*
X8742476Y-14695952D01*
X8723429Y-14705476D01*
X8704381Y-14705476D01*
X8685333Y-14695952D01*
X8675810Y-14686428D01*
X8666286Y-14667381D01*
X8656762Y-14629286D01*
X8656762Y-14581667D01*
X8666286Y-14543571D01*
X8675810Y-14524524D01*
X8685333Y-14515000D01*
X8704381Y-14505476D01*
X8856762Y-14705476D02*
X8856762Y-14572143D01*
X8856762Y-14591190D02*
X8866286Y-14581667D01*
X8885333Y-14572143D01*
X8913905Y-14572143D01*
X8932952Y-14581667D01*
X8942476Y-14600714D01*
X8942476Y-14705476D01*
X8942476Y-14600714D02*
X8952000Y-14581667D01*
X8971048Y-14572143D01*
X8999619Y-14572143D01*
X9018667Y-14581667D01*
X9028190Y-14600714D01*
X9028190Y-14705476D01*
X9123429Y-14705476D02*
X9123429Y-14572143D01*
X9123429Y-14591190D02*
X9132952Y-14581667D01*
X9152000Y-14572143D01*
X9180571Y-14572143D01*
X9199619Y-14581667D01*
X9209143Y-14600714D01*
X9209143Y-14705476D01*
X9209143Y-14600714D02*
X9218667Y-14581667D01*
X9237714Y-14572143D01*
X9266286Y-14572143D01*
X9285333Y-14581667D01*
X9294857Y-14600714D01*
X9294857Y-14705476D01*
X9685333Y-14495952D02*
X9513905Y-14753095D01*
X9942476Y-14505476D02*
X9961524Y-14505476D01*
X9980571Y-14515000D01*
X9990095Y-14524524D01*
X9999619Y-14543571D01*
X10009143Y-14581667D01*
X10009143Y-14629286D01*
X9999619Y-14667381D01*
X9990095Y-14686428D01*
X9980571Y-14695952D01*
X9961524Y-14705476D01*
X9942476Y-14705476D01*
X9923429Y-14695952D01*
X9913905Y-14686428D01*
X9904381Y-14667381D01*
X9894857Y-14629286D01*
X9894857Y-14581667D01*
X9904381Y-14543571D01*
X9913905Y-14524524D01*
X9923429Y-14515000D01*
X9942476Y-14505476D01*
X10094857Y-14686428D02*
X10104381Y-14695952D01*
X10094857Y-14705476D01*
X10085333Y-14695952D01*
X10094857Y-14686428D01*
X10094857Y-14705476D01*
X10228190Y-14505476D02*
X10247238Y-14505476D01*
X10266286Y-14515000D01*
X10275810Y-14524524D01*
X10285333Y-14543571D01*
X10294857Y-14581667D01*
X10294857Y-14629286D01*
X10285333Y-14667381D01*
X10275810Y-14686428D01*
X10266286Y-14695952D01*
X10247238Y-14705476D01*
X10228190Y-14705476D01*
X10209143Y-14695952D01*
X10199619Y-14686428D01*
X10190095Y-14667381D01*
X10180571Y-14629286D01*
X10180571Y-14581667D01*
X10190095Y-14543571D01*
X10199619Y-14524524D01*
X10209143Y-14515000D01*
X10228190Y-14505476D01*
X10485333Y-14705476D02*
X10371048Y-14705476D01*
X10428190Y-14705476D02*
X10428190Y-14505476D01*
X10409143Y-14534048D01*
X10390095Y-14553095D01*
X10371048Y-14562619D01*
X10666286Y-14505476D02*
X10571048Y-14505476D01*
X10561524Y-14600714D01*
X10571048Y-14591190D01*
X10590095Y-14581667D01*
X10637714Y-14581667D01*
X10656762Y-14591190D01*
X10666286Y-14600714D01*
X10675810Y-14619762D01*
X10675810Y-14667381D01*
X10666286Y-14686428D01*
X10656762Y-14695952D01*
X10637714Y-14705476D01*
X10590095Y-14705476D01*
X10571048Y-14695952D01*
X10561524Y-14686428D01*
X10742476Y-14505476D02*
X10875810Y-14505476D01*
X10790095Y-14705476D01*
X10942476Y-14505476D02*
X10942476Y-14543571D01*
X11018667Y-14505476D02*
X11018667Y-14543571D01*
X11313905Y-14781667D02*
X11304381Y-14772143D01*
X11285333Y-14743571D01*
X11275809Y-14724524D01*
X11266286Y-14695952D01*
X11256762Y-14648333D01*
X11256762Y-14610238D01*
X11266286Y-14562619D01*
X11275809Y-14534048D01*
X11285333Y-14515000D01*
X11304381Y-14486428D01*
X11313905Y-14476905D01*
X11494857Y-14705476D02*
X11380571Y-14705476D01*
X11437714Y-14705476D02*
X11437714Y-14505476D01*
X11418667Y-14534048D01*
X11399619Y-14553095D01*
X11380571Y-14562619D01*
X11732952Y-14705476D02*
X11732952Y-14505476D01*
X11818667Y-14705476D02*
X11818667Y-14600714D01*
X11809143Y-14581667D01*
X11790095Y-14572143D01*
X11761524Y-14572143D01*
X11742476Y-14581667D01*
X11732952Y-14591190D01*
X11942476Y-14705476D02*
X11923428Y-14695952D01*
X11913905Y-14686428D01*
X11904381Y-14667381D01*
X11904381Y-14610238D01*
X11913905Y-14591190D01*
X11923428Y-14581667D01*
X11942476Y-14572143D01*
X11971048Y-14572143D01*
X11990095Y-14581667D01*
X11999619Y-14591190D01*
X12009143Y-14610238D01*
X12009143Y-14667381D01*
X11999619Y-14686428D01*
X11990095Y-14695952D01*
X11971048Y-14705476D01*
X11942476Y-14705476D01*
X12123428Y-14705476D02*
X12104381Y-14695952D01*
X12094857Y-14676905D01*
X12094857Y-14505476D01*
X12275809Y-14695952D02*
X12256762Y-14705476D01*
X12218667Y-14705476D01*
X12199619Y-14695952D01*
X12190095Y-14676905D01*
X12190095Y-14600714D01*
X12199619Y-14581667D01*
X12218667Y-14572143D01*
X12256762Y-14572143D01*
X12275809Y-14581667D01*
X12285333Y-14600714D01*
X12285333Y-14619762D01*
X12190095Y-14638809D01*
X12352000Y-14781667D02*
X12361524Y-14772143D01*
X12380571Y-14743571D01*
X12390095Y-14724524D01*
X12399619Y-14695952D01*
X12409143Y-14648333D01*
X12409143Y-14610238D01*
X12399619Y-14562619D01*
X12390095Y-14534048D01*
X12380571Y-14515000D01*
X12361524Y-14486428D01*
X12352000Y-14476905D01*
D10*
X7742000Y-14879000D02*
G75*
G03*
X7742000Y-14879000I-50000J0D01*
G01*
D11*
X8104381Y-14969476D02*
X7990095Y-14969476D01*
X8047238Y-14969476D02*
X8047238Y-14769476D01*
X8028190Y-14798048D01*
X8009143Y-14817095D01*
X7990095Y-14826619D01*
X8190095Y-14950428D02*
X8199619Y-14959952D01*
X8190095Y-14969476D01*
X8180571Y-14959952D01*
X8190095Y-14950428D01*
X8190095Y-14969476D01*
X8323428Y-14769476D02*
X8342476Y-14769476D01*
X8361524Y-14779000D01*
X8371048Y-14788524D01*
X8380571Y-14807571D01*
X8390095Y-14845667D01*
X8390095Y-14893286D01*
X8380571Y-14931381D01*
X8371048Y-14950428D01*
X8361524Y-14959952D01*
X8342476Y-14969476D01*
X8323428Y-14969476D01*
X8304381Y-14959952D01*
X8294857Y-14950428D01*
X8285333Y-14931381D01*
X8275809Y-14893286D01*
X8275809Y-14845667D01*
X8285333Y-14807571D01*
X8294857Y-14788524D01*
X8304381Y-14779000D01*
X8323428Y-14769476D01*
X8513905Y-14769476D02*
X8532952Y-14769476D01*
X8552000Y-14779000D01*
X8561524Y-14788524D01*
X8571048Y-14807571D01*
X8580571Y-14845667D01*
X8580571Y-14893286D01*
X8571048Y-14931381D01*
X8561524Y-14950428D01*
X8552000Y-14959952D01*
X8532952Y-14969476D01*
X8513905Y-14969476D01*
X8494857Y-14959952D01*
X8485333Y-14950428D01*
X8475810Y-14931381D01*
X8466286Y-14893286D01*
X8466286Y-14845667D01*
X8475810Y-14807571D01*
X8485333Y-14788524D01*
X8494857Y-14779000D01*
X8513905Y-14769476D01*
X8704381Y-14769476D02*
X8723429Y-14769476D01*
X8742476Y-14779000D01*
X8752000Y-14788524D01*
X8761524Y-14807571D01*
X8771048Y-14845667D01*
X8771048Y-14893286D01*
X8761524Y-14931381D01*
X8752000Y-14950428D01*
X8742476Y-14959952D01*
X8723429Y-14969476D01*
X8704381Y-14969476D01*
X8685333Y-14959952D01*
X8675810Y-14950428D01*
X8666286Y-14931381D01*
X8656762Y-14893286D01*
X8656762Y-14845667D01*
X8666286Y-14807571D01*
X8675810Y-14788524D01*
X8685333Y-14779000D01*
X8704381Y-14769476D01*
X8856762Y-14969476D02*
X8856762Y-14836143D01*
X8856762Y-14855190D02*
X8866286Y-14845667D01*
X8885333Y-14836143D01*
X8913905Y-14836143D01*
X8932952Y-14845667D01*
X8942476Y-14864714D01*
X8942476Y-14969476D01*
X8942476Y-14864714D02*
X8952000Y-14845667D01*
X8971048Y-14836143D01*
X8999619Y-14836143D01*
X9018667Y-14845667D01*
X9028190Y-14864714D01*
X9028190Y-14969476D01*
X9123429Y-14969476D02*
X9123429Y-14836143D01*
X9123429Y-14855190D02*
X9132952Y-14845667D01*
X9152000Y-14836143D01*
X9180571Y-14836143D01*
X9199619Y-14845667D01*
X9209143Y-14864714D01*
X9209143Y-14969476D01*
X9209143Y-14864714D02*
X9218667Y-14845667D01*
X9237714Y-14836143D01*
X9266286Y-14836143D01*
X9285333Y-14845667D01*
X9294857Y-14864714D01*
X9294857Y-14969476D01*
X9685333Y-14759952D02*
X9513905Y-15017095D01*
X9942476Y-14769476D02*
X9961524Y-14769476D01*
X9980571Y-14779000D01*
X9990095Y-14788524D01*
X9999619Y-14807571D01*
X10009143Y-14845667D01*
X10009143Y-14893286D01*
X9999619Y-14931381D01*
X9990095Y-14950428D01*
X9980571Y-14959952D01*
X9961524Y-14969476D01*
X9942476Y-14969476D01*
X9923429Y-14959952D01*
X9913905Y-14950428D01*
X9904381Y-14931381D01*
X9894857Y-14893286D01*
X9894857Y-14845667D01*
X9904381Y-14807571D01*
X9913905Y-14788524D01*
X9923429Y-14779000D01*
X9942476Y-14769476D01*
X10094857Y-14950428D02*
X10104381Y-14959952D01*
X10094857Y-14969476D01*
X10085333Y-14959952D01*
X10094857Y-14950428D01*
X10094857Y-14969476D01*
X10228190Y-14769476D02*
X10247238Y-14769476D01*
X10266286Y-14779000D01*
X10275810Y-14788524D01*
X10285333Y-14807571D01*
X10294857Y-14845667D01*
X10294857Y-14893286D01*
X10285333Y-14931381D01*
X10275810Y-14950428D01*
X10266286Y-14959952D01*
X10247238Y-14969476D01*
X10228190Y-14969476D01*
X10209143Y-14959952D01*
X10199619Y-14950428D01*
X10190095Y-14931381D01*
X10180571Y-14893286D01*
X10180571Y-14845667D01*
X10190095Y-14807571D01*
X10199619Y-14788524D01*
X10209143Y-14779000D01*
X10228190Y-14769476D01*
X10361524Y-14769476D02*
X10485333Y-14769476D01*
X10418667Y-14845667D01*
X10447238Y-14845667D01*
X10466286Y-14855190D01*
X10475810Y-14864714D01*
X10485333Y-14883762D01*
X10485333Y-14931381D01*
X10475810Y-14950428D01*
X10466286Y-14959952D01*
X10447238Y-14969476D01*
X10390095Y-14969476D01*
X10371048Y-14959952D01*
X10361524Y-14950428D01*
X10580571Y-14969476D02*
X10618667Y-14969476D01*
X10637714Y-14959952D01*
X10647238Y-14950428D01*
X10666286Y-14921857D01*
X10675810Y-14883762D01*
X10675810Y-14807571D01*
X10666286Y-14788524D01*
X10656762Y-14779000D01*
X10637714Y-14769476D01*
X10599619Y-14769476D01*
X10580571Y-14779000D01*
X10571048Y-14788524D01*
X10561524Y-14807571D01*
X10561524Y-14855190D01*
X10571048Y-14874238D01*
X10580571Y-14883762D01*
X10599619Y-14893286D01*
X10637714Y-14893286D01*
X10656762Y-14883762D01*
X10666286Y-14874238D01*
X10675810Y-14855190D01*
X10847238Y-14836143D02*
X10847238Y-14969476D01*
X10799619Y-14759952D02*
X10752000Y-14902809D01*
X10875810Y-14902809D01*
X10942476Y-14769476D02*
X10942476Y-14807571D01*
X11018667Y-14769476D02*
X11018667Y-14807571D01*
X11313905Y-15045667D02*
X11304381Y-15036143D01*
X11285333Y-15007571D01*
X11275809Y-14988524D01*
X11266286Y-14959952D01*
X11256762Y-14912333D01*
X11256762Y-14874238D01*
X11266286Y-14826619D01*
X11275809Y-14798048D01*
X11285333Y-14779000D01*
X11304381Y-14750428D01*
X11313905Y-14740905D01*
X11371048Y-14769476D02*
X11494857Y-14769476D01*
X11428190Y-14845667D01*
X11456762Y-14845667D01*
X11475809Y-14855190D01*
X11485333Y-14864714D01*
X11494857Y-14883762D01*
X11494857Y-14931381D01*
X11485333Y-14950428D01*
X11475809Y-14959952D01*
X11456762Y-14969476D01*
X11399619Y-14969476D01*
X11380571Y-14959952D01*
X11371048Y-14950428D01*
X11618667Y-14769476D02*
X11637714Y-14769476D01*
X11656762Y-14779000D01*
X11666286Y-14788524D01*
X11675809Y-14807571D01*
X11685333Y-14845667D01*
X11685333Y-14893286D01*
X11675809Y-14931381D01*
X11666286Y-14950428D01*
X11656762Y-14959952D01*
X11637714Y-14969476D01*
X11618667Y-14969476D01*
X11599619Y-14959952D01*
X11590095Y-14950428D01*
X11580571Y-14931381D01*
X11571048Y-14893286D01*
X11571048Y-14845667D01*
X11580571Y-14807571D01*
X11590095Y-14788524D01*
X11599619Y-14779000D01*
X11618667Y-14769476D01*
X11923428Y-14969476D02*
X11923428Y-14769476D01*
X12009143Y-14969476D02*
X12009143Y-14864714D01*
X11999619Y-14845667D01*
X11980571Y-14836143D01*
X11952000Y-14836143D01*
X11932952Y-14845667D01*
X11923428Y-14855190D01*
X12132952Y-14969476D02*
X12113905Y-14959952D01*
X12104381Y-14950428D01*
X12094857Y-14931381D01*
X12094857Y-14874238D01*
X12104381Y-14855190D01*
X12113905Y-14845667D01*
X12132952Y-14836143D01*
X12161524Y-14836143D01*
X12180571Y-14845667D01*
X12190095Y-14855190D01*
X12199619Y-14874238D01*
X12199619Y-14931381D01*
X12190095Y-14950428D01*
X12180571Y-14959952D01*
X12161524Y-14969476D01*
X12132952Y-14969476D01*
X12313905Y-14969476D02*
X12294857Y-14959952D01*
X12285333Y-14940905D01*
X12285333Y-14769476D01*
X12466286Y-14959952D02*
X12447238Y-14969476D01*
X12409143Y-14969476D01*
X12390095Y-14959952D01*
X12380571Y-14940905D01*
X12380571Y-14864714D01*
X12390095Y-14845667D01*
X12409143Y-14836143D01*
X12447238Y-14836143D01*
X12466286Y-14845667D01*
X12475809Y-14864714D01*
X12475809Y-14883762D01*
X12380571Y-14902809D01*
X12552000Y-14959952D02*
X12571048Y-14969476D01*
X12609143Y-14969476D01*
X12628190Y-14959952D01*
X12637714Y-14940905D01*
X12637714Y-14931381D01*
X12628190Y-14912333D01*
X12609143Y-14902809D01*
X12580571Y-14902809D01*
X12561524Y-14893286D01*
X12552000Y-14874238D01*
X12552000Y-14864714D01*
X12561524Y-14845667D01*
X12580571Y-14836143D01*
X12609143Y-14836143D01*
X12628190Y-14845667D01*
X12704381Y-15045667D02*
X12713905Y-15036143D01*
X12732952Y-15007571D01*
X12742476Y-14988524D01*
X12752000Y-14959952D01*
X12761524Y-14912333D01*
X12761524Y-14874238D01*
X12752000Y-14826619D01*
X12742476Y-14798048D01*
X12732952Y-14779000D01*
X12713905Y-14750428D01*
X12704381Y-14740905D01*
M02*
