G04 #@! TF.GenerationSoftware,KiCad,Pcbnew,6.0.9-8da3e8f707~116~ubuntu20.04.1*
G04 #@! TF.CreationDate,2023-03-08T00:07:42+01:00*
G04 #@! TF.ProjectId,clocks_pmod,636c6f63-6b73-45f7-906d-6f642e6b6963,rev?*
G04 #@! TF.SameCoordinates,Original*
G04 #@! TF.FileFunction,Legend,Bot*
G04 #@! TF.FilePolarity,Positive*
%FSLAX46Y46*%
G04 Gerber Fmt 4.6, Leading zero omitted, Abs format (unit mm)*
G04 Created by KiCad (PCBNEW 6.0.9-8da3e8f707~116~ubuntu20.04.1) date 2023-03-08 00:07:42*
%MOMM*%
%LPD*%
G01*
G04 APERTURE LIST*
G04 Aperture macros list*
%AMRoundRect*
0 Rectangle with rounded corners*
0 $1 Rounding radius*
0 $2 $3 $4 $5 $6 $7 $8 $9 X,Y pos of 4 corners*
0 Add a 4 corners polygon primitive as box body*
4,1,4,$2,$3,$4,$5,$6,$7,$8,$9,$2,$3,0*
0 Add four circle primitives for the rounded corners*
1,1,$1+$1,$2,$3*
1,1,$1+$1,$4,$5*
1,1,$1+$1,$6,$7*
1,1,$1+$1,$8,$9*
0 Add four rect primitives between the rounded corners*
20,1,$1+$1,$2,$3,$4,$5,0*
20,1,$1+$1,$4,$5,$6,$7,0*
20,1,$1+$1,$6,$7,$8,$9,0*
20,1,$1+$1,$8,$9,$2,$3,0*%
G04 Aperture macros list end*
%ADD10C,0.150000*%
%ADD11C,0.120000*%
%ADD12C,2.500000*%
%ADD13R,1.700000X1.700000*%
%ADD14C,1.700000*%
%ADD15C,3.000000*%
%ADD16O,1.700000X1.700000*%
%ADD17RoundRect,0.237500X0.250000X0.237500X-0.250000X0.237500X-0.250000X-0.237500X0.250000X-0.237500X0*%
%ADD18RoundRect,0.237500X0.237500X-0.300000X0.237500X0.300000X-0.237500X0.300000X-0.237500X-0.300000X0*%
%ADD19RoundRect,0.237500X0.237500X-0.250000X0.237500X0.250000X-0.237500X0.250000X-0.237500X-0.250000X0*%
%ADD20RoundRect,0.237500X-0.237500X0.300000X-0.237500X-0.300000X0.237500X-0.300000X0.237500X0.300000X0*%
G04 APERTURE END LIST*
D10*
X92479761Y-123563571D02*
X92527380Y-123468333D01*
X92527380Y-123277857D01*
X92479761Y-123182619D01*
X92432142Y-123135000D01*
X92336904Y-123087380D01*
X92051190Y-123087380D01*
X91955952Y-123135000D01*
X91908333Y-123182619D01*
X91860714Y-123277857D01*
X91860714Y-123468333D01*
X91908333Y-123563571D01*
X91860714Y-123992142D02*
X92717857Y-123992142D01*
X92813095Y-123944523D01*
X92860714Y-123849285D01*
X92860714Y-123801666D01*
X91527380Y-123992142D02*
X91575000Y-123944523D01*
X91622619Y-123992142D01*
X91575000Y-124039761D01*
X91527380Y-123992142D01*
X91622619Y-123992142D01*
X92527380Y-124468333D02*
X91860714Y-124468333D01*
X91955952Y-124468333D02*
X91908333Y-124515952D01*
X91860714Y-124611190D01*
X91860714Y-124754047D01*
X91908333Y-124849285D01*
X92003571Y-124896904D01*
X92527380Y-124896904D01*
X92003571Y-124896904D02*
X91908333Y-124944523D01*
X91860714Y-125039761D01*
X91860714Y-125182619D01*
X91908333Y-125277857D01*
X92003571Y-125325476D01*
X92527380Y-125325476D01*
X92479761Y-126230238D02*
X92527380Y-126135000D01*
X92527380Y-125944523D01*
X92479761Y-125849285D01*
X92432142Y-125801666D01*
X92336904Y-125754047D01*
X92051190Y-125754047D01*
X91955952Y-125801666D01*
X91908333Y-125849285D01*
X91860714Y-125944523D01*
X91860714Y-126135000D01*
X91908333Y-126230238D01*
X91860714Y-127087380D02*
X92527380Y-127087380D01*
X91860714Y-126658809D02*
X92384523Y-126658809D01*
X92479761Y-126706428D01*
X92527380Y-126801666D01*
X92527380Y-126944523D01*
X92479761Y-127039761D01*
X92432142Y-127087380D01*
X92146428Y-127563571D02*
X92146428Y-128325476D01*
X92527380Y-128849285D02*
X92527380Y-129039761D01*
X92479761Y-129135000D01*
X92432142Y-129182619D01*
X92289285Y-129277857D01*
X92098809Y-129325476D01*
X91717857Y-129325476D01*
X91622619Y-129277857D01*
X91575000Y-129230238D01*
X91527380Y-129135000D01*
X91527380Y-128944523D01*
X91575000Y-128849285D01*
X91622619Y-128801666D01*
X91717857Y-128754047D01*
X91955952Y-128754047D01*
X92051190Y-128801666D01*
X92098809Y-128849285D01*
X92146428Y-128944523D01*
X92146428Y-129135000D01*
X92098809Y-129230238D01*
X92051190Y-129277857D01*
X91955952Y-129325476D01*
X91955952Y-129896904D02*
X91908333Y-129801666D01*
X91860714Y-129754047D01*
X91765476Y-129706428D01*
X91717857Y-129706428D01*
X91622619Y-129754047D01*
X91575000Y-129801666D01*
X91527380Y-129896904D01*
X91527380Y-130087380D01*
X91575000Y-130182619D01*
X91622619Y-130230238D01*
X91717857Y-130277857D01*
X91765476Y-130277857D01*
X91860714Y-130230238D01*
X91908333Y-130182619D01*
X91955952Y-130087380D01*
X91955952Y-129896904D01*
X92003571Y-129801666D01*
X92051190Y-129754047D01*
X92146428Y-129706428D01*
X92336904Y-129706428D01*
X92432142Y-129754047D01*
X92479761Y-129801666D01*
X92527380Y-129896904D01*
X92527380Y-130087380D01*
X92479761Y-130182619D01*
X92432142Y-130230238D01*
X92336904Y-130277857D01*
X92146428Y-130277857D01*
X92051190Y-130230238D01*
X92003571Y-130182619D01*
X91955952Y-130087380D01*
X91527380Y-130611190D02*
X91527380Y-131230238D01*
X91908333Y-130896904D01*
X91908333Y-131039761D01*
X91955952Y-131135000D01*
X92003571Y-131182619D01*
X92098809Y-131230238D01*
X92336904Y-131230238D01*
X92432142Y-131182619D01*
X92479761Y-131135000D01*
X92527380Y-131039761D01*
X92527380Y-130754047D01*
X92479761Y-130658809D01*
X92432142Y-130611190D01*
X91527380Y-131563571D02*
X91527380Y-132182619D01*
X91908333Y-131849285D01*
X91908333Y-131992142D01*
X91955952Y-132087380D01*
X92003571Y-132135000D01*
X92098809Y-132182619D01*
X92336904Y-132182619D01*
X92432142Y-132135000D01*
X92479761Y-132087380D01*
X92527380Y-131992142D01*
X92527380Y-131706428D01*
X92479761Y-131611190D01*
X92432142Y-131563571D01*
X92479761Y-92186428D02*
X92527380Y-92329285D01*
X92527380Y-92567380D01*
X92479761Y-92662619D01*
X92432142Y-92710238D01*
X92336904Y-92757857D01*
X92241666Y-92757857D01*
X92146428Y-92710238D01*
X92098809Y-92662619D01*
X92051190Y-92567380D01*
X92003571Y-92376904D01*
X91955952Y-92281666D01*
X91908333Y-92234047D01*
X91813095Y-92186428D01*
X91717857Y-92186428D01*
X91622619Y-92234047D01*
X91575000Y-92281666D01*
X91527380Y-92376904D01*
X91527380Y-92615000D01*
X91575000Y-92757857D01*
X92527380Y-93186428D02*
X91860714Y-93186428D01*
X91527380Y-93186428D02*
X91575000Y-93138809D01*
X91622619Y-93186428D01*
X91575000Y-93234047D01*
X91527380Y-93186428D01*
X91622619Y-93186428D01*
X91527380Y-94138809D02*
X91527380Y-93662619D01*
X92003571Y-93615000D01*
X91955952Y-93662619D01*
X91908333Y-93757857D01*
X91908333Y-93995952D01*
X91955952Y-94091190D01*
X92003571Y-94138809D01*
X92098809Y-94186428D01*
X92336904Y-94186428D01*
X92432142Y-94138809D01*
X92479761Y-94091190D01*
X92527380Y-93995952D01*
X92527380Y-93757857D01*
X92479761Y-93662619D01*
X92432142Y-93615000D01*
X91527380Y-94519761D02*
X91527380Y-95138809D01*
X91908333Y-94805476D01*
X91908333Y-94948333D01*
X91955952Y-95043571D01*
X92003571Y-95091190D01*
X92098809Y-95138809D01*
X92336904Y-95138809D01*
X92432142Y-95091190D01*
X92479761Y-95043571D01*
X92527380Y-94948333D01*
X92527380Y-94662619D01*
X92479761Y-94567380D01*
X92432142Y-94519761D01*
X91527380Y-96043571D02*
X91527380Y-95567380D01*
X92003571Y-95519761D01*
X91955952Y-95567380D01*
X91908333Y-95662619D01*
X91908333Y-95900714D01*
X91955952Y-95995952D01*
X92003571Y-96043571D01*
X92098809Y-96091190D01*
X92336904Y-96091190D01*
X92432142Y-96043571D01*
X92479761Y-95995952D01*
X92527380Y-95900714D01*
X92527380Y-95662619D01*
X92479761Y-95567380D01*
X92432142Y-95519761D01*
X92527380Y-97043571D02*
X92527380Y-96472142D01*
X92527380Y-96757857D02*
X91527380Y-96757857D01*
X91670238Y-96662619D01*
X91765476Y-96567380D01*
X91813095Y-96472142D01*
X91212380Y-103061428D02*
X90212380Y-103061428D01*
X90212380Y-103299523D01*
X90260000Y-103442380D01*
X90355238Y-103537619D01*
X90450476Y-103585238D01*
X90640952Y-103632857D01*
X90783809Y-103632857D01*
X90974285Y-103585238D01*
X91069523Y-103537619D01*
X91164761Y-103442380D01*
X91212380Y-103299523D01*
X91212380Y-103061428D01*
X91164761Y-104442380D02*
X91212380Y-104347142D01*
X91212380Y-104156666D01*
X91164761Y-104061428D01*
X91069523Y-104013809D01*
X90688571Y-104013809D01*
X90593333Y-104061428D01*
X90545714Y-104156666D01*
X90545714Y-104347142D01*
X90593333Y-104442380D01*
X90688571Y-104490000D01*
X90783809Y-104490000D01*
X90879047Y-104013809D01*
X91164761Y-104870952D02*
X91212380Y-104966190D01*
X91212380Y-105156666D01*
X91164761Y-105251904D01*
X91069523Y-105299523D01*
X91021904Y-105299523D01*
X90926666Y-105251904D01*
X90879047Y-105156666D01*
X90879047Y-105013809D01*
X90831428Y-104918571D01*
X90736190Y-104870952D01*
X90688571Y-104870952D01*
X90593333Y-104918571D01*
X90545714Y-105013809D01*
X90545714Y-105156666D01*
X90593333Y-105251904D01*
X91212380Y-105728095D02*
X90545714Y-105728095D01*
X90212380Y-105728095D02*
X90260000Y-105680476D01*
X90307619Y-105728095D01*
X90260000Y-105775714D01*
X90212380Y-105728095D01*
X90307619Y-105728095D01*
X90545714Y-106632857D02*
X91355238Y-106632857D01*
X91450476Y-106585238D01*
X91498095Y-106537619D01*
X91545714Y-106442380D01*
X91545714Y-106299523D01*
X91498095Y-106204285D01*
X91164761Y-106632857D02*
X91212380Y-106537619D01*
X91212380Y-106347142D01*
X91164761Y-106251904D01*
X91117142Y-106204285D01*
X91021904Y-106156666D01*
X90736190Y-106156666D01*
X90640952Y-106204285D01*
X90593333Y-106251904D01*
X90545714Y-106347142D01*
X90545714Y-106537619D01*
X90593333Y-106632857D01*
X90545714Y-107109047D02*
X91212380Y-107109047D01*
X90640952Y-107109047D02*
X90593333Y-107156666D01*
X90545714Y-107251904D01*
X90545714Y-107394761D01*
X90593333Y-107490000D01*
X90688571Y-107537619D01*
X91212380Y-107537619D01*
X91164761Y-108394761D02*
X91212380Y-108299523D01*
X91212380Y-108109047D01*
X91164761Y-108013809D01*
X91069523Y-107966190D01*
X90688571Y-107966190D01*
X90593333Y-108013809D01*
X90545714Y-108109047D01*
X90545714Y-108299523D01*
X90593333Y-108394761D01*
X90688571Y-108442380D01*
X90783809Y-108442380D01*
X90879047Y-107966190D01*
X91212380Y-109299523D02*
X90212380Y-109299523D01*
X91164761Y-109299523D02*
X91212380Y-109204285D01*
X91212380Y-109013809D01*
X91164761Y-108918571D01*
X91117142Y-108870952D01*
X91021904Y-108823333D01*
X90736190Y-108823333D01*
X90640952Y-108870952D01*
X90593333Y-108918571D01*
X90545714Y-109013809D01*
X90545714Y-109204285D01*
X90593333Y-109299523D01*
X91212380Y-110537619D02*
X90212380Y-110537619D01*
X90593333Y-110537619D02*
X90545714Y-110632857D01*
X90545714Y-110823333D01*
X90593333Y-110918571D01*
X90640952Y-110966190D01*
X90736190Y-111013809D01*
X91021904Y-111013809D01*
X91117142Y-110966190D01*
X91164761Y-110918571D01*
X91212380Y-110823333D01*
X91212380Y-110632857D01*
X91164761Y-110537619D01*
X90545714Y-111347142D02*
X91212380Y-111585238D01*
X90545714Y-111823333D02*
X91212380Y-111585238D01*
X91450476Y-111490000D01*
X91498095Y-111442380D01*
X91545714Y-111347142D01*
X91117142Y-112204285D02*
X91164761Y-112251904D01*
X91212380Y-112204285D01*
X91164761Y-112156666D01*
X91117142Y-112204285D01*
X91212380Y-112204285D01*
X90593333Y-112204285D02*
X90640952Y-112251904D01*
X90688571Y-112204285D01*
X90640952Y-112156666D01*
X90593333Y-112204285D01*
X90688571Y-112204285D01*
X91164761Y-113394761D02*
X91212380Y-113537619D01*
X91212380Y-113775714D01*
X91164761Y-113870952D01*
X91117142Y-113918571D01*
X91021904Y-113966190D01*
X90926666Y-113966190D01*
X90831428Y-113918571D01*
X90783809Y-113870952D01*
X90736190Y-113775714D01*
X90688571Y-113585238D01*
X90640952Y-113490000D01*
X90593333Y-113442380D01*
X90498095Y-113394761D01*
X90402857Y-113394761D01*
X90307619Y-113442380D01*
X90260000Y-113490000D01*
X90212380Y-113585238D01*
X90212380Y-113823333D01*
X90260000Y-113966190D01*
X90212380Y-114870952D02*
X90212380Y-114394761D01*
X90688571Y-114347142D01*
X90640952Y-114394761D01*
X90593333Y-114490000D01*
X90593333Y-114728095D01*
X90640952Y-114823333D01*
X90688571Y-114870952D01*
X90783809Y-114918571D01*
X91021904Y-114918571D01*
X91117142Y-114870952D01*
X91164761Y-114823333D01*
X91212380Y-114728095D01*
X91212380Y-114490000D01*
X91164761Y-114394761D01*
X91117142Y-114347142D01*
X91212380Y-115394761D02*
X91212380Y-115585238D01*
X91164761Y-115680476D01*
X91117142Y-115728095D01*
X90974285Y-115823333D01*
X90783809Y-115870952D01*
X90402857Y-115870952D01*
X90307619Y-115823333D01*
X90260000Y-115775714D01*
X90212380Y-115680476D01*
X90212380Y-115490000D01*
X90260000Y-115394761D01*
X90307619Y-115347142D01*
X90402857Y-115299523D01*
X90640952Y-115299523D01*
X90736190Y-115347142D01*
X90783809Y-115394761D01*
X90831428Y-115490000D01*
X90831428Y-115680476D01*
X90783809Y-115775714D01*
X90736190Y-115823333D01*
X90640952Y-115870952D01*
X91212380Y-116299523D02*
X90212380Y-116299523D01*
X90926666Y-116632857D01*
X90212380Y-116966190D01*
X91212380Y-116966190D01*
X90212380Y-117347142D02*
X90212380Y-118013809D01*
X91212380Y-117347142D01*
X91212380Y-118013809D01*
X94337142Y-103299523D02*
X94384761Y-103251904D01*
X94432380Y-103109047D01*
X94432380Y-103013809D01*
X94384761Y-102870952D01*
X94289523Y-102775714D01*
X94194285Y-102728095D01*
X94003809Y-102680476D01*
X93860952Y-102680476D01*
X93670476Y-102728095D01*
X93575238Y-102775714D01*
X93480000Y-102870952D01*
X93432380Y-103013809D01*
X93432380Y-103109047D01*
X93480000Y-103251904D01*
X93527619Y-103299523D01*
X94432380Y-103870952D02*
X94384761Y-103775714D01*
X94289523Y-103728095D01*
X93432380Y-103728095D01*
X94432380Y-104394761D02*
X94384761Y-104299523D01*
X94337142Y-104251904D01*
X94241904Y-104204285D01*
X93956190Y-104204285D01*
X93860952Y-104251904D01*
X93813333Y-104299523D01*
X93765714Y-104394761D01*
X93765714Y-104537619D01*
X93813333Y-104632857D01*
X93860952Y-104680476D01*
X93956190Y-104728095D01*
X94241904Y-104728095D01*
X94337142Y-104680476D01*
X94384761Y-104632857D01*
X94432380Y-104537619D01*
X94432380Y-104394761D01*
X94384761Y-105585238D02*
X94432380Y-105490000D01*
X94432380Y-105299523D01*
X94384761Y-105204285D01*
X94337142Y-105156666D01*
X94241904Y-105109047D01*
X93956190Y-105109047D01*
X93860952Y-105156666D01*
X93813333Y-105204285D01*
X93765714Y-105299523D01*
X93765714Y-105490000D01*
X93813333Y-105585238D01*
X94432380Y-106013809D02*
X93432380Y-106013809D01*
X94051428Y-106109047D02*
X94432380Y-106394761D01*
X93765714Y-106394761D02*
X94146666Y-106013809D01*
X94384761Y-106775714D02*
X94432380Y-106870952D01*
X94432380Y-107061428D01*
X94384761Y-107156666D01*
X94289523Y-107204285D01*
X94241904Y-107204285D01*
X94146666Y-107156666D01*
X94099047Y-107061428D01*
X94099047Y-106918571D01*
X94051428Y-106823333D01*
X93956190Y-106775714D01*
X93908571Y-106775714D01*
X93813333Y-106823333D01*
X93765714Y-106918571D01*
X93765714Y-107061428D01*
X93813333Y-107156666D01*
X94432380Y-108394761D02*
X93432380Y-108394761D01*
X93432380Y-108775714D01*
X93480000Y-108870952D01*
X93527619Y-108918571D01*
X93622857Y-108966190D01*
X93765714Y-108966190D01*
X93860952Y-108918571D01*
X93908571Y-108870952D01*
X93956190Y-108775714D01*
X93956190Y-108394761D01*
X94432380Y-109394761D02*
X93765714Y-109394761D01*
X93860952Y-109394761D02*
X93813333Y-109442380D01*
X93765714Y-109537619D01*
X93765714Y-109680476D01*
X93813333Y-109775714D01*
X93908571Y-109823333D01*
X94432380Y-109823333D01*
X93908571Y-109823333D02*
X93813333Y-109870952D01*
X93765714Y-109966190D01*
X93765714Y-110109047D01*
X93813333Y-110204285D01*
X93908571Y-110251904D01*
X94432380Y-110251904D01*
X94432380Y-110870952D02*
X94384761Y-110775714D01*
X94337142Y-110728095D01*
X94241904Y-110680476D01*
X93956190Y-110680476D01*
X93860952Y-110728095D01*
X93813333Y-110775714D01*
X93765714Y-110870952D01*
X93765714Y-111013809D01*
X93813333Y-111109047D01*
X93860952Y-111156666D01*
X93956190Y-111204285D01*
X94241904Y-111204285D01*
X94337142Y-111156666D01*
X94384761Y-111109047D01*
X94432380Y-111013809D01*
X94432380Y-110870952D01*
X94432380Y-112061428D02*
X93432380Y-112061428D01*
X94384761Y-112061428D02*
X94432380Y-111966190D01*
X94432380Y-111775714D01*
X94384761Y-111680476D01*
X94337142Y-111632857D01*
X94241904Y-111585238D01*
X93956190Y-111585238D01*
X93860952Y-111632857D01*
X93813333Y-111680476D01*
X93765714Y-111775714D01*
X93765714Y-111966190D01*
X93813333Y-112061428D01*
X94432380Y-113299523D02*
X93765714Y-113299523D01*
X93860952Y-113299523D02*
X93813333Y-113347142D01*
X93765714Y-113442380D01*
X93765714Y-113585238D01*
X93813333Y-113680476D01*
X93908571Y-113728095D01*
X94432380Y-113728095D01*
X93908571Y-113728095D02*
X93813333Y-113775714D01*
X93765714Y-113870952D01*
X93765714Y-114013809D01*
X93813333Y-114109047D01*
X93908571Y-114156666D01*
X94432380Y-114156666D01*
X94432380Y-114775714D02*
X94384761Y-114680476D01*
X94337142Y-114632857D01*
X94241904Y-114585238D01*
X93956190Y-114585238D01*
X93860952Y-114632857D01*
X93813333Y-114680476D01*
X93765714Y-114775714D01*
X93765714Y-114918571D01*
X93813333Y-115013809D01*
X93860952Y-115061428D01*
X93956190Y-115109047D01*
X94241904Y-115109047D01*
X94337142Y-115061428D01*
X94384761Y-115013809D01*
X94432380Y-114918571D01*
X94432380Y-114775714D01*
X94432380Y-115966190D02*
X93432380Y-115966190D01*
X94384761Y-115966190D02*
X94432380Y-115870952D01*
X94432380Y-115680476D01*
X94384761Y-115585238D01*
X94337142Y-115537619D01*
X94241904Y-115490000D01*
X93956190Y-115490000D01*
X93860952Y-115537619D01*
X93813333Y-115585238D01*
X93765714Y-115680476D01*
X93765714Y-115870952D01*
X93813333Y-115966190D01*
X93765714Y-116870952D02*
X94432380Y-116870952D01*
X93765714Y-116442380D02*
X94289523Y-116442380D01*
X94384761Y-116490000D01*
X94432380Y-116585238D01*
X94432380Y-116728095D01*
X94384761Y-116823333D01*
X94337142Y-116870952D01*
X94432380Y-117490000D02*
X94384761Y-117394761D01*
X94289523Y-117347142D01*
X93432380Y-117347142D01*
X94384761Y-118251904D02*
X94432380Y-118156666D01*
X94432380Y-117966190D01*
X94384761Y-117870952D01*
X94289523Y-117823333D01*
X93908571Y-117823333D01*
X93813333Y-117870952D01*
X93765714Y-117966190D01*
X93765714Y-118156666D01*
X93813333Y-118251904D01*
X93908571Y-118299523D01*
X94003809Y-118299523D01*
X94099047Y-117823333D01*
X96042380Y-107799523D02*
X95375714Y-107799523D01*
X95566190Y-107799523D02*
X95470952Y-107847142D01*
X95423333Y-107894761D01*
X95375714Y-107990000D01*
X95375714Y-108085238D01*
X95994761Y-108799523D02*
X96042380Y-108704285D01*
X96042380Y-108513809D01*
X95994761Y-108418571D01*
X95899523Y-108370952D01*
X95518571Y-108370952D01*
X95423333Y-108418571D01*
X95375714Y-108513809D01*
X95375714Y-108704285D01*
X95423333Y-108799523D01*
X95518571Y-108847142D01*
X95613809Y-108847142D01*
X95709047Y-108370952D01*
X95375714Y-109180476D02*
X96042380Y-109418571D01*
X95375714Y-109656666D01*
X95947142Y-110037619D02*
X95994761Y-110085238D01*
X96042380Y-110037619D01*
X95994761Y-109990000D01*
X95947142Y-110037619D01*
X96042380Y-110037619D01*
X95423333Y-110037619D02*
X95470952Y-110085238D01*
X95518571Y-110037619D01*
X95470952Y-109990000D01*
X95423333Y-110037619D01*
X95518571Y-110037619D01*
X96042380Y-111799523D02*
X96042380Y-111228095D01*
X96042380Y-111513809D02*
X95042380Y-111513809D01*
X95185238Y-111418571D01*
X95280476Y-111323333D01*
X95328095Y-111228095D01*
X95947142Y-112228095D02*
X95994761Y-112275714D01*
X96042380Y-112228095D01*
X95994761Y-112180476D01*
X95947142Y-112228095D01*
X96042380Y-112228095D01*
X95042380Y-112894761D02*
X95042380Y-112990000D01*
X95090000Y-113085238D01*
X95137619Y-113132857D01*
X95232857Y-113180476D01*
X95423333Y-113228095D01*
X95661428Y-113228095D01*
X95851904Y-113180476D01*
X95947142Y-113132857D01*
X95994761Y-113085238D01*
X96042380Y-112990000D01*
X96042380Y-112894761D01*
X95994761Y-112799523D01*
X95947142Y-112751904D01*
X95851904Y-112704285D01*
X95661428Y-112656666D01*
X95423333Y-112656666D01*
X95232857Y-112704285D01*
X95137619Y-112751904D01*
X95090000Y-112799523D01*
X95042380Y-112894761D01*
X96652380Y-106632857D02*
X96652380Y-106728095D01*
X96700000Y-106823333D01*
X96747619Y-106870952D01*
X96842857Y-106918571D01*
X97033333Y-106966190D01*
X97271428Y-106966190D01*
X97461904Y-106918571D01*
X97557142Y-106870952D01*
X97604761Y-106823333D01*
X97652380Y-106728095D01*
X97652380Y-106632857D01*
X97604761Y-106537619D01*
X97557142Y-106490000D01*
X97461904Y-106442380D01*
X97271428Y-106394761D01*
X97033333Y-106394761D01*
X96842857Y-106442380D01*
X96747619Y-106490000D01*
X96700000Y-106537619D01*
X96652380Y-106632857D01*
X96652380Y-107299523D02*
X96652380Y-107966190D01*
X97652380Y-107537619D01*
X97557142Y-108347142D02*
X97604761Y-108394761D01*
X97652380Y-108347142D01*
X97604761Y-108299523D01*
X97557142Y-108347142D01*
X97652380Y-108347142D01*
X96652380Y-109013809D02*
X96652380Y-109109047D01*
X96700000Y-109204285D01*
X96747619Y-109251904D01*
X96842857Y-109299523D01*
X97033333Y-109347142D01*
X97271428Y-109347142D01*
X97461904Y-109299523D01*
X97557142Y-109251904D01*
X97604761Y-109204285D01*
X97652380Y-109109047D01*
X97652380Y-109013809D01*
X97604761Y-108918571D01*
X97557142Y-108870952D01*
X97461904Y-108823333D01*
X97271428Y-108775714D01*
X97033333Y-108775714D01*
X96842857Y-108823333D01*
X96747619Y-108870952D01*
X96700000Y-108918571D01*
X96652380Y-109013809D01*
X96652380Y-109680476D02*
X96652380Y-110299523D01*
X97033333Y-109966190D01*
X97033333Y-110109047D01*
X97080952Y-110204285D01*
X97128571Y-110251904D01*
X97223809Y-110299523D01*
X97461904Y-110299523D01*
X97557142Y-110251904D01*
X97604761Y-110204285D01*
X97652380Y-110109047D01*
X97652380Y-109823333D01*
X97604761Y-109728095D01*
X97557142Y-109680476D01*
X97557142Y-110728095D02*
X97604761Y-110775714D01*
X97652380Y-110728095D01*
X97604761Y-110680476D01*
X97557142Y-110728095D01*
X97652380Y-110728095D01*
X96747619Y-111156666D02*
X96700000Y-111204285D01*
X96652380Y-111299523D01*
X96652380Y-111537619D01*
X96700000Y-111632857D01*
X96747619Y-111680476D01*
X96842857Y-111728095D01*
X96938095Y-111728095D01*
X97080952Y-111680476D01*
X97652380Y-111109047D01*
X97652380Y-111728095D01*
X96652380Y-112347142D02*
X96652380Y-112442380D01*
X96700000Y-112537619D01*
X96747619Y-112585238D01*
X96842857Y-112632857D01*
X97033333Y-112680476D01*
X97271428Y-112680476D01*
X97461904Y-112632857D01*
X97557142Y-112585238D01*
X97604761Y-112537619D01*
X97652380Y-112442380D01*
X97652380Y-112347142D01*
X97604761Y-112251904D01*
X97557142Y-112204285D01*
X97461904Y-112156666D01*
X97271428Y-112109047D01*
X97033333Y-112109047D01*
X96842857Y-112156666D01*
X96747619Y-112204285D01*
X96700000Y-112251904D01*
X96652380Y-112347142D01*
X96747619Y-113061428D02*
X96700000Y-113109047D01*
X96652380Y-113204285D01*
X96652380Y-113442380D01*
X96700000Y-113537619D01*
X96747619Y-113585238D01*
X96842857Y-113632857D01*
X96938095Y-113632857D01*
X97080952Y-113585238D01*
X97652380Y-113013809D01*
X97652380Y-113632857D01*
X96652380Y-113966190D02*
X96652380Y-114585238D01*
X97033333Y-114251904D01*
X97033333Y-114394761D01*
X97080952Y-114490000D01*
X97128571Y-114537619D01*
X97223809Y-114585238D01*
X97461904Y-114585238D01*
X97557142Y-114537619D01*
X97604761Y-114490000D01*
X97652380Y-114394761D01*
X97652380Y-114109047D01*
X97604761Y-114013809D01*
X97557142Y-113966190D01*
X88431666Y-124531380D02*
X88765000Y-124055190D01*
X89003095Y-124531380D02*
X89003095Y-123531380D01*
X88622142Y-123531380D01*
X88526904Y-123579000D01*
X88479285Y-123626619D01*
X88431666Y-123721857D01*
X88431666Y-123864714D01*
X88479285Y-123959952D01*
X88526904Y-124007571D01*
X88622142Y-124055190D01*
X89003095Y-124055190D01*
X88050714Y-123626619D02*
X88003095Y-123579000D01*
X87907857Y-123531380D01*
X87669761Y-123531380D01*
X87574523Y-123579000D01*
X87526904Y-123626619D01*
X87479285Y-123721857D01*
X87479285Y-123817095D01*
X87526904Y-123959952D01*
X88098333Y-124531380D01*
X87479285Y-124531380D01*
X88201166Y-100782380D02*
X88534500Y-100306190D01*
X88772595Y-100782380D02*
X88772595Y-99782380D01*
X88391642Y-99782380D01*
X88296404Y-99830000D01*
X88248785Y-99877619D01*
X88201166Y-99972857D01*
X88201166Y-100115714D01*
X88248785Y-100210952D01*
X88296404Y-100258571D01*
X88391642Y-100306190D01*
X88772595Y-100306190D01*
X87344023Y-100115714D02*
X87344023Y-100782380D01*
X87582119Y-99734761D02*
X87820214Y-100449047D01*
X87201166Y-100449047D01*
X86526666Y-104904642D02*
X86574285Y-104952261D01*
X86717142Y-104999880D01*
X86812380Y-104999880D01*
X86955238Y-104952261D01*
X87050476Y-104857023D01*
X87098095Y-104761785D01*
X87145714Y-104571309D01*
X87145714Y-104428452D01*
X87098095Y-104237976D01*
X87050476Y-104142738D01*
X86955238Y-104047500D01*
X86812380Y-103999880D01*
X86717142Y-103999880D01*
X86574285Y-104047500D01*
X86526666Y-104095119D01*
X85574285Y-104999880D02*
X86145714Y-104999880D01*
X85860000Y-104999880D02*
X85860000Y-103999880D01*
X85955238Y-104142738D01*
X86050476Y-104237976D01*
X86145714Y-104285595D01*
X88201166Y-98242380D02*
X88534500Y-97766190D01*
X88772595Y-98242380D02*
X88772595Y-97242380D01*
X88391642Y-97242380D01*
X88296404Y-97290000D01*
X88248785Y-97337619D01*
X88201166Y-97432857D01*
X88201166Y-97575714D01*
X88248785Y-97670952D01*
X88296404Y-97718571D01*
X88391642Y-97766190D01*
X88772595Y-97766190D01*
X87296404Y-97242380D02*
X87772595Y-97242380D01*
X87820214Y-97718571D01*
X87772595Y-97670952D01*
X87677357Y-97623333D01*
X87439261Y-97623333D01*
X87344023Y-97670952D01*
X87296404Y-97718571D01*
X87248785Y-97813809D01*
X87248785Y-98051904D01*
X87296404Y-98147142D01*
X87344023Y-98194761D01*
X87439261Y-98242380D01*
X87677357Y-98242380D01*
X87772595Y-98194761D01*
X87820214Y-98147142D01*
X88431666Y-129611380D02*
X88765000Y-129135190D01*
X89003095Y-129611380D02*
X89003095Y-128611380D01*
X88622142Y-128611380D01*
X88526904Y-128659000D01*
X88479285Y-128706619D01*
X88431666Y-128801857D01*
X88431666Y-128944714D01*
X88479285Y-129039952D01*
X88526904Y-129087571D01*
X88622142Y-129135190D01*
X89003095Y-129135190D01*
X88098333Y-128611380D02*
X87479285Y-128611380D01*
X87812619Y-128992333D01*
X87669761Y-128992333D01*
X87574523Y-129039952D01*
X87526904Y-129087571D01*
X87479285Y-129182809D01*
X87479285Y-129420904D01*
X87526904Y-129516142D01*
X87574523Y-129563761D01*
X87669761Y-129611380D01*
X87955476Y-129611380D01*
X88050714Y-129563761D01*
X88098333Y-129516142D01*
X99226666Y-76017380D02*
X99560000Y-75541190D01*
X99798095Y-76017380D02*
X99798095Y-75017380D01*
X99417142Y-75017380D01*
X99321904Y-75065000D01*
X99274285Y-75112619D01*
X99226666Y-75207857D01*
X99226666Y-75350714D01*
X99274285Y-75445952D01*
X99321904Y-75493571D01*
X99417142Y-75541190D01*
X99798095Y-75541190D01*
X98274285Y-76017380D02*
X98845714Y-76017380D01*
X98560000Y-76017380D02*
X98560000Y-75017380D01*
X98655238Y-75160238D01*
X98750476Y-75255476D01*
X98845714Y-75303095D01*
X86399666Y-120245142D02*
X86447285Y-120292761D01*
X86590142Y-120340380D01*
X86685380Y-120340380D01*
X86828238Y-120292761D01*
X86923476Y-120197523D01*
X86971095Y-120102285D01*
X87018714Y-119911809D01*
X87018714Y-119768952D01*
X86971095Y-119578476D01*
X86923476Y-119483238D01*
X86828238Y-119388000D01*
X86685380Y-119340380D01*
X86590142Y-119340380D01*
X86447285Y-119388000D01*
X86399666Y-119435619D01*
X86018714Y-119435619D02*
X85971095Y-119388000D01*
X85875857Y-119340380D01*
X85637761Y-119340380D01*
X85542523Y-119388000D01*
X85494904Y-119435619D01*
X85447285Y-119530857D01*
X85447285Y-119626095D01*
X85494904Y-119768952D01*
X86066333Y-120340380D01*
X85447285Y-120340380D01*
D11*
X85344724Y-124601500D02*
X84835276Y-124601500D01*
X85344724Y-123556500D02*
X84835276Y-123556500D01*
X85368224Y-99807500D02*
X84858776Y-99807500D01*
X85368224Y-100852500D02*
X84858776Y-100852500D01*
X84711000Y-104693767D02*
X84711000Y-104401233D01*
X83691000Y-104693767D02*
X83691000Y-104401233D01*
X85368224Y-98312500D02*
X84858776Y-98312500D01*
X85368224Y-97267500D02*
X84858776Y-97267500D01*
X85368224Y-129681500D02*
X84858776Y-129681500D01*
X85368224Y-128636500D02*
X84858776Y-128636500D01*
X98537500Y-73002224D02*
X98537500Y-72492776D01*
X99582500Y-73002224D02*
X99582500Y-72492776D01*
X84711000Y-119715233D02*
X84711000Y-120007767D01*
X83691000Y-119715233D02*
X83691000Y-120007767D01*
%LPC*%
D12*
X81280000Y-85090000D03*
X81280000Y-110490000D03*
D13*
X81280000Y-105410000D03*
D14*
X81280000Y-102870000D03*
X81280000Y-100330000D03*
X81280000Y-97790000D03*
X81280000Y-95250000D03*
X81280000Y-92710000D03*
X81280000Y-90170000D03*
D15*
X81534000Y-135509000D03*
D13*
X80899000Y-116459000D03*
D14*
X80899000Y-118999000D03*
X80899000Y-121539000D03*
X80899000Y-124079000D03*
X80899000Y-126619000D03*
X80899000Y-129159000D03*
X80899000Y-131699000D03*
D13*
X81280000Y-73660000D03*
D16*
X81280000Y-71120000D03*
X83820000Y-73660000D03*
X83820000Y-71120000D03*
X86360000Y-73660000D03*
X86360000Y-71120000D03*
X88900000Y-73660000D03*
X88900000Y-71120000D03*
X91440000Y-73660000D03*
X91440000Y-71120000D03*
X93980000Y-73660000D03*
X93980000Y-71120000D03*
D13*
X85090000Y-78740000D03*
D16*
X82550000Y-78740000D03*
D13*
X96520000Y-78740000D03*
D16*
X93980000Y-78740000D03*
D17*
X86002500Y-124079000D03*
X84177500Y-124079000D03*
X86026000Y-100330000D03*
X84201000Y-100330000D03*
D18*
X84201000Y-105410000D03*
X84201000Y-103685000D03*
D17*
X86026000Y-97790000D03*
X84201000Y-97790000D03*
X86026000Y-129159000D03*
X84201000Y-129159000D03*
D19*
X99060000Y-73660000D03*
X99060000Y-71835000D03*
D20*
X84201000Y-118999000D03*
X84201000Y-120724000D03*
M02*
