G04 #@! TF.GenerationSoftware,KiCad,Pcbnew,6.0.9-8da3e8f707~116~ubuntu20.04.1*
G04 #@! TF.CreationDate,2023-03-08T00:07:42+01:00*
G04 #@! TF.ProjectId,clocks_pmod,636c6f63-6b73-45f7-906d-6f642e6b6963,rev?*
G04 #@! TF.SameCoordinates,Original*
G04 #@! TF.FileFunction,Copper,L2,Bot*
G04 #@! TF.FilePolarity,Positive*
%FSLAX46Y46*%
G04 Gerber Fmt 4.6, Leading zero omitted, Abs format (unit mm)*
G04 Created by KiCad (PCBNEW 6.0.9-8da3e8f707~116~ubuntu20.04.1) date 2023-03-08 00:07:42*
%MOMM*%
%LPD*%
G01*
G04 APERTURE LIST*
G04 Aperture macros list*
%AMRoundRect*
0 Rectangle with rounded corners*
0 $1 Rounding radius*
0 $2 $3 $4 $5 $6 $7 $8 $9 X,Y pos of 4 corners*
0 Add a 4 corners polygon primitive as box body*
4,1,4,$2,$3,$4,$5,$6,$7,$8,$9,$2,$3,0*
0 Add four circle primitives for the rounded corners*
1,1,$1+$1,$2,$3*
1,1,$1+$1,$4,$5*
1,1,$1+$1,$6,$7*
1,1,$1+$1,$8,$9*
0 Add four rect primitives between the rounded corners*
20,1,$1+$1,$2,$3,$4,$5,0*
20,1,$1+$1,$4,$5,$6,$7,0*
20,1,$1+$1,$6,$7,$8,$9,0*
20,1,$1+$1,$8,$9,$2,$3,0*%
G04 Aperture macros list end*
G04 #@! TA.AperFunction,ComponentPad*
%ADD10R,1.700000X1.700000*%
G04 #@! TD*
G04 #@! TA.AperFunction,ComponentPad*
%ADD11C,1.700000*%
G04 #@! TD*
G04 #@! TA.AperFunction,ComponentPad*
%ADD12O,1.700000X1.700000*%
G04 #@! TD*
G04 #@! TA.AperFunction,SMDPad,CuDef*
%ADD13RoundRect,0.237500X0.250000X0.237500X-0.250000X0.237500X-0.250000X-0.237500X0.250000X-0.237500X0*%
G04 #@! TD*
G04 #@! TA.AperFunction,SMDPad,CuDef*
%ADD14RoundRect,0.237500X0.237500X-0.300000X0.237500X0.300000X-0.237500X0.300000X-0.237500X-0.300000X0*%
G04 #@! TD*
G04 #@! TA.AperFunction,SMDPad,CuDef*
%ADD15RoundRect,0.237500X0.237500X-0.250000X0.237500X0.250000X-0.237500X0.250000X-0.237500X-0.250000X0*%
G04 #@! TD*
G04 #@! TA.AperFunction,SMDPad,CuDef*
%ADD16RoundRect,0.237500X-0.237500X0.300000X-0.237500X-0.300000X0.237500X-0.300000X0.237500X0.300000X0*%
G04 #@! TD*
G04 #@! TA.AperFunction,ViaPad*
%ADD17C,0.800000*%
G04 #@! TD*
G04 #@! TA.AperFunction,Conductor*
%ADD18C,0.500000*%
G04 #@! TD*
G04 #@! TA.AperFunction,Conductor*
%ADD19C,0.250000*%
G04 #@! TD*
G04 APERTURE END LIST*
D10*
X81280000Y-105410000D03*
D11*
X81280000Y-102870000D03*
X81280000Y-100330000D03*
X81280000Y-97790000D03*
X81280000Y-95250000D03*
X81280000Y-92710000D03*
X81280000Y-90170000D03*
D10*
X80899000Y-116459000D03*
D11*
X80899000Y-118999000D03*
X80899000Y-121539000D03*
X80899000Y-124079000D03*
X80899000Y-126619000D03*
X80899000Y-129159000D03*
X80899000Y-131699000D03*
D10*
X81280000Y-73660000D03*
D12*
X81280000Y-71120000D03*
X83820000Y-73660000D03*
X83820000Y-71120000D03*
X86360000Y-73660000D03*
X86360000Y-71120000D03*
X88900000Y-73660000D03*
X88900000Y-71120000D03*
X91440000Y-73660000D03*
X91440000Y-71120000D03*
X93980000Y-73660000D03*
X93980000Y-71120000D03*
D10*
X85090000Y-78740000D03*
D12*
X82550000Y-78740000D03*
D10*
X96520000Y-78740000D03*
D12*
X93980000Y-78740000D03*
D13*
X86002500Y-124079000D03*
X84177500Y-124079000D03*
X86026000Y-100330000D03*
X84201000Y-100330000D03*
D14*
X84201000Y-105410000D03*
X84201000Y-103685000D03*
D13*
X86026000Y-97790000D03*
X84201000Y-97790000D03*
X86026000Y-129159000D03*
X84201000Y-129159000D03*
D15*
X99060000Y-73660000D03*
X99060000Y-71835000D03*
D16*
X84201000Y-118999000D03*
X84201000Y-120724000D03*
D17*
X100162400Y-71892200D03*
D18*
X81280000Y-102870000D02*
X78994000Y-105156000D01*
X78994000Y-105156000D02*
X78994000Y-119634000D01*
X78994000Y-119634000D02*
X80899000Y-121539000D01*
X83820000Y-73660000D02*
X83820000Y-74960300D01*
X83820000Y-74960300D02*
X79176100Y-79604200D01*
X79176100Y-79604200D02*
X79176100Y-100766100D01*
X79176100Y-100766100D02*
X81280000Y-102870000D01*
X80899000Y-121539000D02*
X82169000Y-122809000D01*
X82169000Y-122809000D02*
X83947000Y-122809000D01*
X83947000Y-122809000D02*
X84201000Y-122555000D01*
X84201000Y-122555000D02*
X84201000Y-120724000D01*
X84201000Y-101981000D02*
X83820000Y-101600000D01*
X84201000Y-103685000D02*
X84201000Y-101981000D01*
X83820000Y-101600000D02*
X82550000Y-101600000D01*
X82550000Y-101600000D02*
X81280000Y-102870000D01*
D19*
X84201000Y-100330000D02*
X81280000Y-100330000D01*
X84201000Y-97790000D02*
X81280000Y-97790000D01*
D18*
X86026000Y-104601000D02*
X85788500Y-104838500D01*
X85788500Y-104838500D02*
X85217000Y-105410000D01*
X86026000Y-100330000D02*
X86026000Y-104601000D01*
X86026000Y-97790000D02*
X86026000Y-100330000D01*
X85217000Y-105410000D02*
X84201000Y-105410000D01*
D19*
X84282000Y-90170000D02*
X81280000Y-90170000D01*
X95344700Y-79107300D02*
X84282000Y-90170000D01*
X95344700Y-78740000D02*
X95344700Y-79107300D01*
X96520000Y-78740000D02*
X95344700Y-78740000D01*
X84201000Y-129159000D02*
X80899000Y-129159000D01*
X90264700Y-71487400D02*
X90264700Y-71120000D01*
X89456800Y-72295300D02*
X90264700Y-71487400D01*
X88580500Y-72295300D02*
X89456800Y-72295300D01*
X87663400Y-73212400D02*
X88580500Y-72295300D01*
X87663400Y-74029500D02*
X87663400Y-73212400D01*
X84128200Y-77564700D02*
X87663400Y-74029500D01*
X84027400Y-77564700D02*
X84128200Y-77564700D01*
X83725300Y-77866800D02*
X84027400Y-77564700D01*
X83725300Y-78740000D02*
X83725300Y-77866800D01*
X82550000Y-78740000D02*
X83725300Y-78740000D01*
X91440000Y-71120000D02*
X90264700Y-71120000D01*
X84177500Y-124079000D02*
X80899000Y-124079000D01*
X87724700Y-71487400D02*
X87724700Y-71120000D01*
X86916800Y-72295300D02*
X87724700Y-71487400D01*
X86059900Y-72295300D02*
X86916800Y-72295300D01*
X85184600Y-73170600D02*
X86059900Y-72295300D01*
X85184600Y-74436200D02*
X85184600Y-73170600D01*
X81374200Y-78246600D02*
X85184600Y-74436200D01*
X81374200Y-80693300D02*
X81374200Y-78246600D01*
X83262500Y-82581600D02*
X81374200Y-80693300D01*
X83262500Y-86979400D02*
X83262500Y-82581600D01*
X81878200Y-88363700D02*
X83262500Y-86979400D01*
X81418700Y-88363700D02*
X81878200Y-88363700D01*
X80104600Y-89677800D02*
X81418700Y-88363700D01*
X80104600Y-96614600D02*
X80104600Y-89677800D01*
X81280000Y-97790000D02*
X80104600Y-96614600D01*
X88900000Y-71120000D02*
X87724700Y-71120000D01*
X90075300Y-73292600D02*
X90075300Y-73660000D01*
X90883200Y-72484700D02*
X90075300Y-73292600D01*
X97884700Y-72484700D02*
X90883200Y-72484700D01*
X99060000Y-73660000D02*
X97884700Y-72484700D01*
X88900000Y-73660000D02*
X90075300Y-73660000D01*
X100105200Y-71835000D02*
X100162400Y-71892200D01*
X99060000Y-71835000D02*
X100105200Y-71835000D01*
D18*
X84201000Y-118999000D02*
X80899000Y-118999000D01*
X86002500Y-129135500D02*
X86002500Y-124079000D01*
X86026000Y-129159000D02*
X86002500Y-129135500D01*
X86002500Y-120800500D02*
X84201000Y-118999000D01*
X86002500Y-124079000D02*
X86002500Y-120800500D01*
X81280000Y-105410000D02*
X82580300Y-105410000D01*
X84201000Y-105410000D02*
X84201000Y-118999000D01*
X82580300Y-105410000D02*
X84201000Y-105410000D01*
G04 #@! TA.AperFunction,Conductor*
G36*
X100972025Y-67311792D02*
G01*
X101016582Y-67316812D01*
X101018852Y-67317090D01*
X101060708Y-67322600D01*
X101100871Y-67327888D01*
X101126040Y-67333881D01*
X101178918Y-67352384D01*
X101185520Y-67354904D01*
X101247626Y-67380629D01*
X101266442Y-67390350D01*
X101316103Y-67421553D01*
X101325773Y-67428279D01*
X101377159Y-67467709D01*
X101389550Y-67478576D01*
X101431424Y-67520450D01*
X101442291Y-67532841D01*
X101481721Y-67584227D01*
X101488447Y-67593897D01*
X101519650Y-67643558D01*
X101529371Y-67662374D01*
X101555096Y-67724480D01*
X101557616Y-67731082D01*
X101576119Y-67783960D01*
X101582112Y-67809129D01*
X101592906Y-67891113D01*
X101593192Y-67893453D01*
X101598208Y-67937974D01*
X101599000Y-67952081D01*
X101599000Y-139057919D01*
X101598208Y-139072026D01*
X101593192Y-139116547D01*
X101592906Y-139118887D01*
X101582112Y-139200871D01*
X101576119Y-139226040D01*
X101557616Y-139278918D01*
X101555096Y-139285520D01*
X101529371Y-139347626D01*
X101519650Y-139366442D01*
X101488447Y-139416103D01*
X101481721Y-139425773D01*
X101442291Y-139477159D01*
X101431424Y-139489550D01*
X101389550Y-139531424D01*
X101377159Y-139542291D01*
X101325773Y-139581721D01*
X101316103Y-139588447D01*
X101266442Y-139619650D01*
X101247626Y-139629371D01*
X101185520Y-139655096D01*
X101178918Y-139657616D01*
X101126040Y-139676119D01*
X101100871Y-139682112D01*
X101060708Y-139687400D01*
X101018852Y-139692910D01*
X101016582Y-139693188D01*
X100972025Y-139698208D01*
X100957919Y-139699000D01*
X78112081Y-139699000D01*
X78097975Y-139698208D01*
X78053418Y-139693188D01*
X78051148Y-139692910D01*
X78009292Y-139687400D01*
X77969129Y-139682112D01*
X77943960Y-139676119D01*
X77891082Y-139657616D01*
X77884480Y-139655096D01*
X77822374Y-139629371D01*
X77803558Y-139619650D01*
X77753897Y-139588447D01*
X77744227Y-139581721D01*
X77692841Y-139542291D01*
X77680450Y-139531424D01*
X77638576Y-139489550D01*
X77627709Y-139477159D01*
X77588279Y-139425773D01*
X77581553Y-139416103D01*
X77550350Y-139366442D01*
X77540629Y-139347626D01*
X77514904Y-139285520D01*
X77512384Y-139278918D01*
X77493881Y-139226040D01*
X77487888Y-139200871D01*
X77477094Y-139118887D01*
X77476808Y-139116547D01*
X77471792Y-139072026D01*
X77471000Y-139057919D01*
X77471000Y-135616165D01*
X79781866Y-135616165D01*
X79816952Y-135873970D01*
X79889758Y-136123757D01*
X79998686Y-136360039D01*
X80001246Y-136363944D01*
X80001249Y-136363949D01*
X80138775Y-136573712D01*
X80138779Y-136573717D01*
X80141341Y-136577625D01*
X80314591Y-136771735D01*
X80514629Y-136938105D01*
X80737061Y-137073080D01*
X80741375Y-137074889D01*
X80741377Y-137074890D01*
X80972686Y-137171886D01*
X80972691Y-137171888D01*
X80977001Y-137173695D01*
X80981533Y-137174846D01*
X80981536Y-137174847D01*
X81106815Y-137206663D01*
X81229177Y-137237739D01*
X81445286Y-137259500D01*
X81600044Y-137259500D01*
X81602369Y-137259327D01*
X81602375Y-137259327D01*
X81788814Y-137245472D01*
X81788818Y-137245471D01*
X81793466Y-137245126D01*
X82047232Y-137187705D01*
X82051586Y-137186012D01*
X82285370Y-137095098D01*
X82285372Y-137095097D01*
X82289723Y-137093405D01*
X82325285Y-137073080D01*
X82373038Y-137045786D01*
X82515612Y-136964299D01*
X82719936Y-136803223D01*
X82898208Y-136613714D01*
X83046511Y-136399937D01*
X83064258Y-136363949D01*
X83159521Y-136170775D01*
X83159522Y-136170772D01*
X83161586Y-136166587D01*
X83240906Y-135918792D01*
X83282728Y-135661994D01*
X83286134Y-135401835D01*
X83251048Y-135144030D01*
X83178242Y-134894243D01*
X83069314Y-134657961D01*
X83040637Y-134614221D01*
X82929225Y-134444288D01*
X82929221Y-134444283D01*
X82926659Y-134440375D01*
X82753409Y-134246265D01*
X82553371Y-134079895D01*
X82330939Y-133944920D01*
X82326623Y-133943110D01*
X82095314Y-133846114D01*
X82095309Y-133846112D01*
X82090999Y-133844305D01*
X82086467Y-133843154D01*
X82086464Y-133843153D01*
X81961185Y-133811337D01*
X81838823Y-133780261D01*
X81622714Y-133758500D01*
X81467956Y-133758500D01*
X81465631Y-133758673D01*
X81465625Y-133758673D01*
X81279186Y-133772528D01*
X81279182Y-133772529D01*
X81274534Y-133772874D01*
X81020768Y-133830295D01*
X81016416Y-133831987D01*
X81016414Y-133831988D01*
X80782630Y-133922902D01*
X80782628Y-133922903D01*
X80778277Y-133924595D01*
X80774223Y-133926912D01*
X80774221Y-133926913D01*
X80738467Y-133947348D01*
X80552388Y-134053701D01*
X80348064Y-134214777D01*
X80169792Y-134404286D01*
X80021489Y-134618063D01*
X80019423Y-134622253D01*
X80019421Y-134622256D01*
X79999720Y-134662207D01*
X79906414Y-134851413D01*
X79827094Y-135099208D01*
X79785272Y-135356006D01*
X79781866Y-135616165D01*
X77471000Y-135616165D01*
X77471000Y-131684262D01*
X79843520Y-131684262D01*
X79860759Y-131889553D01*
X79917544Y-132087586D01*
X79920359Y-132093063D01*
X79920360Y-132093066D01*
X79941247Y-132133707D01*
X80011712Y-132270818D01*
X80139677Y-132432270D01*
X80296564Y-132565791D01*
X80476398Y-132666297D01*
X80571238Y-132697113D01*
X80666471Y-132728056D01*
X80666475Y-132728057D01*
X80672329Y-132729959D01*
X80876894Y-132754351D01*
X80883029Y-132753879D01*
X80883031Y-132753879D01*
X80939039Y-132749569D01*
X81082300Y-132738546D01*
X81088230Y-132736890D01*
X81088232Y-132736890D01*
X81274797Y-132684800D01*
X81274796Y-132684800D01*
X81280725Y-132683145D01*
X81286214Y-132680372D01*
X81286220Y-132680370D01*
X81459116Y-132593033D01*
X81464610Y-132590258D01*
X81626951Y-132463424D01*
X81761564Y-132307472D01*
X81782387Y-132270818D01*
X81860276Y-132133707D01*
X81863323Y-132128344D01*
X81928351Y-131932863D01*
X81954171Y-131728474D01*
X81954583Y-131699000D01*
X81934480Y-131493970D01*
X81874935Y-131296749D01*
X81778218Y-131114849D01*
X81704859Y-131024902D01*
X81651906Y-130959975D01*
X81651903Y-130959972D01*
X81648011Y-130955200D01*
X81630786Y-130940950D01*
X81494025Y-130827811D01*
X81494021Y-130827809D01*
X81489275Y-130823882D01*
X81308055Y-130725897D01*
X81111254Y-130664977D01*
X81105129Y-130664333D01*
X81105128Y-130664333D01*
X80912498Y-130644087D01*
X80912496Y-130644087D01*
X80906369Y-130643443D01*
X80819529Y-130651346D01*
X80707342Y-130661555D01*
X80707339Y-130661556D01*
X80701203Y-130662114D01*
X80503572Y-130720280D01*
X80321002Y-130815726D01*
X80316201Y-130819586D01*
X80316198Y-130819588D01*
X80305971Y-130827811D01*
X80160447Y-130944815D01*
X80028024Y-131102630D01*
X80025056Y-131108028D01*
X80025053Y-131108033D01*
X80018315Y-131120290D01*
X79928776Y-131283162D01*
X79866484Y-131479532D01*
X79865798Y-131485649D01*
X79865797Y-131485653D01*
X79844207Y-131678137D01*
X79843520Y-131684262D01*
X77471000Y-131684262D01*
X77471000Y-129144262D01*
X79843520Y-129144262D01*
X79860759Y-129349553D01*
X79862458Y-129355478D01*
X79898021Y-129479500D01*
X79917544Y-129547586D01*
X79920359Y-129553063D01*
X79920360Y-129553066D01*
X80003738Y-129715303D01*
X80011712Y-129730818D01*
X80139677Y-129892270D01*
X80296564Y-130025791D01*
X80476398Y-130126297D01*
X80571238Y-130157113D01*
X80666471Y-130188056D01*
X80666475Y-130188057D01*
X80672329Y-130189959D01*
X80876894Y-130214351D01*
X80883029Y-130213879D01*
X80883031Y-130213879D01*
X80939039Y-130209569D01*
X81082300Y-130198546D01*
X81088230Y-130196890D01*
X81088232Y-130196890D01*
X81274797Y-130144800D01*
X81274796Y-130144800D01*
X81280725Y-130143145D01*
X81286214Y-130140372D01*
X81286220Y-130140370D01*
X81459116Y-130053033D01*
X81464610Y-130050258D01*
X81626951Y-129923424D01*
X81703708Y-129834500D01*
X81757540Y-129772134D01*
X81757540Y-129772133D01*
X81761564Y-129767472D01*
X81782387Y-129730818D01*
X81810107Y-129682022D01*
X81863323Y-129588344D01*
X81869184Y-129570726D01*
X81909666Y-129512403D01*
X81975254Y-129485224D01*
X81988741Y-129484500D01*
X83428359Y-129484500D01*
X83496480Y-129504502D01*
X83542973Y-129558158D01*
X83547242Y-129568752D01*
X83559539Y-129603768D01*
X83637789Y-129709711D01*
X83645360Y-129715303D01*
X83736155Y-129782365D01*
X83736157Y-129782366D01*
X83743732Y-129787961D01*
X83752619Y-129791082D01*
X83752621Y-129791083D01*
X83860752Y-129829056D01*
X83860754Y-129829057D01*
X83868000Y-129831601D01*
X83875644Y-129832324D01*
X83875646Y-129832324D01*
X83883621Y-129833078D01*
X83898667Y-129834500D01*
X84200847Y-129834500D01*
X84503332Y-129834499D01*
X84506282Y-129834220D01*
X84506287Y-129834220D01*
X84526350Y-129832324D01*
X84526351Y-129832324D01*
X84534000Y-129831601D01*
X84541248Y-129829056D01*
X84541251Y-129829055D01*
X84649379Y-129791083D01*
X84649381Y-129791082D01*
X84658268Y-129787961D01*
X84665843Y-129782366D01*
X84665845Y-129782365D01*
X84756640Y-129715303D01*
X84764211Y-129709711D01*
X84842461Y-129603768D01*
X84845994Y-129593709D01*
X84883556Y-129486748D01*
X84883557Y-129486746D01*
X84886101Y-129479500D01*
X84889000Y-129448833D01*
X84888999Y-128869168D01*
X84886101Y-128838500D01*
X84857392Y-128756749D01*
X84845583Y-128723121D01*
X84845581Y-128723117D01*
X84842461Y-128714232D01*
X84764211Y-128608289D01*
X84726141Y-128580170D01*
X84665845Y-128535635D01*
X84665843Y-128535634D01*
X84658268Y-128530039D01*
X84649381Y-128526918D01*
X84649379Y-128526917D01*
X84541248Y-128488944D01*
X84541246Y-128488943D01*
X84534000Y-128486399D01*
X84526356Y-128485676D01*
X84526354Y-128485676D01*
X84518379Y-128484922D01*
X84503333Y-128483500D01*
X84201153Y-128483500D01*
X83898668Y-128483501D01*
X83895718Y-128483780D01*
X83895713Y-128483780D01*
X83875650Y-128485676D01*
X83875649Y-128485676D01*
X83868000Y-128486399D01*
X83860752Y-128488944D01*
X83860749Y-128488945D01*
X83752621Y-128526917D01*
X83752619Y-128526918D01*
X83743732Y-128530039D01*
X83736157Y-128535634D01*
X83736155Y-128535635D01*
X83675859Y-128580170D01*
X83637789Y-128608289D01*
X83559539Y-128714232D01*
X83552299Y-128734848D01*
X83547242Y-128749248D01*
X83505799Y-128806894D01*
X83439769Y-128832982D01*
X83428359Y-128833500D01*
X81990269Y-128833500D01*
X81922148Y-128813498D01*
X81875008Y-128756991D01*
X81874935Y-128756749D01*
X81778218Y-128574849D01*
X81671585Y-128444104D01*
X81651906Y-128419975D01*
X81651903Y-128419972D01*
X81648011Y-128415200D01*
X81630786Y-128400950D01*
X81494025Y-128287811D01*
X81494021Y-128287809D01*
X81489275Y-128283882D01*
X81308055Y-128185897D01*
X81111254Y-128124977D01*
X81105129Y-128124333D01*
X81105128Y-128124333D01*
X80912498Y-128104087D01*
X80912496Y-128104087D01*
X80906369Y-128103443D01*
X80819529Y-128111346D01*
X80707342Y-128121555D01*
X80707339Y-128121556D01*
X80701203Y-128122114D01*
X80503572Y-128180280D01*
X80321002Y-128275726D01*
X80316201Y-128279586D01*
X80316198Y-128279588D01*
X80305971Y-128287811D01*
X80160447Y-128404815D01*
X80028024Y-128562630D01*
X80025056Y-128568028D01*
X80025053Y-128568033D01*
X79948846Y-128706655D01*
X79928776Y-128743162D01*
X79866484Y-128939532D01*
X79843520Y-129144262D01*
X77471000Y-129144262D01*
X77471000Y-126604262D01*
X79843520Y-126604262D01*
X79860759Y-126809553D01*
X79917544Y-127007586D01*
X79920359Y-127013063D01*
X79920360Y-127013066D01*
X79941247Y-127053707D01*
X80011712Y-127190818D01*
X80139677Y-127352270D01*
X80296564Y-127485791D01*
X80476398Y-127586297D01*
X80571238Y-127617113D01*
X80666471Y-127648056D01*
X80666475Y-127648057D01*
X80672329Y-127649959D01*
X80876894Y-127674351D01*
X80883029Y-127673879D01*
X80883031Y-127673879D01*
X80939039Y-127669569D01*
X81082300Y-127658546D01*
X81088230Y-127656890D01*
X81088232Y-127656890D01*
X81274797Y-127604800D01*
X81274796Y-127604800D01*
X81280725Y-127603145D01*
X81286214Y-127600372D01*
X81286220Y-127600370D01*
X81459116Y-127513033D01*
X81464610Y-127510258D01*
X81626951Y-127383424D01*
X81761564Y-127227472D01*
X81782387Y-127190818D01*
X81860276Y-127053707D01*
X81863323Y-127048344D01*
X81928351Y-126852863D01*
X81954171Y-126648474D01*
X81954583Y-126619000D01*
X81934480Y-126413970D01*
X81874935Y-126216749D01*
X81778218Y-126034849D01*
X81704859Y-125944902D01*
X81651906Y-125879975D01*
X81651903Y-125879972D01*
X81648011Y-125875200D01*
X81630786Y-125860950D01*
X81494025Y-125747811D01*
X81494021Y-125747809D01*
X81489275Y-125743882D01*
X81308055Y-125645897D01*
X81111254Y-125584977D01*
X81105129Y-125584333D01*
X81105128Y-125584333D01*
X80912498Y-125564087D01*
X80912496Y-125564087D01*
X80906369Y-125563443D01*
X80819529Y-125571346D01*
X80707342Y-125581555D01*
X80707339Y-125581556D01*
X80701203Y-125582114D01*
X80503572Y-125640280D01*
X80321002Y-125735726D01*
X80316201Y-125739586D01*
X80316198Y-125739588D01*
X80305971Y-125747811D01*
X80160447Y-125864815D01*
X80028024Y-126022630D01*
X80025056Y-126028028D01*
X80025053Y-126028033D01*
X80018315Y-126040290D01*
X79928776Y-126203162D01*
X79866484Y-126399532D01*
X79865798Y-126405649D01*
X79865797Y-126405653D01*
X79844207Y-126598137D01*
X79843520Y-126604262D01*
X77471000Y-126604262D01*
X77471000Y-124064262D01*
X79843520Y-124064262D01*
X79860759Y-124269553D01*
X79862458Y-124275478D01*
X79898021Y-124399500D01*
X79917544Y-124467586D01*
X79920359Y-124473063D01*
X79920360Y-124473066D01*
X80003738Y-124635303D01*
X80011712Y-124650818D01*
X80139677Y-124812270D01*
X80296564Y-124945791D01*
X80476398Y-125046297D01*
X80571238Y-125077113D01*
X80666471Y-125108056D01*
X80666475Y-125108057D01*
X80672329Y-125109959D01*
X80876894Y-125134351D01*
X80883029Y-125133879D01*
X80883031Y-125133879D01*
X80939039Y-125129569D01*
X81082300Y-125118546D01*
X81088230Y-125116890D01*
X81088232Y-125116890D01*
X81274797Y-125064800D01*
X81274796Y-125064800D01*
X81280725Y-125063145D01*
X81286214Y-125060372D01*
X81286220Y-125060370D01*
X81459116Y-124973033D01*
X81464610Y-124970258D01*
X81626951Y-124843424D01*
X81703708Y-124754500D01*
X81757540Y-124692134D01*
X81757540Y-124692133D01*
X81761564Y-124687472D01*
X81782387Y-124650818D01*
X81810107Y-124602022D01*
X81863323Y-124508344D01*
X81869184Y-124490726D01*
X81909666Y-124432403D01*
X81975254Y-124405224D01*
X81988741Y-124404500D01*
X83404859Y-124404500D01*
X83472980Y-124424502D01*
X83519473Y-124478158D01*
X83523742Y-124488752D01*
X83536039Y-124523768D01*
X83614289Y-124629711D01*
X83621860Y-124635303D01*
X83712655Y-124702365D01*
X83712657Y-124702366D01*
X83720232Y-124707961D01*
X83729119Y-124711082D01*
X83729121Y-124711083D01*
X83837252Y-124749056D01*
X83837254Y-124749057D01*
X83844500Y-124751601D01*
X83852144Y-124752324D01*
X83852146Y-124752324D01*
X83860121Y-124753078D01*
X83875167Y-124754500D01*
X84177347Y-124754500D01*
X84479832Y-124754499D01*
X84482782Y-124754220D01*
X84482787Y-124754220D01*
X84502850Y-124752324D01*
X84502851Y-124752324D01*
X84510500Y-124751601D01*
X84517748Y-124749056D01*
X84517751Y-124749055D01*
X84625879Y-124711083D01*
X84625881Y-124711082D01*
X84634768Y-124707961D01*
X84642343Y-124702366D01*
X84642345Y-124702365D01*
X84733140Y-124635303D01*
X84740711Y-124629711D01*
X84818961Y-124523768D01*
X84822494Y-124513709D01*
X84860056Y-124406748D01*
X84860057Y-124406746D01*
X84862601Y-124399500D01*
X84865500Y-124368833D01*
X84865499Y-123789168D01*
X84862601Y-123758500D01*
X84833892Y-123676749D01*
X84822083Y-123643121D01*
X84822081Y-123643117D01*
X84818961Y-123634232D01*
X84740711Y-123528289D01*
X84702803Y-123500290D01*
X84642345Y-123455635D01*
X84642343Y-123455634D01*
X84634768Y-123450039D01*
X84625881Y-123446918D01*
X84625879Y-123446917D01*
X84517748Y-123408944D01*
X84517746Y-123408943D01*
X84510500Y-123406399D01*
X84502856Y-123405676D01*
X84502854Y-123405676D01*
X84494879Y-123404922D01*
X84479833Y-123403500D01*
X84177653Y-123403500D01*
X83875168Y-123403501D01*
X83872218Y-123403780D01*
X83872213Y-123403780D01*
X83852150Y-123405676D01*
X83852149Y-123405676D01*
X83844500Y-123406399D01*
X83837252Y-123408944D01*
X83837249Y-123408945D01*
X83729121Y-123446917D01*
X83729119Y-123446918D01*
X83720232Y-123450039D01*
X83712657Y-123455634D01*
X83712655Y-123455635D01*
X83652197Y-123500290D01*
X83614289Y-123528289D01*
X83536039Y-123634232D01*
X83528799Y-123654848D01*
X83523742Y-123669248D01*
X83482299Y-123726894D01*
X83416269Y-123752982D01*
X83404859Y-123753500D01*
X81990269Y-123753500D01*
X81922148Y-123733498D01*
X81875008Y-123676991D01*
X81874935Y-123676749D01*
X81778218Y-123494849D01*
X81685741Y-123381461D01*
X81651906Y-123339975D01*
X81651903Y-123339972D01*
X81648011Y-123335200D01*
X81630786Y-123320950D01*
X81494025Y-123207811D01*
X81494021Y-123207809D01*
X81489275Y-123203882D01*
X81308055Y-123105897D01*
X81257183Y-123090150D01*
X81198025Y-123050899D01*
X81169477Y-122985895D01*
X81180605Y-122915776D01*
X81227876Y-122862804D01*
X81258235Y-122849099D01*
X81391255Y-122809191D01*
X81400842Y-122805433D01*
X81592098Y-122711738D01*
X81600944Y-122706465D01*
X81648247Y-122672723D01*
X81656648Y-122662023D01*
X81649660Y-122648870D01*
X80911812Y-121911022D01*
X80897868Y-121903408D01*
X80896035Y-121903539D01*
X80889420Y-121907790D01*
X80145737Y-122651473D01*
X80138977Y-122663853D01*
X80144258Y-122670907D01*
X80305756Y-122765279D01*
X80315042Y-122769729D01*
X80514001Y-122845703D01*
X80528866Y-122850022D01*
X80528289Y-122852008D01*
X80583260Y-122881082D01*
X80618110Y-122942936D01*
X80613988Y-123013813D01*
X80572201Y-123071209D01*
X80530930Y-123092228D01*
X80509489Y-123098538D01*
X80509484Y-123098540D01*
X80503572Y-123100280D01*
X80321002Y-123195726D01*
X80316201Y-123199586D01*
X80316198Y-123199588D01*
X80305971Y-123207811D01*
X80160447Y-123324815D01*
X80028024Y-123482630D01*
X80025056Y-123488028D01*
X80025053Y-123488033D01*
X79948846Y-123626655D01*
X79928776Y-123663162D01*
X79866484Y-123859532D01*
X79843520Y-124064262D01*
X77471000Y-124064262D01*
X77471000Y-121510863D01*
X79537050Y-121510863D01*
X79549309Y-121723477D01*
X79550745Y-121733697D01*
X79597565Y-121941446D01*
X79600645Y-121951275D01*
X79680770Y-122148603D01*
X79685413Y-122157794D01*
X79765460Y-122288420D01*
X79775916Y-122297880D01*
X79784694Y-122294096D01*
X80526978Y-121551812D01*
X80533356Y-121540132D01*
X81263408Y-121540132D01*
X81263539Y-121541965D01*
X81267790Y-121548580D01*
X82009474Y-122290264D01*
X82021484Y-122296823D01*
X82033223Y-122287855D01*
X82064004Y-122245019D01*
X82069315Y-122236180D01*
X82163670Y-122045267D01*
X82167469Y-122035672D01*
X82229376Y-121831915D01*
X82231555Y-121821834D01*
X82259590Y-121608887D01*
X82260109Y-121602212D01*
X82261572Y-121542364D01*
X82261378Y-121535646D01*
X82243781Y-121321604D01*
X82242096Y-121311424D01*
X82190214Y-121104875D01*
X82186894Y-121095124D01*
X82176086Y-121070266D01*
X83218000Y-121070266D01*
X83218337Y-121076782D01*
X83228075Y-121170632D01*
X83230968Y-121184028D01*
X83281488Y-121335453D01*
X83287653Y-121348615D01*
X83371426Y-121483992D01*
X83380460Y-121495390D01*
X83493129Y-121607863D01*
X83504540Y-121616875D01*
X83640063Y-121700412D01*
X83653241Y-121706556D01*
X83804766Y-121756815D01*
X83818132Y-121759681D01*
X83910770Y-121769172D01*
X83917185Y-121769500D01*
X83928885Y-121769500D01*
X83944124Y-121765025D01*
X83945329Y-121763635D01*
X83947000Y-121755952D01*
X83947000Y-120996115D01*
X83942525Y-120980876D01*
X83941135Y-120979671D01*
X83933452Y-120978000D01*
X83236115Y-120978000D01*
X83220876Y-120982475D01*
X83219671Y-120983865D01*
X83218000Y-120991548D01*
X83218000Y-121070266D01*
X82176086Y-121070266D01*
X82101972Y-120899814D01*
X82097105Y-120890739D01*
X82032063Y-120790197D01*
X82021377Y-120780995D01*
X82011812Y-120785398D01*
X81271022Y-121526188D01*
X81263408Y-121540132D01*
X80533356Y-121540132D01*
X80534592Y-121537868D01*
X80534461Y-121536035D01*
X80530210Y-121529420D01*
X79788849Y-120788059D01*
X79777313Y-120781759D01*
X79765031Y-120791382D01*
X79717089Y-120861662D01*
X79712004Y-120870613D01*
X79622338Y-121063783D01*
X79618775Y-121073470D01*
X79561864Y-121278681D01*
X79559933Y-121288800D01*
X79537302Y-121500574D01*
X79537050Y-121510863D01*
X77471000Y-121510863D01*
X77471000Y-118984262D01*
X79843520Y-118984262D01*
X79860759Y-119189553D01*
X79917544Y-119387586D01*
X79920359Y-119393063D01*
X79920360Y-119393066D01*
X79959643Y-119469502D01*
X80011712Y-119570818D01*
X80139677Y-119732270D01*
X80144370Y-119736264D01*
X80144371Y-119736265D01*
X80267388Y-119840960D01*
X80296564Y-119865791D01*
X80476398Y-119966297D01*
X80541437Y-119987429D01*
X80600042Y-120027502D01*
X80627680Y-120092898D01*
X80615574Y-120162855D01*
X80567568Y-120215162D01*
X80541646Y-120227027D01*
X80375868Y-120281212D01*
X80366359Y-120285209D01*
X80177466Y-120383540D01*
X80168734Y-120389039D01*
X80148677Y-120404099D01*
X80140223Y-120415427D01*
X80146968Y-120427758D01*
X80886188Y-121166978D01*
X80900132Y-121174592D01*
X80901965Y-121174461D01*
X80908580Y-121170210D01*
X81652389Y-120426401D01*
X81659410Y-120413544D01*
X81652611Y-120404213D01*
X81648554Y-120401518D01*
X81462117Y-120298599D01*
X81452705Y-120294369D01*
X81261031Y-120226493D01*
X81203495Y-120184899D01*
X81177579Y-120118801D01*
X81191513Y-120049185D01*
X81240872Y-119998154D01*
X81269206Y-119986362D01*
X81274790Y-119984803D01*
X81274799Y-119984800D01*
X81280725Y-119983145D01*
X81286214Y-119980372D01*
X81286220Y-119980370D01*
X81459116Y-119893033D01*
X81464610Y-119890258D01*
X81626951Y-119763424D01*
X81649760Y-119737000D01*
X81757540Y-119612134D01*
X81757540Y-119612133D01*
X81761564Y-119607472D01*
X81771126Y-119590641D01*
X81815082Y-119513263D01*
X81866121Y-119463913D01*
X81924638Y-119449500D01*
X83467708Y-119449500D01*
X83535829Y-119469502D01*
X83570597Y-119507333D01*
X83572039Y-119506268D01*
X83634357Y-119590641D01*
X83658739Y-119657320D01*
X83643202Y-119726595D01*
X83599307Y-119772645D01*
X83503508Y-119831927D01*
X83492110Y-119840960D01*
X83379637Y-119953629D01*
X83370625Y-119965040D01*
X83287088Y-120100563D01*
X83280944Y-120113741D01*
X83230685Y-120265266D01*
X83227819Y-120278632D01*
X83218328Y-120371270D01*
X83218000Y-120377685D01*
X83218000Y-120451885D01*
X83222475Y-120467124D01*
X83223865Y-120468329D01*
X83231548Y-120470000D01*
X84329000Y-120470000D01*
X84397121Y-120490002D01*
X84443614Y-120543658D01*
X84455000Y-120596000D01*
X84455000Y-121751385D01*
X84459475Y-121766624D01*
X84460865Y-121767829D01*
X84468548Y-121769500D01*
X84484766Y-121769500D01*
X84491282Y-121769163D01*
X84585132Y-121759425D01*
X84598528Y-121756532D01*
X84749953Y-121706012D01*
X84763115Y-121699847D01*
X84898492Y-121616074D01*
X84909890Y-121607040D01*
X85022363Y-121494371D01*
X85031375Y-121482960D01*
X85114912Y-121347437D01*
X85121056Y-121334259D01*
X85171315Y-121182734D01*
X85174181Y-121169368D01*
X85183672Y-121076730D01*
X85184000Y-121070315D01*
X85184000Y-120923293D01*
X85204002Y-120855172D01*
X85257658Y-120808679D01*
X85327932Y-120798575D01*
X85392512Y-120828069D01*
X85399095Y-120834198D01*
X85515095Y-120950198D01*
X85549121Y-121012510D01*
X85552000Y-121039293D01*
X85552000Y-123381461D01*
X85531998Y-123449582D01*
X85500859Y-123482813D01*
X85477197Y-123500290D01*
X85439289Y-123528289D01*
X85361039Y-123634232D01*
X85357919Y-123643117D01*
X85357917Y-123643121D01*
X85346108Y-123676749D01*
X85317399Y-123758500D01*
X85314500Y-123789167D01*
X85314501Y-124368832D01*
X85317399Y-124399500D01*
X85319944Y-124406748D01*
X85319945Y-124406751D01*
X85357507Y-124513709D01*
X85361039Y-124523768D01*
X85439289Y-124629711D01*
X85446860Y-124635303D01*
X85500859Y-124675187D01*
X85543770Y-124731748D01*
X85552000Y-124776539D01*
X85552000Y-128478819D01*
X85531998Y-128546940D01*
X85500859Y-128580170D01*
X85462789Y-128608289D01*
X85384539Y-128714232D01*
X85381419Y-128723117D01*
X85381417Y-128723121D01*
X85369608Y-128756749D01*
X85340899Y-128838500D01*
X85338000Y-128869167D01*
X85338001Y-129448832D01*
X85340899Y-129479500D01*
X85343444Y-129486748D01*
X85343445Y-129486751D01*
X85381007Y-129593709D01*
X85384539Y-129603768D01*
X85462789Y-129709711D01*
X85470360Y-129715303D01*
X85561155Y-129782365D01*
X85561157Y-129782366D01*
X85568732Y-129787961D01*
X85577619Y-129791082D01*
X85577621Y-129791083D01*
X85685752Y-129829056D01*
X85685754Y-129829057D01*
X85693000Y-129831601D01*
X85700644Y-129832324D01*
X85700646Y-129832324D01*
X85708621Y-129833078D01*
X85723667Y-129834500D01*
X86025847Y-129834500D01*
X86328332Y-129834499D01*
X86331282Y-129834220D01*
X86331287Y-129834220D01*
X86351350Y-129832324D01*
X86351351Y-129832324D01*
X86359000Y-129831601D01*
X86366248Y-129829056D01*
X86366251Y-129829055D01*
X86474379Y-129791083D01*
X86474381Y-129791082D01*
X86483268Y-129787961D01*
X86490843Y-129782366D01*
X86490845Y-129782365D01*
X86581640Y-129715303D01*
X86589211Y-129709711D01*
X86667461Y-129603768D01*
X86670994Y-129593709D01*
X86708556Y-129486748D01*
X86708557Y-129486746D01*
X86711101Y-129479500D01*
X86714000Y-129448833D01*
X86713999Y-128869168D01*
X86711101Y-128838500D01*
X86682392Y-128756749D01*
X86670583Y-128723121D01*
X86670581Y-128723117D01*
X86667461Y-128714232D01*
X86589211Y-128608289D01*
X86504141Y-128545456D01*
X86461230Y-128488895D01*
X86453000Y-128444104D01*
X86453000Y-124776539D01*
X86473002Y-124708418D01*
X86504141Y-124675187D01*
X86558140Y-124635303D01*
X86565711Y-124629711D01*
X86643961Y-124523768D01*
X86647494Y-124513709D01*
X86685056Y-124406748D01*
X86685057Y-124406746D01*
X86687601Y-124399500D01*
X86690500Y-124368833D01*
X86690499Y-123789168D01*
X86687601Y-123758500D01*
X86658892Y-123676749D01*
X86647083Y-123643121D01*
X86647081Y-123643117D01*
X86643961Y-123634232D01*
X86565711Y-123528289D01*
X86527803Y-123500290D01*
X86504141Y-123482813D01*
X86461230Y-123426252D01*
X86453000Y-123381461D01*
X86453000Y-120834720D01*
X86453873Y-120819911D01*
X86456757Y-120795543D01*
X86457864Y-120786190D01*
X86456172Y-120776926D01*
X86456172Y-120776922D01*
X86447327Y-120728489D01*
X86446678Y-120724588D01*
X86439351Y-120675855D01*
X86439349Y-120675847D01*
X86437949Y-120666538D01*
X86434823Y-120660028D01*
X86433526Y-120652927D01*
X86406482Y-120600863D01*
X86404714Y-120597325D01*
X86383386Y-120552911D01*
X86379309Y-120544421D01*
X86374422Y-120539135D01*
X86374395Y-120539095D01*
X86371080Y-120532712D01*
X86366775Y-120527672D01*
X86329548Y-120490445D01*
X86326118Y-120486879D01*
X86293746Y-120451859D01*
X86287354Y-120444944D01*
X86280995Y-120441251D01*
X86274837Y-120435734D01*
X84913405Y-119074302D01*
X84879379Y-119011990D01*
X84876500Y-118985207D01*
X84876499Y-118649634D01*
X84876499Y-118646668D01*
X84873601Y-118616000D01*
X84849897Y-118548500D01*
X84833083Y-118500621D01*
X84833082Y-118500619D01*
X84829961Y-118491732D01*
X84760659Y-118397903D01*
X84757303Y-118393360D01*
X84751711Y-118385789D01*
X84744140Y-118380197D01*
X84744137Y-118380194D01*
X84702642Y-118349546D01*
X84659730Y-118292985D01*
X84651500Y-118248194D01*
X84651500Y-106160806D01*
X84671502Y-106092685D01*
X84702642Y-106059454D01*
X84744137Y-106028806D01*
X84744140Y-106028803D01*
X84751711Y-106023211D01*
X84829961Y-105917268D01*
X84831700Y-105918552D01*
X84872485Y-105876701D01*
X84934292Y-105860500D01*
X85182780Y-105860500D01*
X85197589Y-105861373D01*
X85231310Y-105865364D01*
X85240574Y-105863672D01*
X85240575Y-105863672D01*
X85289001Y-105854828D01*
X85292904Y-105854178D01*
X85341645Y-105846850D01*
X85341646Y-105846850D01*
X85350962Y-105845449D01*
X85357475Y-105842321D01*
X85364573Y-105841025D01*
X85416647Y-105813975D01*
X85420137Y-105812232D01*
X85473079Y-105786809D01*
X85478365Y-105781923D01*
X85478413Y-105781890D01*
X85484788Y-105778579D01*
X85489828Y-105774275D01*
X85527055Y-105737048D01*
X85530621Y-105733618D01*
X85565641Y-105701246D01*
X85572556Y-105694854D01*
X85576249Y-105688495D01*
X85581766Y-105682337D01*
X86320350Y-104943753D01*
X86331439Y-104933899D01*
X86350711Y-104918706D01*
X86350715Y-104918702D01*
X86358110Y-104912872D01*
X86363464Y-104905125D01*
X86363468Y-104905121D01*
X86391477Y-104864596D01*
X86393758Y-104861402D01*
X86428635Y-104814183D01*
X86431029Y-104807366D01*
X86435131Y-104801431D01*
X86452812Y-104745525D01*
X86454060Y-104741785D01*
X86470400Y-104695255D01*
X86470401Y-104695252D01*
X86473520Y-104686369D01*
X86473803Y-104679184D01*
X86473817Y-104679111D01*
X86475980Y-104672270D01*
X86476500Y-104665663D01*
X86476500Y-104612994D01*
X86476597Y-104608048D01*
X86478136Y-104568863D01*
X86478838Y-104551006D01*
X86476954Y-104543900D01*
X86476500Y-104535653D01*
X86476500Y-101027539D01*
X86496502Y-100959418D01*
X86527641Y-100926187D01*
X86581640Y-100886303D01*
X86589211Y-100880711D01*
X86667461Y-100774768D01*
X86670994Y-100764709D01*
X86708556Y-100657748D01*
X86708557Y-100657746D01*
X86711101Y-100650500D01*
X86714000Y-100619833D01*
X86713999Y-100040168D01*
X86711101Y-100009500D01*
X86682392Y-99927749D01*
X86670583Y-99894121D01*
X86670581Y-99894117D01*
X86667461Y-99885232D01*
X86589211Y-99779289D01*
X86551303Y-99751290D01*
X86527641Y-99733813D01*
X86484730Y-99677252D01*
X86476500Y-99632461D01*
X86476500Y-98487539D01*
X86496502Y-98419418D01*
X86527641Y-98386187D01*
X86581640Y-98346303D01*
X86589211Y-98340711D01*
X86667461Y-98234768D01*
X86670994Y-98224709D01*
X86708556Y-98117748D01*
X86708557Y-98117746D01*
X86711101Y-98110500D01*
X86714000Y-98079833D01*
X86713999Y-97500168D01*
X86711101Y-97469500D01*
X86682392Y-97387749D01*
X86670583Y-97354121D01*
X86670581Y-97354117D01*
X86667461Y-97345232D01*
X86589211Y-97239289D01*
X86551303Y-97211290D01*
X86490845Y-97166635D01*
X86490843Y-97166634D01*
X86483268Y-97161039D01*
X86474381Y-97157918D01*
X86474379Y-97157917D01*
X86366248Y-97119944D01*
X86366246Y-97119943D01*
X86359000Y-97117399D01*
X86351356Y-97116676D01*
X86351354Y-97116676D01*
X86343379Y-97115922D01*
X86328333Y-97114500D01*
X86026153Y-97114500D01*
X85723668Y-97114501D01*
X85720718Y-97114780D01*
X85720713Y-97114780D01*
X85700650Y-97116676D01*
X85700649Y-97116676D01*
X85693000Y-97117399D01*
X85685752Y-97119944D01*
X85685749Y-97119945D01*
X85577621Y-97157917D01*
X85577619Y-97157918D01*
X85568732Y-97161039D01*
X85561157Y-97166634D01*
X85561155Y-97166635D01*
X85500697Y-97211290D01*
X85462789Y-97239289D01*
X85384539Y-97345232D01*
X85381419Y-97354117D01*
X85381417Y-97354121D01*
X85369608Y-97387749D01*
X85340899Y-97469500D01*
X85338000Y-97500167D01*
X85338001Y-98079832D01*
X85340899Y-98110500D01*
X85343444Y-98117748D01*
X85343445Y-98117751D01*
X85381007Y-98224709D01*
X85384539Y-98234768D01*
X85462789Y-98340711D01*
X85470360Y-98346303D01*
X85524359Y-98386187D01*
X85567270Y-98442748D01*
X85575500Y-98487539D01*
X85575500Y-99632461D01*
X85555498Y-99700582D01*
X85524359Y-99733813D01*
X85500697Y-99751290D01*
X85462789Y-99779289D01*
X85384539Y-99885232D01*
X85381419Y-99894117D01*
X85381417Y-99894121D01*
X85369608Y-99927749D01*
X85340899Y-100009500D01*
X85338000Y-100040167D01*
X85338001Y-100619832D01*
X85340899Y-100650500D01*
X85343444Y-100657748D01*
X85343445Y-100657751D01*
X85381007Y-100764709D01*
X85384539Y-100774768D01*
X85462789Y-100880711D01*
X85470360Y-100886303D01*
X85524359Y-100926187D01*
X85567270Y-100982748D01*
X85575500Y-101027539D01*
X85575500Y-104362207D01*
X85555498Y-104430328D01*
X85538595Y-104451302D01*
X85067302Y-104922595D01*
X85004990Y-104956621D01*
X84978207Y-104959500D01*
X84934292Y-104959500D01*
X84866171Y-104939498D01*
X84831403Y-104901667D01*
X84829961Y-104902732D01*
X84767643Y-104818359D01*
X84743261Y-104751680D01*
X84758798Y-104682405D01*
X84802693Y-104636355D01*
X84898492Y-104577073D01*
X84909890Y-104568040D01*
X85022363Y-104455371D01*
X85031375Y-104443960D01*
X85114912Y-104308437D01*
X85121056Y-104295259D01*
X85171315Y-104143734D01*
X85174181Y-104130368D01*
X85183672Y-104037730D01*
X85184000Y-104031315D01*
X85184000Y-103957115D01*
X85179525Y-103941876D01*
X85178135Y-103940671D01*
X85170452Y-103939000D01*
X83236115Y-103939000D01*
X83220876Y-103943475D01*
X83219671Y-103944865D01*
X83218000Y-103952548D01*
X83218000Y-104031266D01*
X83218337Y-104037782D01*
X83228075Y-104131632D01*
X83230968Y-104145028D01*
X83281488Y-104296453D01*
X83287653Y-104309615D01*
X83371426Y-104444992D01*
X83380460Y-104456390D01*
X83493129Y-104568863D01*
X83504543Y-104577877D01*
X83599153Y-104636195D01*
X83646647Y-104688967D01*
X83658071Y-104759038D01*
X83634390Y-104818313D01*
X83572039Y-104902731D01*
X83570301Y-104901447D01*
X83529515Y-104943299D01*
X83467708Y-104959500D01*
X82456500Y-104959500D01*
X82388379Y-104939498D01*
X82341886Y-104885842D01*
X82330500Y-104833500D01*
X82330500Y-104540252D01*
X82318867Y-104481769D01*
X82274552Y-104415448D01*
X82208231Y-104371133D01*
X82196062Y-104368712D01*
X82196061Y-104368712D01*
X82155816Y-104360707D01*
X82149748Y-104359500D01*
X81870107Y-104359500D01*
X81801986Y-104339498D01*
X81755493Y-104285842D01*
X81745389Y-104215568D01*
X81774883Y-104150988D01*
X81814675Y-104120349D01*
X81973093Y-104042741D01*
X81981944Y-104037465D01*
X82029247Y-104003723D01*
X82037648Y-103993023D01*
X82030660Y-103979870D01*
X81292812Y-103242022D01*
X81278868Y-103234408D01*
X81277035Y-103234539D01*
X81270420Y-103238790D01*
X80526737Y-103982473D01*
X80519977Y-103994853D01*
X80525258Y-104001907D01*
X80686756Y-104096279D01*
X80696043Y-104100729D01*
X80735484Y-104115790D01*
X80791987Y-104158778D01*
X80816280Y-104225489D01*
X80800650Y-104294743D01*
X80750059Y-104344554D01*
X80690535Y-104359500D01*
X80410252Y-104359500D01*
X80404184Y-104360707D01*
X80363939Y-104368712D01*
X80363938Y-104368712D01*
X80351769Y-104371133D01*
X80285448Y-104415448D01*
X80241133Y-104481769D01*
X80229500Y-104540252D01*
X80229500Y-106279748D01*
X80241133Y-106338231D01*
X80285448Y-106404552D01*
X80351769Y-106448867D01*
X80363938Y-106451288D01*
X80363939Y-106451288D01*
X80404184Y-106459293D01*
X80410252Y-106460500D01*
X82149748Y-106460500D01*
X82155816Y-106459293D01*
X82196061Y-106451288D01*
X82196062Y-106451288D01*
X82208231Y-106448867D01*
X82274552Y-106404552D01*
X82318867Y-106338231D01*
X82330500Y-106279748D01*
X82330500Y-105986500D01*
X82350502Y-105918379D01*
X82404158Y-105871886D01*
X82456500Y-105860500D01*
X83467708Y-105860500D01*
X83535829Y-105880502D01*
X83570597Y-105918333D01*
X83572039Y-105917268D01*
X83650289Y-106023211D01*
X83657860Y-106028803D01*
X83657863Y-106028806D01*
X83699358Y-106059454D01*
X83742270Y-106116015D01*
X83750500Y-106160806D01*
X83750500Y-118248194D01*
X83730498Y-118316315D01*
X83699358Y-118349546D01*
X83657863Y-118380194D01*
X83657860Y-118380197D01*
X83650289Y-118385789D01*
X83572039Y-118491732D01*
X83570300Y-118490448D01*
X83529515Y-118532299D01*
X83467708Y-118548500D01*
X81924990Y-118548500D01*
X81856869Y-118528498D01*
X81813738Y-118481653D01*
X81781111Y-118420290D01*
X81778218Y-118414849D01*
X81678828Y-118292985D01*
X81651906Y-118259975D01*
X81651903Y-118259972D01*
X81648011Y-118255200D01*
X81641173Y-118249543D01*
X81494025Y-118127811D01*
X81494021Y-118127809D01*
X81489275Y-118123882D01*
X81308055Y-118025897D01*
X81111254Y-117964977D01*
X81105129Y-117964333D01*
X81105128Y-117964333D01*
X80912498Y-117944087D01*
X80912496Y-117944087D01*
X80906369Y-117943443D01*
X80819529Y-117951346D01*
X80707342Y-117961555D01*
X80707339Y-117961556D01*
X80701203Y-117962114D01*
X80503572Y-118020280D01*
X80321002Y-118115726D01*
X80316201Y-118119586D01*
X80316198Y-118119588D01*
X80305971Y-118127811D01*
X80160447Y-118244815D01*
X80028024Y-118402630D01*
X80025056Y-118408028D01*
X80025053Y-118408033D01*
X79931743Y-118577765D01*
X79928776Y-118583162D01*
X79866484Y-118779532D01*
X79843520Y-118984262D01*
X77471000Y-118984262D01*
X77471000Y-117328748D01*
X79848500Y-117328748D01*
X79860133Y-117387231D01*
X79904448Y-117453552D01*
X79970769Y-117497867D01*
X79982938Y-117500288D01*
X79982939Y-117500288D01*
X80023184Y-117508293D01*
X80029252Y-117509500D01*
X81768748Y-117509500D01*
X81774816Y-117508293D01*
X81815061Y-117500288D01*
X81815062Y-117500288D01*
X81827231Y-117497867D01*
X81893552Y-117453552D01*
X81937867Y-117387231D01*
X81949500Y-117328748D01*
X81949500Y-115589252D01*
X81937867Y-115530769D01*
X81893552Y-115464448D01*
X81827231Y-115420133D01*
X81815062Y-115417712D01*
X81815061Y-115417712D01*
X81774816Y-115409707D01*
X81768748Y-115408500D01*
X80029252Y-115408500D01*
X80023184Y-115409707D01*
X79982939Y-115417712D01*
X79982938Y-115417712D01*
X79970769Y-115420133D01*
X79904448Y-115464448D01*
X79860133Y-115530769D01*
X79848500Y-115589252D01*
X79848500Y-117328748D01*
X77471000Y-117328748D01*
X77471000Y-110595028D01*
X79778025Y-110595028D01*
X79815347Y-110838930D01*
X79892003Y-111073460D01*
X80005935Y-111292321D01*
X80154083Y-111489636D01*
X80332468Y-111660104D01*
X80336740Y-111663018D01*
X80336741Y-111663019D01*
X80365893Y-111682905D01*
X80536300Y-111799149D01*
X80648202Y-111851092D01*
X80755409Y-111900856D01*
X80755413Y-111900857D01*
X80760104Y-111903035D01*
X80997871Y-111968974D01*
X81003008Y-111969523D01*
X81195957Y-111990144D01*
X81195965Y-111990144D01*
X81199292Y-111990500D01*
X81342554Y-111990500D01*
X81345127Y-111990288D01*
X81345138Y-111990288D01*
X81520760Y-111975849D01*
X81520766Y-111975848D01*
X81525911Y-111975425D01*
X81765217Y-111915316D01*
X81991493Y-111816928D01*
X82198661Y-111682905D01*
X82220516Y-111663019D01*
X82256536Y-111630243D01*
X82381158Y-111516846D01*
X82384357Y-111512795D01*
X82384361Y-111512791D01*
X82530881Y-111327264D01*
X82530884Y-111327259D01*
X82534082Y-111323210D01*
X82536577Y-111318691D01*
X82650830Y-111111722D01*
X82650832Y-111111718D01*
X82653327Y-111107198D01*
X82665275Y-111073460D01*
X82733965Y-110879485D01*
X82733966Y-110879481D01*
X82735691Y-110874610D01*
X82778961Y-110631694D01*
X82781975Y-110384972D01*
X82744653Y-110141070D01*
X82667997Y-109906540D01*
X82554065Y-109687679D01*
X82405917Y-109490364D01*
X82227532Y-109319896D01*
X82199212Y-109300577D01*
X82027979Y-109183770D01*
X82027980Y-109183770D01*
X82023700Y-109180851D01*
X81911798Y-109128908D01*
X81804591Y-109079144D01*
X81804587Y-109079143D01*
X81799896Y-109076965D01*
X81562129Y-109011026D01*
X81556992Y-109010477D01*
X81364043Y-108989856D01*
X81364035Y-108989856D01*
X81360708Y-108989500D01*
X81217446Y-108989500D01*
X81214873Y-108989712D01*
X81214862Y-108989712D01*
X81039240Y-109004151D01*
X81039234Y-109004152D01*
X81034089Y-109004575D01*
X80794783Y-109064684D01*
X80568507Y-109163072D01*
X80361339Y-109297095D01*
X80357514Y-109300575D01*
X80357512Y-109300577D01*
X80336281Y-109319896D01*
X80178842Y-109463154D01*
X80175643Y-109467205D01*
X80175639Y-109467209D01*
X80029119Y-109652736D01*
X80029116Y-109652741D01*
X80025918Y-109656790D01*
X80023425Y-109661306D01*
X80023423Y-109661309D01*
X80011150Y-109683543D01*
X79906673Y-109872802D01*
X79904949Y-109877671D01*
X79904947Y-109877675D01*
X79892984Y-109911458D01*
X79824309Y-110105390D01*
X79781039Y-110348306D01*
X79778025Y-110595028D01*
X77471000Y-110595028D01*
X77471000Y-102841863D01*
X79918050Y-102841863D01*
X79930309Y-103054477D01*
X79931745Y-103064697D01*
X79978565Y-103272446D01*
X79981645Y-103282275D01*
X80061770Y-103479603D01*
X80066413Y-103488794D01*
X80146460Y-103619420D01*
X80156916Y-103628880D01*
X80165694Y-103625096D01*
X80907978Y-102882812D01*
X80914356Y-102871132D01*
X81644408Y-102871132D01*
X81644539Y-102872965D01*
X81648790Y-102879580D01*
X82390474Y-103621264D01*
X82402484Y-103627823D01*
X82414223Y-103618855D01*
X82445004Y-103576019D01*
X82450315Y-103567180D01*
X82526572Y-103412885D01*
X83218000Y-103412885D01*
X83222475Y-103428124D01*
X83223865Y-103429329D01*
X83231548Y-103431000D01*
X83928885Y-103431000D01*
X83944124Y-103426525D01*
X83945329Y-103425135D01*
X83947000Y-103417452D01*
X83947000Y-103412885D01*
X84455000Y-103412885D01*
X84459475Y-103428124D01*
X84460865Y-103429329D01*
X84468548Y-103431000D01*
X85165885Y-103431000D01*
X85181124Y-103426525D01*
X85182329Y-103425135D01*
X85184000Y-103417452D01*
X85184000Y-103338734D01*
X85183663Y-103332218D01*
X85173925Y-103238368D01*
X85171032Y-103224972D01*
X85120512Y-103073547D01*
X85114347Y-103060385D01*
X85030574Y-102925008D01*
X85021540Y-102913610D01*
X84908871Y-102801137D01*
X84897460Y-102792125D01*
X84761937Y-102708588D01*
X84748759Y-102702444D01*
X84597234Y-102652185D01*
X84583868Y-102649319D01*
X84491230Y-102639828D01*
X84484815Y-102639500D01*
X84473115Y-102639500D01*
X84457876Y-102643975D01*
X84456671Y-102645365D01*
X84455000Y-102653048D01*
X84455000Y-103412885D01*
X83947000Y-103412885D01*
X83947000Y-102657615D01*
X83942525Y-102642376D01*
X83941135Y-102641171D01*
X83933452Y-102639500D01*
X83917234Y-102639500D01*
X83910718Y-102639837D01*
X83816868Y-102649575D01*
X83803472Y-102652468D01*
X83652047Y-102702988D01*
X83638885Y-102709153D01*
X83503508Y-102792926D01*
X83492110Y-102801960D01*
X83379637Y-102914629D01*
X83370625Y-102926040D01*
X83287088Y-103061563D01*
X83280944Y-103074741D01*
X83230685Y-103226266D01*
X83227819Y-103239632D01*
X83218328Y-103332270D01*
X83218000Y-103338685D01*
X83218000Y-103412885D01*
X82526572Y-103412885D01*
X82544670Y-103376267D01*
X82548469Y-103366672D01*
X82610376Y-103162915D01*
X82612555Y-103152834D01*
X82640590Y-102939887D01*
X82641109Y-102933212D01*
X82642572Y-102873364D01*
X82642378Y-102866646D01*
X82624781Y-102652604D01*
X82623096Y-102642424D01*
X82571214Y-102435875D01*
X82567894Y-102426124D01*
X82482972Y-102230814D01*
X82478105Y-102221739D01*
X82413063Y-102121197D01*
X82402377Y-102111995D01*
X82392812Y-102116398D01*
X81652022Y-102857188D01*
X81644408Y-102871132D01*
X80914356Y-102871132D01*
X80915592Y-102868868D01*
X80915461Y-102867035D01*
X80911210Y-102860420D01*
X80169849Y-102119059D01*
X80158313Y-102112759D01*
X80146031Y-102122382D01*
X80098089Y-102192662D01*
X80093004Y-102201613D01*
X80003338Y-102394783D01*
X79999775Y-102404470D01*
X79942864Y-102609681D01*
X79940933Y-102619800D01*
X79918302Y-102831574D01*
X79918050Y-102841863D01*
X77471000Y-102841863D01*
X77471000Y-100315262D01*
X80224520Y-100315262D01*
X80241759Y-100520553D01*
X80243458Y-100526478D01*
X80279021Y-100650500D01*
X80298544Y-100718586D01*
X80301359Y-100724063D01*
X80301360Y-100724066D01*
X80384738Y-100886303D01*
X80392712Y-100901818D01*
X80520677Y-101063270D01*
X80677564Y-101196791D01*
X80857398Y-101297297D01*
X80922437Y-101318429D01*
X80981042Y-101358502D01*
X81008680Y-101423898D01*
X80996574Y-101493855D01*
X80948568Y-101546162D01*
X80922646Y-101558027D01*
X80756868Y-101612212D01*
X80747359Y-101616209D01*
X80558466Y-101714540D01*
X80549734Y-101720039D01*
X80529677Y-101735099D01*
X80521223Y-101746427D01*
X80527968Y-101758758D01*
X81267188Y-102497978D01*
X81281132Y-102505592D01*
X81282965Y-102505461D01*
X81289580Y-102501210D01*
X82033389Y-101757401D01*
X82040410Y-101744544D01*
X82033611Y-101735213D01*
X82029554Y-101732518D01*
X81843117Y-101629599D01*
X81833705Y-101625369D01*
X81642031Y-101557493D01*
X81584495Y-101515899D01*
X81558579Y-101449801D01*
X81572513Y-101380185D01*
X81621872Y-101329154D01*
X81650206Y-101317362D01*
X81655790Y-101315803D01*
X81655799Y-101315800D01*
X81661725Y-101314145D01*
X81667214Y-101311372D01*
X81667220Y-101311370D01*
X81840116Y-101224033D01*
X81845610Y-101221258D01*
X82007951Y-101094424D01*
X82084708Y-101005500D01*
X82138540Y-100943134D01*
X82138540Y-100943133D01*
X82142564Y-100938472D01*
X82163387Y-100901818D01*
X82191107Y-100853022D01*
X82244323Y-100759344D01*
X82250184Y-100741726D01*
X82290666Y-100683403D01*
X82356254Y-100656224D01*
X82369741Y-100655500D01*
X83428359Y-100655500D01*
X83496480Y-100675502D01*
X83542973Y-100729158D01*
X83547242Y-100739752D01*
X83559539Y-100774768D01*
X83637789Y-100880711D01*
X83645360Y-100886303D01*
X83736155Y-100953365D01*
X83736157Y-100953366D01*
X83743732Y-100958961D01*
X83752619Y-100962082D01*
X83752621Y-100962083D01*
X83860752Y-101000056D01*
X83860754Y-101000057D01*
X83868000Y-101002601D01*
X83875644Y-101003324D01*
X83875646Y-101003324D01*
X83883621Y-101004078D01*
X83898667Y-101005500D01*
X84200847Y-101005500D01*
X84503332Y-101005499D01*
X84506282Y-101005220D01*
X84506287Y-101005220D01*
X84526350Y-101003324D01*
X84526351Y-101003324D01*
X84534000Y-101002601D01*
X84541248Y-101000056D01*
X84541251Y-101000055D01*
X84649379Y-100962083D01*
X84649381Y-100962082D01*
X84658268Y-100958961D01*
X84665843Y-100953366D01*
X84665845Y-100953365D01*
X84756640Y-100886303D01*
X84764211Y-100880711D01*
X84842461Y-100774768D01*
X84845994Y-100764709D01*
X84883556Y-100657748D01*
X84883557Y-100657746D01*
X84886101Y-100650500D01*
X84889000Y-100619833D01*
X84888999Y-100040168D01*
X84886101Y-100009500D01*
X84857392Y-99927749D01*
X84845583Y-99894121D01*
X84845581Y-99894117D01*
X84842461Y-99885232D01*
X84764211Y-99779289D01*
X84726303Y-99751290D01*
X84665845Y-99706635D01*
X84665843Y-99706634D01*
X84658268Y-99701039D01*
X84649381Y-99697918D01*
X84649379Y-99697917D01*
X84541248Y-99659944D01*
X84541246Y-99659943D01*
X84534000Y-99657399D01*
X84526356Y-99656676D01*
X84526354Y-99656676D01*
X84518379Y-99655922D01*
X84503333Y-99654500D01*
X84201153Y-99654500D01*
X83898668Y-99654501D01*
X83895718Y-99654780D01*
X83895713Y-99654780D01*
X83875650Y-99656676D01*
X83875649Y-99656676D01*
X83868000Y-99657399D01*
X83860752Y-99659944D01*
X83860749Y-99659945D01*
X83752621Y-99697917D01*
X83752619Y-99697918D01*
X83743732Y-99701039D01*
X83736157Y-99706634D01*
X83736155Y-99706635D01*
X83675697Y-99751290D01*
X83637789Y-99779289D01*
X83559539Y-99885232D01*
X83552299Y-99905848D01*
X83547242Y-99920248D01*
X83505799Y-99977894D01*
X83439769Y-100003982D01*
X83428359Y-100004500D01*
X82371269Y-100004500D01*
X82303148Y-99984498D01*
X82256008Y-99927991D01*
X82255935Y-99927749D01*
X82159218Y-99745849D01*
X82066741Y-99632461D01*
X82032906Y-99590975D01*
X82032903Y-99590972D01*
X82029011Y-99586200D01*
X82011786Y-99571950D01*
X81875025Y-99458811D01*
X81875021Y-99458809D01*
X81870275Y-99454882D01*
X81689055Y-99356897D01*
X81492254Y-99295977D01*
X81486129Y-99295333D01*
X81486128Y-99295333D01*
X81293498Y-99275087D01*
X81293496Y-99275087D01*
X81287369Y-99274443D01*
X81200529Y-99282346D01*
X81088342Y-99292555D01*
X81088339Y-99292556D01*
X81082203Y-99293114D01*
X80884572Y-99351280D01*
X80702002Y-99446726D01*
X80697201Y-99450586D01*
X80697198Y-99450588D01*
X80686971Y-99458811D01*
X80541447Y-99575815D01*
X80409024Y-99733630D01*
X80406056Y-99739028D01*
X80406053Y-99739033D01*
X80329846Y-99877655D01*
X80309776Y-99914162D01*
X80247484Y-100110532D01*
X80224520Y-100315262D01*
X77471000Y-100315262D01*
X77471000Y-96643407D01*
X79775336Y-96643407D01*
X79778190Y-96654056D01*
X79785091Y-96679810D01*
X79787470Y-96690542D01*
X79794012Y-96727645D01*
X79799523Y-96737190D01*
X79800715Y-96740466D01*
X79802192Y-96743634D01*
X79805046Y-96754284D01*
X79811370Y-96763315D01*
X79826655Y-96785144D01*
X79832561Y-96794415D01*
X79844489Y-96815075D01*
X79851406Y-96827055D01*
X79859851Y-96834141D01*
X79880282Y-96851285D01*
X79888385Y-96858711D01*
X80278257Y-97248583D01*
X80312283Y-97310895D01*
X80309264Y-97375776D01*
X80247484Y-97570532D01*
X80224520Y-97775262D01*
X80241759Y-97980553D01*
X80243458Y-97986478D01*
X80279021Y-98110500D01*
X80298544Y-98178586D01*
X80301359Y-98184063D01*
X80301360Y-98184066D01*
X80384738Y-98346303D01*
X80392712Y-98361818D01*
X80520677Y-98523270D01*
X80677564Y-98656791D01*
X80857398Y-98757297D01*
X80952238Y-98788112D01*
X81047471Y-98819056D01*
X81047475Y-98819057D01*
X81053329Y-98820959D01*
X81257894Y-98845351D01*
X81264029Y-98844879D01*
X81264031Y-98844879D01*
X81320039Y-98840569D01*
X81463300Y-98829546D01*
X81469230Y-98827890D01*
X81469232Y-98827890D01*
X81655797Y-98775800D01*
X81655796Y-98775800D01*
X81661725Y-98774145D01*
X81667214Y-98771372D01*
X81667220Y-98771370D01*
X81840116Y-98684033D01*
X81845610Y-98681258D01*
X82007951Y-98554424D01*
X82084708Y-98465500D01*
X82138540Y-98403134D01*
X82138540Y-98403133D01*
X82142564Y-98398472D01*
X82163387Y-98361818D01*
X82191107Y-98313022D01*
X82244323Y-98219344D01*
X82250184Y-98201726D01*
X82290666Y-98143403D01*
X82356254Y-98116224D01*
X82369741Y-98115500D01*
X83428359Y-98115500D01*
X83496480Y-98135502D01*
X83542973Y-98189158D01*
X83547242Y-98199752D01*
X83559539Y-98234768D01*
X83637789Y-98340711D01*
X83645360Y-98346303D01*
X83736155Y-98413365D01*
X83736157Y-98413366D01*
X83743732Y-98418961D01*
X83752619Y-98422082D01*
X83752621Y-98422083D01*
X83860752Y-98460056D01*
X83860754Y-98460057D01*
X83868000Y-98462601D01*
X83875644Y-98463324D01*
X83875646Y-98463324D01*
X83883621Y-98464078D01*
X83898667Y-98465500D01*
X84200847Y-98465500D01*
X84503332Y-98465499D01*
X84506282Y-98465220D01*
X84506287Y-98465220D01*
X84526350Y-98463324D01*
X84526351Y-98463324D01*
X84534000Y-98462601D01*
X84541248Y-98460056D01*
X84541251Y-98460055D01*
X84649379Y-98422083D01*
X84649381Y-98422082D01*
X84658268Y-98418961D01*
X84665843Y-98413366D01*
X84665845Y-98413365D01*
X84756640Y-98346303D01*
X84764211Y-98340711D01*
X84842461Y-98234768D01*
X84845994Y-98224709D01*
X84883556Y-98117748D01*
X84883557Y-98117746D01*
X84886101Y-98110500D01*
X84889000Y-98079833D01*
X84888999Y-97500168D01*
X84886101Y-97469500D01*
X84857392Y-97387749D01*
X84845583Y-97354121D01*
X84845581Y-97354117D01*
X84842461Y-97345232D01*
X84764211Y-97239289D01*
X84726303Y-97211290D01*
X84665845Y-97166635D01*
X84665843Y-97166634D01*
X84658268Y-97161039D01*
X84649381Y-97157918D01*
X84649379Y-97157917D01*
X84541248Y-97119944D01*
X84541246Y-97119943D01*
X84534000Y-97117399D01*
X84526356Y-97116676D01*
X84526354Y-97116676D01*
X84518379Y-97115922D01*
X84503333Y-97114500D01*
X84201153Y-97114500D01*
X83898668Y-97114501D01*
X83895718Y-97114780D01*
X83895713Y-97114780D01*
X83875650Y-97116676D01*
X83875649Y-97116676D01*
X83868000Y-97117399D01*
X83860752Y-97119944D01*
X83860749Y-97119945D01*
X83752621Y-97157917D01*
X83752619Y-97157918D01*
X83743732Y-97161039D01*
X83736157Y-97166634D01*
X83736155Y-97166635D01*
X83675697Y-97211290D01*
X83637789Y-97239289D01*
X83559539Y-97345232D01*
X83552299Y-97365848D01*
X83547242Y-97380248D01*
X83505799Y-97437894D01*
X83439769Y-97463982D01*
X83428359Y-97464500D01*
X82371269Y-97464500D01*
X82303148Y-97444498D01*
X82256008Y-97387991D01*
X82255935Y-97387749D01*
X82159218Y-97205849D01*
X82084715Y-97114500D01*
X82032906Y-97050975D01*
X82032903Y-97050972D01*
X82029011Y-97046200D01*
X82024262Y-97042271D01*
X81875025Y-96918811D01*
X81875021Y-96918809D01*
X81870275Y-96914882D01*
X81689055Y-96816897D01*
X81492254Y-96755977D01*
X81486129Y-96755333D01*
X81486128Y-96755333D01*
X81293498Y-96735087D01*
X81293496Y-96735087D01*
X81287369Y-96734443D01*
X81200529Y-96742346D01*
X81088342Y-96752555D01*
X81088339Y-96752556D01*
X81082203Y-96753114D01*
X80884572Y-96811280D01*
X80879108Y-96814137D01*
X80874781Y-96815885D01*
X80804128Y-96822860D01*
X80738482Y-96788156D01*
X80467005Y-96516679D01*
X80432979Y-96454367D01*
X80430100Y-96427584D01*
X80430100Y-96178872D01*
X80450102Y-96110751D01*
X80503758Y-96064258D01*
X80574032Y-96054154D01*
X80637764Y-96082918D01*
X80677564Y-96116791D01*
X80857398Y-96217297D01*
X80952238Y-96248112D01*
X81047471Y-96279056D01*
X81047475Y-96279057D01*
X81053329Y-96280959D01*
X81257894Y-96305351D01*
X81264029Y-96304879D01*
X81264031Y-96304879D01*
X81320039Y-96300569D01*
X81463300Y-96289546D01*
X81469230Y-96287890D01*
X81469232Y-96287890D01*
X81655797Y-96235800D01*
X81655796Y-96235800D01*
X81661725Y-96234145D01*
X81667214Y-96231372D01*
X81667220Y-96231370D01*
X81840116Y-96144033D01*
X81845610Y-96141258D01*
X81884658Y-96110751D01*
X82003101Y-96018213D01*
X82007951Y-96014424D01*
X82142564Y-95858472D01*
X82244323Y-95679344D01*
X82309351Y-95483863D01*
X82335171Y-95279474D01*
X82335583Y-95250000D01*
X82315480Y-95044970D01*
X82255935Y-94847749D01*
X82159218Y-94665849D01*
X82085859Y-94575902D01*
X82032906Y-94510975D01*
X82032903Y-94510972D01*
X82029011Y-94506200D01*
X81958238Y-94447651D01*
X81875025Y-94378811D01*
X81875021Y-94378809D01*
X81870275Y-94374882D01*
X81689055Y-94276897D01*
X81492254Y-94215977D01*
X81486129Y-94215333D01*
X81486128Y-94215333D01*
X81293498Y-94195087D01*
X81293496Y-94195087D01*
X81287369Y-94194443D01*
X81200529Y-94202346D01*
X81088342Y-94212555D01*
X81088339Y-94212556D01*
X81082203Y-94213114D01*
X80884572Y-94271280D01*
X80702002Y-94366726D01*
X80697201Y-94370586D01*
X80697198Y-94370588D01*
X80635052Y-94420555D01*
X80569429Y-94447651D01*
X80499575Y-94434968D01*
X80447667Y-94386531D01*
X80430100Y-94322358D01*
X80430100Y-93638872D01*
X80450102Y-93570751D01*
X80503758Y-93524258D01*
X80574032Y-93514154D01*
X80637764Y-93542918D01*
X80677564Y-93576791D01*
X80857398Y-93677297D01*
X80952238Y-93708113D01*
X81047471Y-93739056D01*
X81047475Y-93739057D01*
X81053329Y-93740959D01*
X81257894Y-93765351D01*
X81264029Y-93764879D01*
X81264031Y-93764879D01*
X81320039Y-93760569D01*
X81463300Y-93749546D01*
X81469230Y-93747890D01*
X81469232Y-93747890D01*
X81655797Y-93695800D01*
X81655796Y-93695800D01*
X81661725Y-93694145D01*
X81667214Y-93691372D01*
X81667220Y-93691370D01*
X81840116Y-93604033D01*
X81845610Y-93601258D01*
X81884658Y-93570751D01*
X82003101Y-93478213D01*
X82007951Y-93474424D01*
X82142564Y-93318472D01*
X82244323Y-93139344D01*
X82309351Y-92943863D01*
X82335171Y-92739474D01*
X82335583Y-92710000D01*
X82315480Y-92504970D01*
X82255935Y-92307749D01*
X82159218Y-92125849D01*
X82085859Y-92035902D01*
X82032906Y-91970975D01*
X82032903Y-91970972D01*
X82029011Y-91966200D01*
X81958238Y-91907651D01*
X81875025Y-91838811D01*
X81875021Y-91838809D01*
X81870275Y-91834882D01*
X81689055Y-91736897D01*
X81492254Y-91675977D01*
X81486129Y-91675333D01*
X81486128Y-91675333D01*
X81293498Y-91655087D01*
X81293496Y-91655087D01*
X81287369Y-91654443D01*
X81200529Y-91662346D01*
X81088342Y-91672555D01*
X81088339Y-91672556D01*
X81082203Y-91673114D01*
X80884572Y-91731280D01*
X80702002Y-91826726D01*
X80697201Y-91830586D01*
X80697198Y-91830588D01*
X80635052Y-91880555D01*
X80569429Y-91907651D01*
X80499575Y-91894968D01*
X80447667Y-91846531D01*
X80430100Y-91782358D01*
X80430100Y-91098872D01*
X80450102Y-91030751D01*
X80503758Y-90984258D01*
X80574032Y-90974154D01*
X80637764Y-91002918D01*
X80677564Y-91036791D01*
X80857398Y-91137297D01*
X80952238Y-91168113D01*
X81047471Y-91199056D01*
X81047475Y-91199057D01*
X81053329Y-91200959D01*
X81257894Y-91225351D01*
X81264029Y-91224879D01*
X81264031Y-91224879D01*
X81320039Y-91220569D01*
X81463300Y-91209546D01*
X81469230Y-91207890D01*
X81469232Y-91207890D01*
X81655797Y-91155800D01*
X81655796Y-91155800D01*
X81661725Y-91154145D01*
X81667214Y-91151372D01*
X81667220Y-91151370D01*
X81840116Y-91064033D01*
X81845610Y-91061258D01*
X81884658Y-91030751D01*
X82003101Y-90938213D01*
X82007951Y-90934424D01*
X82142564Y-90778472D01*
X82244323Y-90599344D01*
X82250184Y-90581726D01*
X82290666Y-90523403D01*
X82356254Y-90496224D01*
X82369741Y-90495500D01*
X84262290Y-90495500D01*
X84273272Y-90495980D01*
X84299820Y-90498303D01*
X84299822Y-90498303D01*
X84310807Y-90499264D01*
X84347215Y-90489508D01*
X84357942Y-90487130D01*
X84361301Y-90486538D01*
X84395045Y-90480588D01*
X84404590Y-90475077D01*
X84407866Y-90473885D01*
X84411034Y-90472408D01*
X84421684Y-90469554D01*
X84452544Y-90447945D01*
X84461815Y-90442039D01*
X84484906Y-90428707D01*
X84494455Y-90423194D01*
X84518685Y-90394317D01*
X84526111Y-90386215D01*
X95280219Y-79632108D01*
X95342531Y-79598082D01*
X95413346Y-79603147D01*
X95470182Y-79645694D01*
X95480123Y-79663151D01*
X95481133Y-79668231D01*
X95525448Y-79734552D01*
X95591769Y-79778867D01*
X95603938Y-79781288D01*
X95603939Y-79781288D01*
X95644184Y-79789293D01*
X95650252Y-79790500D01*
X97389748Y-79790500D01*
X97395816Y-79789293D01*
X97436061Y-79781288D01*
X97436062Y-79781288D01*
X97448231Y-79778867D01*
X97514552Y-79734552D01*
X97558867Y-79668231D01*
X97565670Y-79634033D01*
X97569293Y-79615816D01*
X97570500Y-79609748D01*
X97570500Y-77870252D01*
X97558867Y-77811769D01*
X97544895Y-77790858D01*
X97521443Y-77755761D01*
X97514552Y-77745448D01*
X97448231Y-77701133D01*
X97436062Y-77698712D01*
X97436061Y-77698712D01*
X97395816Y-77690707D01*
X97389748Y-77689500D01*
X95650252Y-77689500D01*
X95644184Y-77690707D01*
X95603939Y-77698712D01*
X95603938Y-77698712D01*
X95591769Y-77701133D01*
X95525448Y-77745448D01*
X95518557Y-77755761D01*
X95495106Y-77790858D01*
X95481133Y-77811769D01*
X95469500Y-77870252D01*
X95469500Y-78288500D01*
X95449498Y-78356621D01*
X95395842Y-78403114D01*
X95343500Y-78414500D01*
X95287306Y-78414500D01*
X95270486Y-78420622D01*
X95249276Y-78426305D01*
X95231655Y-78429412D01*
X95216156Y-78438360D01*
X95196257Y-78447639D01*
X95179440Y-78453760D01*
X95170994Y-78460847D01*
X95161450Y-78466357D01*
X95160013Y-78463868D01*
X95110396Y-78485581D01*
X95040292Y-78474361D01*
X94987382Y-78427021D01*
X94973828Y-78397013D01*
X94973775Y-78396837D01*
X94955935Y-78337749D01*
X94859218Y-78155849D01*
X94767746Y-78043694D01*
X94732906Y-78000975D01*
X94732903Y-78000972D01*
X94729011Y-77996200D01*
X94649631Y-77930531D01*
X94575025Y-77868811D01*
X94575021Y-77868809D01*
X94570275Y-77864882D01*
X94389055Y-77766897D01*
X94192254Y-77705977D01*
X94186129Y-77705333D01*
X94186128Y-77705333D01*
X93993498Y-77685087D01*
X93993496Y-77685087D01*
X93987369Y-77684443D01*
X93907120Y-77691746D01*
X93788342Y-77702555D01*
X93788339Y-77702556D01*
X93782203Y-77703114D01*
X93584572Y-77761280D01*
X93402002Y-77856726D01*
X93397201Y-77860586D01*
X93397198Y-77860588D01*
X93305306Y-77934471D01*
X93241447Y-77985815D01*
X93109024Y-78143630D01*
X93106056Y-78149028D01*
X93106053Y-78149033D01*
X93044602Y-78260814D01*
X93009776Y-78324162D01*
X92947484Y-78520532D01*
X92946798Y-78526649D01*
X92946797Y-78526653D01*
X92938355Y-78601915D01*
X92924520Y-78725262D01*
X92941759Y-78930553D01*
X92943458Y-78936478D01*
X92992027Y-79105857D01*
X92998544Y-79128586D01*
X93001359Y-79134063D01*
X93001360Y-79134066D01*
X93022248Y-79174709D01*
X93092712Y-79311818D01*
X93220677Y-79473270D01*
X93225370Y-79477264D01*
X93225371Y-79477265D01*
X93337363Y-79572577D01*
X93377564Y-79606791D01*
X93557398Y-79707297D01*
X93641280Y-79734552D01*
X93747471Y-79769056D01*
X93747475Y-79769057D01*
X93753329Y-79770959D01*
X93759441Y-79771688D01*
X93759442Y-79771688D01*
X93913259Y-79790029D01*
X93978532Y-79817956D01*
X94018345Y-79876739D01*
X94020057Y-79947715D01*
X93987435Y-80004238D01*
X84184079Y-89807595D01*
X84121767Y-89841621D01*
X84094984Y-89844500D01*
X82371269Y-89844500D01*
X82303148Y-89824498D01*
X82256008Y-89767991D01*
X82255935Y-89767749D01*
X82159218Y-89585849D01*
X82055158Y-89458259D01*
X82032906Y-89430975D01*
X82032903Y-89430972D01*
X82029011Y-89426200D01*
X82024262Y-89422271D01*
X81875025Y-89298811D01*
X81875021Y-89298809D01*
X81870275Y-89294882D01*
X81689055Y-89196897D01*
X81492254Y-89135977D01*
X81486131Y-89135334D01*
X81486129Y-89135333D01*
X81406130Y-89126925D01*
X81340474Y-89099912D01*
X81299844Y-89041690D01*
X81297141Y-88970745D01*
X81330206Y-88912520D01*
X81516621Y-88726105D01*
X81578933Y-88692079D01*
X81605716Y-88689200D01*
X81858490Y-88689200D01*
X81869472Y-88689680D01*
X81896020Y-88692003D01*
X81896022Y-88692003D01*
X81907007Y-88692964D01*
X81943415Y-88683208D01*
X81954142Y-88680830D01*
X81957501Y-88680238D01*
X81991245Y-88674288D01*
X82000790Y-88668777D01*
X82004066Y-88667585D01*
X82007234Y-88666108D01*
X82017884Y-88663254D01*
X82048744Y-88641645D01*
X82058015Y-88635739D01*
X82081106Y-88622407D01*
X82090655Y-88616894D01*
X82114885Y-88588017D01*
X82122311Y-88579915D01*
X83478715Y-87223511D01*
X83486819Y-87216084D01*
X83507249Y-87198941D01*
X83515694Y-87191855D01*
X83521207Y-87182306D01*
X83534539Y-87159215D01*
X83540445Y-87149944D01*
X83555730Y-87128115D01*
X83562054Y-87119084D01*
X83564908Y-87108434D01*
X83566385Y-87105266D01*
X83567577Y-87101990D01*
X83573088Y-87092445D01*
X83579630Y-87055342D01*
X83582009Y-87044610D01*
X83591764Y-87008207D01*
X83588479Y-86970657D01*
X83588000Y-86959676D01*
X83588000Y-82601298D01*
X83588480Y-82590316D01*
X83590802Y-82563780D01*
X83590802Y-82563778D01*
X83591763Y-82552793D01*
X83582012Y-82516403D01*
X83579632Y-82505669D01*
X83575002Y-82479412D01*
X83573088Y-82468555D01*
X83567576Y-82459007D01*
X83566383Y-82455730D01*
X83564906Y-82452562D01*
X83562053Y-82441916D01*
X83540442Y-82411052D01*
X83534538Y-82401784D01*
X83521204Y-82378689D01*
X83515694Y-82369145D01*
X83486824Y-82344920D01*
X83478721Y-82337494D01*
X81736605Y-80595379D01*
X81702580Y-80533067D01*
X81699700Y-80506284D01*
X81699700Y-79668531D01*
X81719702Y-79600410D01*
X81773358Y-79553917D01*
X81843632Y-79543813D01*
X81907362Y-79572577D01*
X81947564Y-79606791D01*
X82127398Y-79707297D01*
X82211280Y-79734552D01*
X82317471Y-79769056D01*
X82317475Y-79769057D01*
X82323329Y-79770959D01*
X82527894Y-79795351D01*
X82534029Y-79794879D01*
X82534031Y-79794879D01*
X82606625Y-79789293D01*
X82733300Y-79779546D01*
X82739230Y-79777890D01*
X82739232Y-79777890D01*
X82925797Y-79725800D01*
X82925796Y-79725800D01*
X82931725Y-79724145D01*
X82937214Y-79721372D01*
X82937220Y-79721370D01*
X83069952Y-79654322D01*
X83115610Y-79631258D01*
X83277951Y-79504424D01*
X83412564Y-79348472D01*
X83433387Y-79311818D01*
X83511275Y-79174709D01*
X83514323Y-79169344D01*
X83520184Y-79151726D01*
X83560666Y-79093403D01*
X83626254Y-79066224D01*
X83639741Y-79065500D01*
X83782694Y-79065500D01*
X83799514Y-79059378D01*
X83820724Y-79053695D01*
X83827490Y-79052502D01*
X83838345Y-79050588D01*
X83850499Y-79043571D01*
X83855084Y-79042458D01*
X83858250Y-79041306D01*
X83858379Y-79041659D01*
X83919493Y-79026832D01*
X83986585Y-79050051D01*
X84030473Y-79105857D01*
X84039500Y-79152689D01*
X84039500Y-79609748D01*
X84040707Y-79615816D01*
X84044331Y-79634033D01*
X84051133Y-79668231D01*
X84095448Y-79734552D01*
X84161769Y-79778867D01*
X84173938Y-79781288D01*
X84173939Y-79781288D01*
X84214184Y-79789293D01*
X84220252Y-79790500D01*
X85959748Y-79790500D01*
X85965816Y-79789293D01*
X86006061Y-79781288D01*
X86006062Y-79781288D01*
X86018231Y-79778867D01*
X86084552Y-79734552D01*
X86128867Y-79668231D01*
X86135670Y-79634033D01*
X86139293Y-79615816D01*
X86140500Y-79609748D01*
X86140500Y-77870252D01*
X86128867Y-77811769D01*
X86114895Y-77790858D01*
X86091443Y-77755761D01*
X86084552Y-77745448D01*
X86018231Y-77701133D01*
X86006062Y-77698712D01*
X86006061Y-77698712D01*
X85965816Y-77690707D01*
X85959748Y-77689500D01*
X84767916Y-77689500D01*
X84699795Y-77669498D01*
X84653302Y-77615842D01*
X84643198Y-77545568D01*
X84672692Y-77480988D01*
X84678821Y-77474405D01*
X87872344Y-74280882D01*
X87934656Y-74246856D01*
X88005471Y-74251921D01*
X88060183Y-74291711D01*
X88140677Y-74393270D01*
X88145370Y-74397264D01*
X88145371Y-74397265D01*
X88239986Y-74477788D01*
X88297564Y-74526791D01*
X88302942Y-74529797D01*
X88302944Y-74529798D01*
X88341342Y-74551258D01*
X88477398Y-74627297D01*
X88543131Y-74648655D01*
X88667471Y-74689056D01*
X88667475Y-74689057D01*
X88673329Y-74690959D01*
X88877894Y-74715351D01*
X88884029Y-74714879D01*
X88884031Y-74714879D01*
X88956625Y-74709293D01*
X89083300Y-74699546D01*
X89089230Y-74697890D01*
X89089232Y-74697890D01*
X89275797Y-74645800D01*
X89275796Y-74645800D01*
X89281725Y-74644145D01*
X89287214Y-74641372D01*
X89287220Y-74641370D01*
X89460116Y-74554033D01*
X89465610Y-74551258D01*
X89627951Y-74424424D01*
X89659011Y-74388441D01*
X89758540Y-74273134D01*
X89758540Y-74273133D01*
X89762564Y-74268472D01*
X89783387Y-74231818D01*
X89813601Y-74178631D01*
X89864323Y-74089344D01*
X89870184Y-74071726D01*
X89910666Y-74013403D01*
X89976254Y-73986224D01*
X89989741Y-73985500D01*
X90132694Y-73985500D01*
X90149514Y-73979378D01*
X90170724Y-73973695D01*
X90177490Y-73972502D01*
X90188345Y-73970588D01*
X90203844Y-73961640D01*
X90223743Y-73952361D01*
X90240560Y-73946240D01*
X90249006Y-73939153D01*
X90258550Y-73933643D01*
X90260094Y-73936317D01*
X90309024Y-73914903D01*
X90379129Y-73926122D01*
X90432039Y-73973461D01*
X90446091Y-74005159D01*
X90458544Y-74048586D01*
X90461359Y-74054063D01*
X90461360Y-74054066D01*
X90549897Y-74226341D01*
X90552712Y-74231818D01*
X90680677Y-74393270D01*
X90685370Y-74397264D01*
X90685371Y-74397265D01*
X90779986Y-74477788D01*
X90837564Y-74526791D01*
X90842942Y-74529797D01*
X90842944Y-74529798D01*
X90881342Y-74551258D01*
X91017398Y-74627297D01*
X91083131Y-74648655D01*
X91207471Y-74689056D01*
X91207475Y-74689057D01*
X91213329Y-74690959D01*
X91417894Y-74715351D01*
X91424029Y-74714879D01*
X91424031Y-74714879D01*
X91496625Y-74709293D01*
X91623300Y-74699546D01*
X91629230Y-74697890D01*
X91629232Y-74697890D01*
X91815797Y-74645800D01*
X91815796Y-74645800D01*
X91821725Y-74644145D01*
X91827214Y-74641372D01*
X91827220Y-74641370D01*
X92000116Y-74554033D01*
X92005610Y-74551258D01*
X92167951Y-74424424D01*
X92199011Y-74388441D01*
X92298540Y-74273134D01*
X92298540Y-74273133D01*
X92302564Y-74268472D01*
X92323387Y-74231818D01*
X92353601Y-74178631D01*
X92404323Y-74089344D01*
X92469351Y-73893863D01*
X92495171Y-73689474D01*
X92495583Y-73660000D01*
X92475480Y-73454970D01*
X92415935Y-73257749D01*
X92319218Y-73075849D01*
X92309253Y-73063630D01*
X92290136Y-73040191D01*
X92270272Y-73015835D01*
X92242718Y-72950405D01*
X92254913Y-72880463D01*
X92302985Y-72828218D01*
X92367915Y-72810200D01*
X93051470Y-72810200D01*
X93119591Y-72830202D01*
X93166084Y-72883858D01*
X93176188Y-72954132D01*
X93147993Y-73017189D01*
X93109024Y-73063630D01*
X93106056Y-73069028D01*
X93106053Y-73069033D01*
X93019423Y-73226614D01*
X93009776Y-73244162D01*
X92947484Y-73440532D01*
X92946798Y-73446649D01*
X92946797Y-73446653D01*
X92944152Y-73470235D01*
X92924520Y-73645262D01*
X92941759Y-73850553D01*
X92943458Y-73856478D01*
X92980413Y-73985354D01*
X92998544Y-74048586D01*
X93001359Y-74054063D01*
X93001360Y-74054066D01*
X93089897Y-74226341D01*
X93092712Y-74231818D01*
X93220677Y-74393270D01*
X93225370Y-74397264D01*
X93225371Y-74397265D01*
X93319986Y-74477788D01*
X93377564Y-74526791D01*
X93382942Y-74529797D01*
X93382944Y-74529798D01*
X93421342Y-74551258D01*
X93557398Y-74627297D01*
X93623131Y-74648655D01*
X93747471Y-74689056D01*
X93747475Y-74689057D01*
X93753329Y-74690959D01*
X93957894Y-74715351D01*
X93964029Y-74714879D01*
X93964031Y-74714879D01*
X94036625Y-74709293D01*
X94163300Y-74699546D01*
X94169230Y-74697890D01*
X94169232Y-74697890D01*
X94355797Y-74645800D01*
X94355796Y-74645800D01*
X94361725Y-74644145D01*
X94367214Y-74641372D01*
X94367220Y-74641370D01*
X94540116Y-74554033D01*
X94545610Y-74551258D01*
X94707951Y-74424424D01*
X94739011Y-74388441D01*
X94838540Y-74273134D01*
X94838540Y-74273133D01*
X94842564Y-74268472D01*
X94863387Y-74231818D01*
X94893601Y-74178631D01*
X94944323Y-74089344D01*
X95009351Y-73893863D01*
X95035171Y-73689474D01*
X95035583Y-73660000D01*
X95015480Y-73454970D01*
X94955935Y-73257749D01*
X94859218Y-73075849D01*
X94849253Y-73063630D01*
X94830136Y-73040191D01*
X94810272Y-73015835D01*
X94782718Y-72950405D01*
X94794913Y-72880463D01*
X94842985Y-72828218D01*
X94907915Y-72810200D01*
X97697683Y-72810200D01*
X97765804Y-72830202D01*
X97786779Y-72847105D01*
X98347596Y-73407923D01*
X98381621Y-73470235D01*
X98384500Y-73497018D01*
X98384501Y-73962332D01*
X98384780Y-73965281D01*
X98384780Y-73965287D01*
X98386112Y-73979379D01*
X98387399Y-73993000D01*
X98389944Y-74000248D01*
X98389945Y-74000251D01*
X98423117Y-74094709D01*
X98431039Y-74117268D01*
X98436634Y-74124843D01*
X98436635Y-74124845D01*
X98459009Y-74155137D01*
X98509289Y-74223211D01*
X98516860Y-74228803D01*
X98607655Y-74295865D01*
X98607657Y-74295866D01*
X98615232Y-74301461D01*
X98624119Y-74304582D01*
X98624121Y-74304583D01*
X98732252Y-74342556D01*
X98732254Y-74342557D01*
X98739500Y-74345101D01*
X98747144Y-74345824D01*
X98747146Y-74345824D01*
X98755121Y-74346578D01*
X98770167Y-74348000D01*
X99059853Y-74348000D01*
X99349832Y-74347999D01*
X99352782Y-74347720D01*
X99352787Y-74347720D01*
X99372850Y-74345824D01*
X99372851Y-74345824D01*
X99380500Y-74345101D01*
X99387748Y-74342556D01*
X99387751Y-74342555D01*
X99495879Y-74304583D01*
X99495881Y-74304582D01*
X99504768Y-74301461D01*
X99512343Y-74295866D01*
X99512345Y-74295865D01*
X99603140Y-74228803D01*
X99610711Y-74223211D01*
X99660991Y-74155137D01*
X99683365Y-74124845D01*
X99683366Y-74124843D01*
X99688961Y-74117268D01*
X99696884Y-74094709D01*
X99730056Y-74000248D01*
X99730057Y-74000246D01*
X99732601Y-73993000D01*
X99733667Y-73981729D01*
X99734539Y-73972502D01*
X99735500Y-73962333D01*
X99735499Y-73357668D01*
X99732601Y-73327000D01*
X99730055Y-73319749D01*
X99692083Y-73211621D01*
X99692082Y-73211619D01*
X99688961Y-73202732D01*
X99610711Y-73096789D01*
X99582360Y-73075849D01*
X99512345Y-73024135D01*
X99512343Y-73024134D01*
X99504768Y-73018539D01*
X99495881Y-73015418D01*
X99495879Y-73015417D01*
X99387748Y-72977444D01*
X99387746Y-72977443D01*
X99380500Y-72974899D01*
X99372856Y-72974176D01*
X99372854Y-72974176D01*
X99364879Y-72973422D01*
X99349833Y-72972000D01*
X99322031Y-72972000D01*
X98884517Y-72972001D01*
X98816396Y-72951999D01*
X98795422Y-72935096D01*
X98577443Y-72717117D01*
X98543417Y-72654805D01*
X98548482Y-72583990D01*
X98591029Y-72527154D01*
X98657549Y-72502343D01*
X98708284Y-72509139D01*
X98739500Y-72520101D01*
X98747144Y-72520824D01*
X98747146Y-72520824D01*
X98755121Y-72521578D01*
X98770167Y-72523000D01*
X99059853Y-72523000D01*
X99349832Y-72522999D01*
X99352782Y-72522720D01*
X99352787Y-72522720D01*
X99372850Y-72520824D01*
X99372851Y-72520824D01*
X99380500Y-72520101D01*
X99387748Y-72517556D01*
X99387751Y-72517555D01*
X99495879Y-72479583D01*
X99495881Y-72479582D01*
X99504768Y-72476461D01*
X99512343Y-72470866D01*
X99512345Y-72470865D01*
X99603140Y-72403803D01*
X99610711Y-72398211D01*
X99616303Y-72390640D01*
X99622968Y-72383975D01*
X99624070Y-72385077D01*
X99672310Y-72348477D01*
X99743091Y-72342955D01*
X99793807Y-72366283D01*
X99859559Y-72416736D01*
X100005638Y-72477244D01*
X100013826Y-72478322D01*
X100084019Y-72487563D01*
X100162400Y-72497882D01*
X100170588Y-72496804D01*
X100310974Y-72478322D01*
X100319162Y-72477244D01*
X100465241Y-72416736D01*
X100561395Y-72342955D01*
X100584136Y-72325505D01*
X100590682Y-72320482D01*
X100686936Y-72195041D01*
X100747444Y-72048962D01*
X100768082Y-71892200D01*
X100747444Y-71735438D01*
X100686936Y-71589359D01*
X100590682Y-71463918D01*
X100465241Y-71367664D01*
X100319162Y-71307156D01*
X100162400Y-71286518D01*
X100005638Y-71307156D01*
X99859559Y-71367664D01*
X99853008Y-71372691D01*
X99853005Y-71372693D01*
X99847735Y-71376736D01*
X99781514Y-71402334D01*
X99711965Y-71388067D01*
X99669682Y-71351630D01*
X99616303Y-71279360D01*
X99610711Y-71271789D01*
X99603140Y-71266197D01*
X99512345Y-71199135D01*
X99512343Y-71199134D01*
X99504768Y-71193539D01*
X99495881Y-71190418D01*
X99495879Y-71190417D01*
X99387748Y-71152444D01*
X99387746Y-71152443D01*
X99380500Y-71149899D01*
X99372856Y-71149176D01*
X99372854Y-71149176D01*
X99364879Y-71148422D01*
X99349833Y-71147000D01*
X99060147Y-71147000D01*
X98770168Y-71147001D01*
X98767218Y-71147280D01*
X98767213Y-71147280D01*
X98747150Y-71149176D01*
X98747149Y-71149176D01*
X98739500Y-71149899D01*
X98732252Y-71152444D01*
X98732249Y-71152445D01*
X98624121Y-71190417D01*
X98624119Y-71190418D01*
X98615232Y-71193539D01*
X98607657Y-71199134D01*
X98607655Y-71199135D01*
X98516860Y-71266197D01*
X98509289Y-71271789D01*
X98503697Y-71279360D01*
X98439195Y-71366690D01*
X98431039Y-71377732D01*
X98427918Y-71386619D01*
X98427917Y-71386621D01*
X98389944Y-71494752D01*
X98387399Y-71502000D01*
X98384500Y-71532667D01*
X98384501Y-72137332D01*
X98384780Y-72140282D01*
X98384780Y-72140287D01*
X98386373Y-72157139D01*
X98387399Y-72168000D01*
X98396896Y-72195041D01*
X98398361Y-72199214D01*
X98402059Y-72270114D01*
X98366839Y-72331759D01*
X98303882Y-72364576D01*
X98233177Y-72358147D01*
X98190383Y-72330057D01*
X98128811Y-72268485D01*
X98121384Y-72260381D01*
X98104241Y-72239951D01*
X98104242Y-72239951D01*
X98097155Y-72231506D01*
X98087606Y-72225993D01*
X98064515Y-72212661D01*
X98055244Y-72206755D01*
X98047871Y-72201592D01*
X98024384Y-72185146D01*
X98013734Y-72182292D01*
X98010566Y-72180815D01*
X98007290Y-72179623D01*
X97997745Y-72174112D01*
X97963080Y-72168000D01*
X97960642Y-72167570D01*
X97949915Y-72165192D01*
X97913507Y-72155436D01*
X97902522Y-72156397D01*
X97902520Y-72156397D01*
X97875972Y-72158720D01*
X97864990Y-72159200D01*
X94722184Y-72159200D01*
X94654063Y-72139198D01*
X94607570Y-72085542D01*
X94597466Y-72015268D01*
X94626960Y-71950688D01*
X94644611Y-71933910D01*
X94703101Y-71888213D01*
X94707951Y-71884424D01*
X94739011Y-71848441D01*
X94838540Y-71733134D01*
X94838540Y-71733133D01*
X94842564Y-71728472D01*
X94863387Y-71691818D01*
X94881056Y-71660714D01*
X94944323Y-71549344D01*
X95009351Y-71353863D01*
X95035171Y-71149474D01*
X95035583Y-71120000D01*
X95015480Y-70914970D01*
X94955935Y-70717749D01*
X94859218Y-70535849D01*
X94783206Y-70442649D01*
X94732906Y-70380975D01*
X94732903Y-70380972D01*
X94729011Y-70376200D01*
X94711786Y-70361950D01*
X94575025Y-70248811D01*
X94575021Y-70248809D01*
X94570275Y-70244882D01*
X94389055Y-70146897D01*
X94192254Y-70085977D01*
X94186129Y-70085333D01*
X94186128Y-70085333D01*
X93993498Y-70065087D01*
X93993496Y-70065087D01*
X93987369Y-70064443D01*
X93900529Y-70072346D01*
X93788342Y-70082555D01*
X93788339Y-70082556D01*
X93782203Y-70083114D01*
X93584572Y-70141280D01*
X93402002Y-70236726D01*
X93397201Y-70240586D01*
X93397198Y-70240588D01*
X93364688Y-70266727D01*
X93241447Y-70365815D01*
X93109024Y-70523630D01*
X93106056Y-70529028D01*
X93106053Y-70529033D01*
X93099315Y-70541290D01*
X93009776Y-70704162D01*
X92947484Y-70900532D01*
X92946798Y-70906649D01*
X92946797Y-70906653D01*
X92938355Y-70981915D01*
X92924520Y-71105262D01*
X92925036Y-71111406D01*
X92939741Y-71286518D01*
X92941759Y-71310553D01*
X92943458Y-71316478D01*
X92989395Y-71476678D01*
X92998544Y-71508586D01*
X93001359Y-71514063D01*
X93001360Y-71514066D01*
X93078500Y-71664164D01*
X93092712Y-71691818D01*
X93220677Y-71853270D01*
X93225370Y-71857264D01*
X93225371Y-71857265D01*
X93319349Y-71937246D01*
X93358262Y-71996629D01*
X93358893Y-72067622D01*
X93321042Y-72127687D01*
X93256725Y-72157753D01*
X93237686Y-72159200D01*
X92182184Y-72159200D01*
X92114063Y-72139198D01*
X92067570Y-72085542D01*
X92057466Y-72015268D01*
X92086960Y-71950688D01*
X92104611Y-71933910D01*
X92163101Y-71888213D01*
X92167951Y-71884424D01*
X92199011Y-71848441D01*
X92298540Y-71733134D01*
X92298540Y-71733133D01*
X92302564Y-71728472D01*
X92323387Y-71691818D01*
X92341056Y-71660714D01*
X92404323Y-71549344D01*
X92469351Y-71353863D01*
X92495171Y-71149474D01*
X92495583Y-71120000D01*
X92475480Y-70914970D01*
X92415935Y-70717749D01*
X92319218Y-70535849D01*
X92243206Y-70442649D01*
X92192906Y-70380975D01*
X92192903Y-70380972D01*
X92189011Y-70376200D01*
X92171786Y-70361950D01*
X92035025Y-70248811D01*
X92035021Y-70248809D01*
X92030275Y-70244882D01*
X91849055Y-70146897D01*
X91652254Y-70085977D01*
X91646129Y-70085333D01*
X91646128Y-70085333D01*
X91453498Y-70065087D01*
X91453496Y-70065087D01*
X91447369Y-70064443D01*
X91360529Y-70072346D01*
X91248342Y-70082555D01*
X91248339Y-70082556D01*
X91242203Y-70083114D01*
X91044572Y-70141280D01*
X90862002Y-70236726D01*
X90857201Y-70240586D01*
X90857198Y-70240588D01*
X90824688Y-70266727D01*
X90701447Y-70365815D01*
X90569024Y-70523630D01*
X90566056Y-70529028D01*
X90566053Y-70529033D01*
X90559315Y-70541290D01*
X90469776Y-70704162D01*
X90467914Y-70710031D01*
X90465485Y-70715699D01*
X90463458Y-70714830D01*
X90429342Y-70765481D01*
X90364140Y-70793575D01*
X90348901Y-70794500D01*
X90207306Y-70794500D01*
X90190486Y-70800622D01*
X90169276Y-70806305D01*
X90151655Y-70809412D01*
X90136156Y-70818360D01*
X90116257Y-70827639D01*
X90099440Y-70833760D01*
X90090994Y-70840847D01*
X90081450Y-70846357D01*
X90080013Y-70843868D01*
X90030396Y-70865581D01*
X89960292Y-70854361D01*
X89907382Y-70807021D01*
X89893828Y-70777013D01*
X89888143Y-70758185D01*
X89875935Y-70717749D01*
X89779218Y-70535849D01*
X89703206Y-70442649D01*
X89652906Y-70380975D01*
X89652903Y-70380972D01*
X89649011Y-70376200D01*
X89631786Y-70361950D01*
X89495025Y-70248811D01*
X89495021Y-70248809D01*
X89490275Y-70244882D01*
X89309055Y-70146897D01*
X89112254Y-70085977D01*
X89106129Y-70085333D01*
X89106128Y-70085333D01*
X88913498Y-70065087D01*
X88913496Y-70065087D01*
X88907369Y-70064443D01*
X88820529Y-70072346D01*
X88708342Y-70082555D01*
X88708339Y-70082556D01*
X88702203Y-70083114D01*
X88504572Y-70141280D01*
X88322002Y-70236726D01*
X88317201Y-70240586D01*
X88317198Y-70240588D01*
X88284688Y-70266727D01*
X88161447Y-70365815D01*
X88029024Y-70523630D01*
X88026056Y-70529028D01*
X88026053Y-70529033D01*
X88019315Y-70541290D01*
X87929776Y-70704162D01*
X87927914Y-70710031D01*
X87925485Y-70715699D01*
X87923458Y-70714830D01*
X87889342Y-70765481D01*
X87824140Y-70793575D01*
X87808901Y-70794500D01*
X87667306Y-70794500D01*
X87650486Y-70800622D01*
X87629276Y-70806305D01*
X87611655Y-70809412D01*
X87596156Y-70818360D01*
X87576257Y-70827639D01*
X87559440Y-70833760D01*
X87550994Y-70840847D01*
X87541450Y-70846357D01*
X87540013Y-70843868D01*
X87490396Y-70865581D01*
X87420292Y-70854361D01*
X87367382Y-70807021D01*
X87353828Y-70777013D01*
X87348143Y-70758185D01*
X87335935Y-70717749D01*
X87239218Y-70535849D01*
X87163206Y-70442649D01*
X87112906Y-70380975D01*
X87112903Y-70380972D01*
X87109011Y-70376200D01*
X87091786Y-70361950D01*
X86955025Y-70248811D01*
X86955021Y-70248809D01*
X86950275Y-70244882D01*
X86769055Y-70146897D01*
X86572254Y-70085977D01*
X86566129Y-70085333D01*
X86566128Y-70085333D01*
X86373498Y-70065087D01*
X86373496Y-70065087D01*
X86367369Y-70064443D01*
X86280529Y-70072346D01*
X86168342Y-70082555D01*
X86168339Y-70082556D01*
X86162203Y-70083114D01*
X85964572Y-70141280D01*
X85782002Y-70236726D01*
X85777201Y-70240586D01*
X85777198Y-70240588D01*
X85744688Y-70266727D01*
X85621447Y-70365815D01*
X85489024Y-70523630D01*
X85486056Y-70529028D01*
X85486053Y-70529033D01*
X85479315Y-70541290D01*
X85389776Y-70704162D01*
X85387914Y-70710032D01*
X85371068Y-70763138D01*
X85331405Y-70822022D01*
X85266202Y-70850114D01*
X85196163Y-70838497D01*
X85143523Y-70790857D01*
X85128762Y-70755735D01*
X85111214Y-70685875D01*
X85107894Y-70676124D01*
X85022972Y-70480814D01*
X85018105Y-70471739D01*
X84902426Y-70292926D01*
X84896136Y-70284757D01*
X84752806Y-70127240D01*
X84745273Y-70120215D01*
X84578139Y-69988222D01*
X84569552Y-69982517D01*
X84383117Y-69879599D01*
X84373705Y-69875369D01*
X84172959Y-69804280D01*
X84162988Y-69801646D01*
X84091837Y-69788972D01*
X84078540Y-69790432D01*
X84074000Y-69804989D01*
X84074000Y-74978518D01*
X84077442Y-74990241D01*
X84077442Y-75061237D01*
X84045642Y-75114831D01*
X81948378Y-77212096D01*
X81157985Y-78002489D01*
X81149881Y-78009916D01*
X81121006Y-78034145D01*
X81115493Y-78043694D01*
X81102161Y-78066785D01*
X81096255Y-78076056D01*
X81074646Y-78106916D01*
X81071792Y-78117566D01*
X81070315Y-78120734D01*
X81069123Y-78124010D01*
X81063612Y-78133555D01*
X81058722Y-78161290D01*
X81057070Y-78170658D01*
X81054692Y-78181385D01*
X81044936Y-78217793D01*
X81045897Y-78228778D01*
X81045897Y-78228780D01*
X81048220Y-78255328D01*
X81048700Y-78266310D01*
X81048700Y-80673590D01*
X81048220Y-80684572D01*
X81044936Y-80722107D01*
X81047790Y-80732756D01*
X81054691Y-80758510D01*
X81057070Y-80769242D01*
X81063612Y-80806345D01*
X81069123Y-80815890D01*
X81070315Y-80819166D01*
X81071792Y-80822334D01*
X81074646Y-80832984D01*
X81080970Y-80842015D01*
X81096255Y-80863844D01*
X81102161Y-80873115D01*
X81115493Y-80896206D01*
X81121006Y-80905755D01*
X81129451Y-80912841D01*
X81149882Y-80929985D01*
X81157985Y-80937411D01*
X82900095Y-82679522D01*
X82934121Y-82741834D01*
X82937000Y-82768617D01*
X82937000Y-84538492D01*
X82916998Y-84606613D01*
X82863342Y-84653106D01*
X82793068Y-84663210D01*
X82728488Y-84633716D01*
X82691235Y-84577637D01*
X82669604Y-84511458D01*
X82667997Y-84506540D01*
X82554065Y-84287679D01*
X82405917Y-84090364D01*
X82227532Y-83919896D01*
X82199212Y-83900577D01*
X82027979Y-83783770D01*
X82027980Y-83783770D01*
X82023700Y-83780851D01*
X81911798Y-83728908D01*
X81804591Y-83679144D01*
X81804587Y-83679143D01*
X81799896Y-83676965D01*
X81562129Y-83611026D01*
X81556992Y-83610477D01*
X81364043Y-83589856D01*
X81364035Y-83589856D01*
X81360708Y-83589500D01*
X81217446Y-83589500D01*
X81214873Y-83589712D01*
X81214862Y-83589712D01*
X81039240Y-83604151D01*
X81039234Y-83604152D01*
X81034089Y-83604575D01*
X80794783Y-83664684D01*
X80568507Y-83763072D01*
X80361339Y-83897095D01*
X80357514Y-83900575D01*
X80357512Y-83900577D01*
X80336281Y-83919896D01*
X80178842Y-84063154D01*
X80175643Y-84067205D01*
X80175639Y-84067209D01*
X80029119Y-84252736D01*
X80029116Y-84252741D01*
X80025918Y-84256790D01*
X80023425Y-84261306D01*
X80023423Y-84261309D01*
X80011150Y-84283543D01*
X79906673Y-84472802D01*
X79904949Y-84477671D01*
X79904947Y-84477675D01*
X79826035Y-84700515D01*
X79824309Y-84705390D01*
X79781039Y-84948306D01*
X79778025Y-85195028D01*
X79815347Y-85438930D01*
X79892003Y-85673460D01*
X80005935Y-85892321D01*
X80154083Y-86089636D01*
X80332468Y-86260104D01*
X80336740Y-86263018D01*
X80336741Y-86263019D01*
X80365893Y-86282905D01*
X80536300Y-86399149D01*
X80648202Y-86451092D01*
X80755409Y-86500856D01*
X80755413Y-86500857D01*
X80760104Y-86503035D01*
X80997871Y-86568974D01*
X81003008Y-86569523D01*
X81195957Y-86590144D01*
X81195965Y-86590144D01*
X81199292Y-86590500D01*
X81342554Y-86590500D01*
X81345127Y-86590288D01*
X81345138Y-86590288D01*
X81520760Y-86575849D01*
X81520766Y-86575848D01*
X81525911Y-86575425D01*
X81765217Y-86515316D01*
X81991493Y-86416928D01*
X82198661Y-86282905D01*
X82220516Y-86263019D01*
X82256536Y-86230243D01*
X82381158Y-86116846D01*
X82384357Y-86112795D01*
X82384361Y-86112791D01*
X82530881Y-85927264D01*
X82530884Y-85927259D01*
X82534082Y-85923210D01*
X82536577Y-85918691D01*
X82650830Y-85711722D01*
X82650832Y-85711718D01*
X82653327Y-85707198D01*
X82665275Y-85673460D01*
X82692227Y-85597348D01*
X82733821Y-85539812D01*
X82799919Y-85513896D01*
X82869535Y-85527830D01*
X82920566Y-85577189D01*
X82937000Y-85639408D01*
X82937000Y-86792384D01*
X82916998Y-86860505D01*
X82900095Y-86881479D01*
X81780279Y-88001295D01*
X81717967Y-88035321D01*
X81691184Y-88038200D01*
X81438410Y-88038200D01*
X81427428Y-88037720D01*
X81400880Y-88035397D01*
X81400878Y-88035397D01*
X81389893Y-88034436D01*
X81353485Y-88044192D01*
X81342758Y-88046570D01*
X81339399Y-88047162D01*
X81305655Y-88053112D01*
X81296110Y-88058623D01*
X81292834Y-88059815D01*
X81289666Y-88061292D01*
X81279016Y-88064146D01*
X81269985Y-88070470D01*
X81248156Y-88085755D01*
X81238885Y-88091661D01*
X81215794Y-88104993D01*
X81206245Y-88110506D01*
X81199159Y-88118951D01*
X81182015Y-88139382D01*
X81174589Y-88147485D01*
X79888385Y-89433689D01*
X79880281Y-89441116D01*
X79851406Y-89465345D01*
X79845893Y-89474894D01*
X79832561Y-89497985D01*
X79826655Y-89507256D01*
X79805046Y-89538116D01*
X79802192Y-89548766D01*
X79800715Y-89551934D01*
X79799523Y-89555210D01*
X79794012Y-89564755D01*
X79788062Y-89598499D01*
X79787470Y-89601858D01*
X79785092Y-89612585D01*
X79775336Y-89648993D01*
X79776297Y-89659978D01*
X79776297Y-89659980D01*
X79778620Y-89686528D01*
X79779100Y-89697510D01*
X79779100Y-96594890D01*
X79778620Y-96605872D01*
X79775336Y-96643407D01*
X77471000Y-96643407D01*
X77471000Y-71105262D01*
X80224520Y-71105262D01*
X80225036Y-71111406D01*
X80239741Y-71286518D01*
X80241759Y-71310553D01*
X80243458Y-71316478D01*
X80289395Y-71476678D01*
X80298544Y-71508586D01*
X80301359Y-71514063D01*
X80301360Y-71514066D01*
X80378500Y-71664164D01*
X80392712Y-71691818D01*
X80520677Y-71853270D01*
X80525370Y-71857264D01*
X80525371Y-71857265D01*
X80619349Y-71937246D01*
X80677564Y-71986791D01*
X80682942Y-71989797D01*
X80682944Y-71989798D01*
X80733336Y-72017961D01*
X80857398Y-72087297D01*
X80952238Y-72118113D01*
X81047471Y-72149056D01*
X81047475Y-72149057D01*
X81053329Y-72150959D01*
X81257894Y-72175351D01*
X81264029Y-72174879D01*
X81264031Y-72174879D01*
X81320039Y-72170569D01*
X81463300Y-72159546D01*
X81469230Y-72157890D01*
X81469232Y-72157890D01*
X81655797Y-72105800D01*
X81655796Y-72105800D01*
X81661725Y-72104145D01*
X81667214Y-72101372D01*
X81667220Y-72101370D01*
X81832340Y-72017961D01*
X81845610Y-72011258D01*
X81861345Y-71998965D01*
X82003101Y-71888213D01*
X82007951Y-71884424D01*
X82039011Y-71848441D01*
X82138540Y-71733134D01*
X82138540Y-71733133D01*
X82142564Y-71728472D01*
X82163387Y-71691818D01*
X82181056Y-71660714D01*
X82244323Y-71549344D01*
X82253271Y-71522444D01*
X82268496Y-71476678D01*
X82308978Y-71418354D01*
X82374566Y-71391175D01*
X82444437Y-71403770D01*
X82496406Y-71452141D01*
X82510971Y-71488751D01*
X82518564Y-71522444D01*
X82521645Y-71532275D01*
X82601770Y-71729603D01*
X82606413Y-71738794D01*
X82717694Y-71920388D01*
X82723777Y-71928699D01*
X82863213Y-72089667D01*
X82870580Y-72096883D01*
X83034434Y-72232916D01*
X83042881Y-72238831D01*
X83112479Y-72279501D01*
X83161203Y-72331140D01*
X83174274Y-72400923D01*
X83147543Y-72466694D01*
X83107087Y-72500053D01*
X83098462Y-72504542D01*
X83089738Y-72510036D01*
X82919433Y-72637905D01*
X82911726Y-72644748D01*
X82764590Y-72798717D01*
X82758104Y-72806727D01*
X82638098Y-72982649D01*
X82633000Y-72991623D01*
X82570788Y-73125647D01*
X82523964Y-73179014D01*
X82455720Y-73198595D01*
X82387725Y-73178171D01*
X82341565Y-73124229D01*
X82330500Y-73072597D01*
X82330500Y-72790252D01*
X82318867Y-72731769D01*
X82274552Y-72665448D01*
X82208231Y-72621133D01*
X82196062Y-72618712D01*
X82196061Y-72618712D01*
X82155816Y-72610707D01*
X82149748Y-72609500D01*
X80410252Y-72609500D01*
X80404184Y-72610707D01*
X80363939Y-72618712D01*
X80363938Y-72618712D01*
X80351769Y-72621133D01*
X80285448Y-72665448D01*
X80241133Y-72731769D01*
X80229500Y-72790252D01*
X80229500Y-74529748D01*
X80230707Y-74535816D01*
X80234331Y-74554033D01*
X80241133Y-74588231D01*
X80285448Y-74654552D01*
X80351769Y-74698867D01*
X80363938Y-74701288D01*
X80363939Y-74701288D01*
X80404184Y-74709293D01*
X80410252Y-74710500D01*
X82149748Y-74710500D01*
X82155816Y-74709293D01*
X82196061Y-74701288D01*
X82196062Y-74701288D01*
X82208231Y-74698867D01*
X82274552Y-74654552D01*
X82318867Y-74588231D01*
X82325670Y-74554033D01*
X82329293Y-74535816D01*
X82330500Y-74529748D01*
X82330500Y-74246752D01*
X82350502Y-74178631D01*
X82404158Y-74132138D01*
X82474432Y-74122034D01*
X82539012Y-74151528D01*
X82573243Y-74199348D01*
X82601770Y-74269603D01*
X82606413Y-74278794D01*
X82717694Y-74460388D01*
X82723777Y-74468699D01*
X82863213Y-74629667D01*
X82870580Y-74636883D01*
X83034434Y-74772916D01*
X83042881Y-74778831D01*
X83226756Y-74886279D01*
X83236042Y-74890729D01*
X83435001Y-74966703D01*
X83444899Y-74969579D01*
X83548250Y-74990606D01*
X83562299Y-74989410D01*
X83566000Y-74979065D01*
X83566000Y-69803102D01*
X83562082Y-69789758D01*
X83547806Y-69787771D01*
X83509324Y-69793660D01*
X83499288Y-69796051D01*
X83296868Y-69862212D01*
X83287359Y-69866209D01*
X83098463Y-69964542D01*
X83089738Y-69970036D01*
X82919433Y-70097905D01*
X82911726Y-70104748D01*
X82764590Y-70258717D01*
X82758104Y-70266727D01*
X82638098Y-70442649D01*
X82633000Y-70451623D01*
X82543338Y-70644783D01*
X82539775Y-70654470D01*
X82511012Y-70758185D01*
X82473533Y-70818483D01*
X82409405Y-70848946D01*
X82338986Y-70839903D01*
X82284636Y-70794224D01*
X82268973Y-70760933D01*
X82268143Y-70758185D01*
X82255935Y-70717749D01*
X82159218Y-70535849D01*
X82083206Y-70442649D01*
X82032906Y-70380975D01*
X82032903Y-70380972D01*
X82029011Y-70376200D01*
X82011786Y-70361950D01*
X81875025Y-70248811D01*
X81875021Y-70248809D01*
X81870275Y-70244882D01*
X81689055Y-70146897D01*
X81492254Y-70085977D01*
X81486129Y-70085333D01*
X81486128Y-70085333D01*
X81293498Y-70065087D01*
X81293496Y-70065087D01*
X81287369Y-70064443D01*
X81200529Y-70072346D01*
X81088342Y-70082555D01*
X81088339Y-70082556D01*
X81082203Y-70083114D01*
X80884572Y-70141280D01*
X80702002Y-70236726D01*
X80697201Y-70240586D01*
X80697198Y-70240588D01*
X80664688Y-70266727D01*
X80541447Y-70365815D01*
X80409024Y-70523630D01*
X80406056Y-70529028D01*
X80406053Y-70529033D01*
X80399315Y-70541290D01*
X80309776Y-70704162D01*
X80247484Y-70900532D01*
X80246798Y-70906649D01*
X80246797Y-70906653D01*
X80238355Y-70981915D01*
X80224520Y-71105262D01*
X77471000Y-71105262D01*
X77471000Y-67952081D01*
X77471792Y-67937974D01*
X77476808Y-67893453D01*
X77477094Y-67891113D01*
X77487888Y-67809129D01*
X77493881Y-67783960D01*
X77512384Y-67731082D01*
X77514904Y-67724480D01*
X77540629Y-67662374D01*
X77550350Y-67643558D01*
X77581553Y-67593897D01*
X77588279Y-67584227D01*
X77627709Y-67532841D01*
X77638576Y-67520450D01*
X77680450Y-67478576D01*
X77692841Y-67467709D01*
X77744227Y-67428279D01*
X77753897Y-67421553D01*
X77803558Y-67390350D01*
X77822374Y-67380629D01*
X77884480Y-67354904D01*
X77891082Y-67352384D01*
X77943960Y-67333881D01*
X77969129Y-67327888D01*
X78009292Y-67322600D01*
X78051148Y-67317090D01*
X78053418Y-67316812D01*
X78097975Y-67311792D01*
X78112081Y-67311000D01*
X100957919Y-67311000D01*
X100972025Y-67311792D01*
G37*
G04 #@! TD.AperFunction*
M02*
