%TF.GenerationSoftware,KiCad,Pcbnew,6.0.9-8da3e8f707~116~ubuntu20.04.1*%
%TF.CreationDate,2023-03-08T00:08:02+01:00*%
%TF.ProjectId,clocks_pmod,636c6f63-6b73-45f7-906d-6f642e6b6963,rev?*%
%TF.SameCoordinates,Original*%
%TF.FileFunction,Drillmap*%
%TF.FilePolarity,Positive*%
%FSLAX45Y45*%
G04 Gerber Fmt 4.5, Leading zero omitted, Abs format (unit mm)*
G04 Created by KiCad (PCBNEW 6.0.9-8da3e8f707~116~ubuntu20.04.1) date 2023-03-08 00:08:02*
%MOMM*%
%LPD*%
G01*
G04 APERTURE LIST*
%ADD10C,0.100000*%
%ADD11C,0.200000*%
%ADD12C,0.250000*%
%ADD13C,0.300000*%
G04 APERTURE END LIST*
D10*
X10160000Y-13906500D02*
X10160000Y-6794500D01*
X7810500Y-6731000D02*
G75*
G03*
X7747000Y-6794500I0J-63500D01*
G01*
X7747000Y-6794500D02*
X7747000Y-13906500D01*
X10096500Y-6731000D02*
X7810500Y-6731000D01*
X7810500Y-13970000D02*
X10096500Y-13970000D01*
X10160000Y-6794500D02*
G75*
G03*
X10096500Y-6731000I-63500J0D01*
G01*
X7747000Y-13906500D02*
G75*
G03*
X7810500Y-13970000I63500J0D01*
G01*
X10096500Y-13970000D02*
G75*
G03*
X10160000Y-13906500I0J63500D01*
G01*
D11*
D12*
X8003000Y-8384000D02*
X8253000Y-8634000D01*
X8253000Y-8384000D02*
X8003000Y-8634000D01*
X8003000Y-10924000D02*
X8253000Y-11174000D01*
X8253000Y-10924000D02*
X8003000Y-11174000D01*
D13*
X8303400Y-13550900D02*
G75*
G03*
X8303400Y-13550900I-150000J0D01*
G01*
D11*
X7999619Y-14285476D02*
X7999619Y-14085476D01*
X8047238Y-14085476D01*
X8075809Y-14095000D01*
X8094857Y-14114048D01*
X8104381Y-14133095D01*
X8113905Y-14171190D01*
X8113905Y-14199762D01*
X8104381Y-14237857D01*
X8094857Y-14256905D01*
X8075809Y-14275952D01*
X8047238Y-14285476D01*
X7999619Y-14285476D01*
X8199619Y-14285476D02*
X8199619Y-14152143D01*
X8199619Y-14190238D02*
X8209143Y-14171190D01*
X8218667Y-14161667D01*
X8237714Y-14152143D01*
X8256762Y-14152143D01*
X8323428Y-14285476D02*
X8323428Y-14152143D01*
X8323428Y-14085476D02*
X8313905Y-14095000D01*
X8323428Y-14104524D01*
X8332952Y-14095000D01*
X8323428Y-14085476D01*
X8323428Y-14104524D01*
X8447238Y-14285476D02*
X8428190Y-14275952D01*
X8418667Y-14256905D01*
X8418667Y-14085476D01*
X8552000Y-14285476D02*
X8532952Y-14275952D01*
X8523429Y-14256905D01*
X8523429Y-14085476D01*
X8780571Y-14285476D02*
X8780571Y-14085476D01*
X8847238Y-14228333D01*
X8913905Y-14085476D01*
X8913905Y-14285476D01*
X9094857Y-14285476D02*
X9094857Y-14180714D01*
X9085333Y-14161667D01*
X9066286Y-14152143D01*
X9028190Y-14152143D01*
X9009143Y-14161667D01*
X9094857Y-14275952D02*
X9075810Y-14285476D01*
X9028190Y-14285476D01*
X9009143Y-14275952D01*
X8999619Y-14256905D01*
X8999619Y-14237857D01*
X9009143Y-14218809D01*
X9028190Y-14209286D01*
X9075810Y-14209286D01*
X9094857Y-14199762D01*
X9190095Y-14152143D02*
X9190095Y-14352143D01*
X9190095Y-14161667D02*
X9209143Y-14152143D01*
X9247238Y-14152143D01*
X9266286Y-14161667D01*
X9275810Y-14171190D01*
X9285333Y-14190238D01*
X9285333Y-14247381D01*
X9275810Y-14266428D01*
X9266286Y-14275952D01*
X9247238Y-14285476D01*
X9209143Y-14285476D01*
X9190095Y-14275952D01*
X9371048Y-14266428D02*
X9380571Y-14275952D01*
X9371048Y-14285476D01*
X9361524Y-14275952D01*
X9371048Y-14266428D01*
X9371048Y-14285476D01*
X9371048Y-14161667D02*
X9380571Y-14171190D01*
X9371048Y-14180714D01*
X9361524Y-14171190D01*
X9371048Y-14161667D01*
X9371048Y-14180714D01*
X7542000Y-14515000D02*
X7742000Y-14715000D01*
X7742000Y-14515000D02*
X7542000Y-14715000D01*
X7990095Y-14524524D02*
X7999619Y-14515000D01*
X8018667Y-14505476D01*
X8066286Y-14505476D01*
X8085333Y-14515000D01*
X8094857Y-14524524D01*
X8104381Y-14543571D01*
X8104381Y-14562619D01*
X8094857Y-14591190D01*
X7980571Y-14705476D01*
X8104381Y-14705476D01*
X8190095Y-14686428D02*
X8199619Y-14695952D01*
X8190095Y-14705476D01*
X8180571Y-14695952D01*
X8190095Y-14686428D01*
X8190095Y-14705476D01*
X8380571Y-14505476D02*
X8285333Y-14505476D01*
X8275809Y-14600714D01*
X8285333Y-14591190D01*
X8304381Y-14581667D01*
X8352000Y-14581667D01*
X8371048Y-14591190D01*
X8380571Y-14600714D01*
X8390095Y-14619762D01*
X8390095Y-14667381D01*
X8380571Y-14686428D01*
X8371048Y-14695952D01*
X8352000Y-14705476D01*
X8304381Y-14705476D01*
X8285333Y-14695952D01*
X8275809Y-14686428D01*
X8513905Y-14505476D02*
X8532952Y-14505476D01*
X8552000Y-14515000D01*
X8561524Y-14524524D01*
X8571048Y-14543571D01*
X8580571Y-14581667D01*
X8580571Y-14629286D01*
X8571048Y-14667381D01*
X8561524Y-14686428D01*
X8552000Y-14695952D01*
X8532952Y-14705476D01*
X8513905Y-14705476D01*
X8494857Y-14695952D01*
X8485333Y-14686428D01*
X8475810Y-14667381D01*
X8466286Y-14629286D01*
X8466286Y-14581667D01*
X8475810Y-14543571D01*
X8485333Y-14524524D01*
X8494857Y-14515000D01*
X8513905Y-14505476D01*
X8704381Y-14505476D02*
X8723429Y-14505476D01*
X8742476Y-14515000D01*
X8752000Y-14524524D01*
X8761524Y-14543571D01*
X8771048Y-14581667D01*
X8771048Y-14629286D01*
X8761524Y-14667381D01*
X8752000Y-14686428D01*
X8742476Y-14695952D01*
X8723429Y-14705476D01*
X8704381Y-14705476D01*
X8685333Y-14695952D01*
X8675810Y-14686428D01*
X8666286Y-14667381D01*
X8656762Y-14629286D01*
X8656762Y-14581667D01*
X8666286Y-14543571D01*
X8675810Y-14524524D01*
X8685333Y-14515000D01*
X8704381Y-14505476D01*
X8856762Y-14705476D02*
X8856762Y-14572143D01*
X8856762Y-14591190D02*
X8866286Y-14581667D01*
X8885333Y-14572143D01*
X8913905Y-14572143D01*
X8932952Y-14581667D01*
X8942476Y-14600714D01*
X8942476Y-14705476D01*
X8942476Y-14600714D02*
X8952000Y-14581667D01*
X8971048Y-14572143D01*
X8999619Y-14572143D01*
X9018667Y-14581667D01*
X9028190Y-14600714D01*
X9028190Y-14705476D01*
X9123429Y-14705476D02*
X9123429Y-14572143D01*
X9123429Y-14591190D02*
X9132952Y-14581667D01*
X9152000Y-14572143D01*
X9180571Y-14572143D01*
X9199619Y-14581667D01*
X9209143Y-14600714D01*
X9209143Y-14705476D01*
X9209143Y-14600714D02*
X9218667Y-14581667D01*
X9237714Y-14572143D01*
X9266286Y-14572143D01*
X9285333Y-14581667D01*
X9294857Y-14600714D01*
X9294857Y-14705476D01*
X9685333Y-14495952D02*
X9513905Y-14753095D01*
X9942476Y-14505476D02*
X9961524Y-14505476D01*
X9980571Y-14515000D01*
X9990095Y-14524524D01*
X9999619Y-14543571D01*
X10009143Y-14581667D01*
X10009143Y-14629286D01*
X9999619Y-14667381D01*
X9990095Y-14686428D01*
X9980571Y-14695952D01*
X9961524Y-14705476D01*
X9942476Y-14705476D01*
X9923429Y-14695952D01*
X9913905Y-14686428D01*
X9904381Y-14667381D01*
X9894857Y-14629286D01*
X9894857Y-14581667D01*
X9904381Y-14543571D01*
X9913905Y-14524524D01*
X9923429Y-14515000D01*
X9942476Y-14505476D01*
X10094857Y-14686428D02*
X10104381Y-14695952D01*
X10094857Y-14705476D01*
X10085333Y-14695952D01*
X10094857Y-14686428D01*
X10094857Y-14705476D01*
X10228190Y-14505476D02*
X10247238Y-14505476D01*
X10266286Y-14515000D01*
X10275810Y-14524524D01*
X10285333Y-14543571D01*
X10294857Y-14581667D01*
X10294857Y-14629286D01*
X10285333Y-14667381D01*
X10275810Y-14686428D01*
X10266286Y-14695952D01*
X10247238Y-14705476D01*
X10228190Y-14705476D01*
X10209143Y-14695952D01*
X10199619Y-14686428D01*
X10190095Y-14667381D01*
X10180571Y-14629286D01*
X10180571Y-14581667D01*
X10190095Y-14543571D01*
X10199619Y-14524524D01*
X10209143Y-14515000D01*
X10228190Y-14505476D01*
X10390095Y-14705476D02*
X10428190Y-14705476D01*
X10447238Y-14695952D01*
X10456762Y-14686428D01*
X10475810Y-14657857D01*
X10485333Y-14619762D01*
X10485333Y-14543571D01*
X10475810Y-14524524D01*
X10466286Y-14515000D01*
X10447238Y-14505476D01*
X10409143Y-14505476D01*
X10390095Y-14515000D01*
X10380571Y-14524524D01*
X10371048Y-14543571D01*
X10371048Y-14591190D01*
X10380571Y-14610238D01*
X10390095Y-14619762D01*
X10409143Y-14629286D01*
X10447238Y-14629286D01*
X10466286Y-14619762D01*
X10475810Y-14610238D01*
X10485333Y-14591190D01*
X10599619Y-14591190D02*
X10580571Y-14581667D01*
X10571048Y-14572143D01*
X10561524Y-14553095D01*
X10561524Y-14543571D01*
X10571048Y-14524524D01*
X10580571Y-14515000D01*
X10599619Y-14505476D01*
X10637714Y-14505476D01*
X10656762Y-14515000D01*
X10666286Y-14524524D01*
X10675810Y-14543571D01*
X10675810Y-14553095D01*
X10666286Y-14572143D01*
X10656762Y-14581667D01*
X10637714Y-14591190D01*
X10599619Y-14591190D01*
X10580571Y-14600714D01*
X10571048Y-14610238D01*
X10561524Y-14629286D01*
X10561524Y-14667381D01*
X10571048Y-14686428D01*
X10580571Y-14695952D01*
X10599619Y-14705476D01*
X10637714Y-14705476D01*
X10656762Y-14695952D01*
X10666286Y-14686428D01*
X10675810Y-14667381D01*
X10675810Y-14629286D01*
X10666286Y-14610238D01*
X10656762Y-14600714D01*
X10637714Y-14591190D01*
X10847238Y-14572143D02*
X10847238Y-14705476D01*
X10799619Y-14495952D02*
X10752000Y-14638809D01*
X10875810Y-14638809D01*
X10942476Y-14505476D02*
X10942476Y-14543571D01*
X11018667Y-14505476D02*
X11018667Y-14543571D01*
X11313905Y-14781667D02*
X11304381Y-14772143D01*
X11285333Y-14743571D01*
X11275809Y-14724524D01*
X11266286Y-14695952D01*
X11256762Y-14648333D01*
X11256762Y-14610238D01*
X11266286Y-14562619D01*
X11275809Y-14534048D01*
X11285333Y-14515000D01*
X11304381Y-14486428D01*
X11313905Y-14476905D01*
X11380571Y-14524524D02*
X11390095Y-14515000D01*
X11409143Y-14505476D01*
X11456762Y-14505476D01*
X11475809Y-14515000D01*
X11485333Y-14524524D01*
X11494857Y-14543571D01*
X11494857Y-14562619D01*
X11485333Y-14591190D01*
X11371048Y-14705476D01*
X11494857Y-14705476D01*
X11732952Y-14705476D02*
X11732952Y-14505476D01*
X11818667Y-14705476D02*
X11818667Y-14600714D01*
X11809143Y-14581667D01*
X11790095Y-14572143D01*
X11761524Y-14572143D01*
X11742476Y-14581667D01*
X11732952Y-14591190D01*
X11942476Y-14705476D02*
X11923428Y-14695952D01*
X11913905Y-14686428D01*
X11904381Y-14667381D01*
X11904381Y-14610238D01*
X11913905Y-14591190D01*
X11923428Y-14581667D01*
X11942476Y-14572143D01*
X11971048Y-14572143D01*
X11990095Y-14581667D01*
X11999619Y-14591190D01*
X12009143Y-14610238D01*
X12009143Y-14667381D01*
X11999619Y-14686428D01*
X11990095Y-14695952D01*
X11971048Y-14705476D01*
X11942476Y-14705476D01*
X12123428Y-14705476D02*
X12104381Y-14695952D01*
X12094857Y-14676905D01*
X12094857Y-14505476D01*
X12275809Y-14695952D02*
X12256762Y-14705476D01*
X12218667Y-14705476D01*
X12199619Y-14695952D01*
X12190095Y-14676905D01*
X12190095Y-14600714D01*
X12199619Y-14581667D01*
X12218667Y-14572143D01*
X12256762Y-14572143D01*
X12275809Y-14581667D01*
X12285333Y-14600714D01*
X12285333Y-14619762D01*
X12190095Y-14638809D01*
X12361524Y-14695952D02*
X12380571Y-14705476D01*
X12418667Y-14705476D01*
X12437714Y-14695952D01*
X12447238Y-14676905D01*
X12447238Y-14667381D01*
X12437714Y-14648333D01*
X12418667Y-14638809D01*
X12390095Y-14638809D01*
X12371048Y-14629286D01*
X12361524Y-14610238D01*
X12361524Y-14600714D01*
X12371048Y-14581667D01*
X12390095Y-14572143D01*
X12418667Y-14572143D01*
X12437714Y-14581667D01*
X12513905Y-14781667D02*
X12523428Y-14772143D01*
X12542476Y-14743571D01*
X12552000Y-14724524D01*
X12561524Y-14695952D01*
X12571048Y-14648333D01*
X12571048Y-14610238D01*
X12561524Y-14562619D01*
X12552000Y-14534048D01*
X12542476Y-14515000D01*
X12523428Y-14486428D01*
X12513905Y-14476905D01*
X12875809Y-14781667D02*
X12866286Y-14772143D01*
X12847238Y-14743571D01*
X12837714Y-14724524D01*
X12828190Y-14695952D01*
X12818667Y-14648333D01*
X12818667Y-14610238D01*
X12828190Y-14562619D01*
X12837714Y-14534048D01*
X12847238Y-14515000D01*
X12866286Y-14486428D01*
X12875809Y-14476905D01*
X12952000Y-14572143D02*
X12952000Y-14705476D01*
X12952000Y-14591190D02*
X12961524Y-14581667D01*
X12980571Y-14572143D01*
X13009143Y-14572143D01*
X13028190Y-14581667D01*
X13037714Y-14600714D01*
X13037714Y-14705476D01*
X13161524Y-14705476D02*
X13142476Y-14695952D01*
X13132952Y-14686428D01*
X13123428Y-14667381D01*
X13123428Y-14610238D01*
X13132952Y-14591190D01*
X13142476Y-14581667D01*
X13161524Y-14572143D01*
X13190095Y-14572143D01*
X13209143Y-14581667D01*
X13218667Y-14591190D01*
X13228190Y-14610238D01*
X13228190Y-14667381D01*
X13218667Y-14686428D01*
X13209143Y-14695952D01*
X13190095Y-14705476D01*
X13161524Y-14705476D01*
X13285333Y-14572143D02*
X13361524Y-14572143D01*
X13313905Y-14505476D02*
X13313905Y-14676905D01*
X13323428Y-14695952D01*
X13342476Y-14705476D01*
X13361524Y-14705476D01*
X13580571Y-14572143D02*
X13580571Y-14772143D01*
X13580571Y-14581667D02*
X13599619Y-14572143D01*
X13637714Y-14572143D01*
X13656762Y-14581667D01*
X13666286Y-14591190D01*
X13675809Y-14610238D01*
X13675809Y-14667381D01*
X13666286Y-14686428D01*
X13656762Y-14695952D01*
X13637714Y-14705476D01*
X13599619Y-14705476D01*
X13580571Y-14695952D01*
X13790095Y-14705476D02*
X13771048Y-14695952D01*
X13761524Y-14676905D01*
X13761524Y-14505476D01*
X13952000Y-14705476D02*
X13952000Y-14600714D01*
X13942476Y-14581667D01*
X13923428Y-14572143D01*
X13885333Y-14572143D01*
X13866286Y-14581667D01*
X13952000Y-14695952D02*
X13932952Y-14705476D01*
X13885333Y-14705476D01*
X13866286Y-14695952D01*
X13856762Y-14676905D01*
X13856762Y-14657857D01*
X13866286Y-14638809D01*
X13885333Y-14629286D01*
X13932952Y-14629286D01*
X13952000Y-14619762D01*
X14018667Y-14572143D02*
X14094857Y-14572143D01*
X14047238Y-14505476D02*
X14047238Y-14676905D01*
X14056762Y-14695952D01*
X14075809Y-14705476D01*
X14094857Y-14705476D01*
X14237714Y-14695952D02*
X14218667Y-14705476D01*
X14180571Y-14705476D01*
X14161524Y-14695952D01*
X14152000Y-14676905D01*
X14152000Y-14600714D01*
X14161524Y-14581667D01*
X14180571Y-14572143D01*
X14218667Y-14572143D01*
X14237714Y-14581667D01*
X14247238Y-14600714D01*
X14247238Y-14619762D01*
X14152000Y-14638809D01*
X14418667Y-14705476D02*
X14418667Y-14505476D01*
X14418667Y-14695952D02*
X14399619Y-14705476D01*
X14361524Y-14705476D01*
X14342476Y-14695952D01*
X14332952Y-14686428D01*
X14323428Y-14667381D01*
X14323428Y-14610238D01*
X14332952Y-14591190D01*
X14342476Y-14581667D01*
X14361524Y-14572143D01*
X14399619Y-14572143D01*
X14418667Y-14581667D01*
X14494857Y-14781667D02*
X14504381Y-14772143D01*
X14523428Y-14743571D01*
X14532952Y-14724524D01*
X14542476Y-14695952D01*
X14552000Y-14648333D01*
X14552000Y-14610238D01*
X14542476Y-14562619D01*
X14532952Y-14534048D01*
X14523428Y-14515000D01*
X14504381Y-14486428D01*
X14494857Y-14476905D01*
X7742000Y-14935000D02*
G75*
G03*
X7742000Y-14935000I-100000J0D01*
G01*
X7980571Y-14825476D02*
X8104381Y-14825476D01*
X8037714Y-14901667D01*
X8066286Y-14901667D01*
X8085333Y-14911190D01*
X8094857Y-14920714D01*
X8104381Y-14939762D01*
X8104381Y-14987381D01*
X8094857Y-15006428D01*
X8085333Y-15015952D01*
X8066286Y-15025476D01*
X8009143Y-15025476D01*
X7990095Y-15015952D01*
X7980571Y-15006428D01*
X8190095Y-15006428D02*
X8199619Y-15015952D01*
X8190095Y-15025476D01*
X8180571Y-15015952D01*
X8190095Y-15006428D01*
X8190095Y-15025476D01*
X8323428Y-14825476D02*
X8342476Y-14825476D01*
X8361524Y-14835000D01*
X8371048Y-14844524D01*
X8380571Y-14863571D01*
X8390095Y-14901667D01*
X8390095Y-14949286D01*
X8380571Y-14987381D01*
X8371048Y-15006428D01*
X8361524Y-15015952D01*
X8342476Y-15025476D01*
X8323428Y-15025476D01*
X8304381Y-15015952D01*
X8294857Y-15006428D01*
X8285333Y-14987381D01*
X8275809Y-14949286D01*
X8275809Y-14901667D01*
X8285333Y-14863571D01*
X8294857Y-14844524D01*
X8304381Y-14835000D01*
X8323428Y-14825476D01*
X8513905Y-14825476D02*
X8532952Y-14825476D01*
X8552000Y-14835000D01*
X8561524Y-14844524D01*
X8571048Y-14863571D01*
X8580571Y-14901667D01*
X8580571Y-14949286D01*
X8571048Y-14987381D01*
X8561524Y-15006428D01*
X8552000Y-15015952D01*
X8532952Y-15025476D01*
X8513905Y-15025476D01*
X8494857Y-15015952D01*
X8485333Y-15006428D01*
X8475810Y-14987381D01*
X8466286Y-14949286D01*
X8466286Y-14901667D01*
X8475810Y-14863571D01*
X8485333Y-14844524D01*
X8494857Y-14835000D01*
X8513905Y-14825476D01*
X8704381Y-14825476D02*
X8723429Y-14825476D01*
X8742476Y-14835000D01*
X8752000Y-14844524D01*
X8761524Y-14863571D01*
X8771048Y-14901667D01*
X8771048Y-14949286D01*
X8761524Y-14987381D01*
X8752000Y-15006428D01*
X8742476Y-15015952D01*
X8723429Y-15025476D01*
X8704381Y-15025476D01*
X8685333Y-15015952D01*
X8675810Y-15006428D01*
X8666286Y-14987381D01*
X8656762Y-14949286D01*
X8656762Y-14901667D01*
X8666286Y-14863571D01*
X8675810Y-14844524D01*
X8685333Y-14835000D01*
X8704381Y-14825476D01*
X8856762Y-15025476D02*
X8856762Y-14892143D01*
X8856762Y-14911190D02*
X8866286Y-14901667D01*
X8885333Y-14892143D01*
X8913905Y-14892143D01*
X8932952Y-14901667D01*
X8942476Y-14920714D01*
X8942476Y-15025476D01*
X8942476Y-14920714D02*
X8952000Y-14901667D01*
X8971048Y-14892143D01*
X8999619Y-14892143D01*
X9018667Y-14901667D01*
X9028190Y-14920714D01*
X9028190Y-15025476D01*
X9123429Y-15025476D02*
X9123429Y-14892143D01*
X9123429Y-14911190D02*
X9132952Y-14901667D01*
X9152000Y-14892143D01*
X9180571Y-14892143D01*
X9199619Y-14901667D01*
X9209143Y-14920714D01*
X9209143Y-15025476D01*
X9209143Y-14920714D02*
X9218667Y-14901667D01*
X9237714Y-14892143D01*
X9266286Y-14892143D01*
X9285333Y-14901667D01*
X9294857Y-14920714D01*
X9294857Y-15025476D01*
X9685333Y-14815952D02*
X9513905Y-15073095D01*
X9942476Y-14825476D02*
X9961524Y-14825476D01*
X9980571Y-14835000D01*
X9990095Y-14844524D01*
X9999619Y-14863571D01*
X10009143Y-14901667D01*
X10009143Y-14949286D01*
X9999619Y-14987381D01*
X9990095Y-15006428D01*
X9980571Y-15015952D01*
X9961524Y-15025476D01*
X9942476Y-15025476D01*
X9923429Y-15015952D01*
X9913905Y-15006428D01*
X9904381Y-14987381D01*
X9894857Y-14949286D01*
X9894857Y-14901667D01*
X9904381Y-14863571D01*
X9913905Y-14844524D01*
X9923429Y-14835000D01*
X9942476Y-14825476D01*
X10094857Y-15006428D02*
X10104381Y-15015952D01*
X10094857Y-15025476D01*
X10085333Y-15015952D01*
X10094857Y-15006428D01*
X10094857Y-15025476D01*
X10294857Y-15025476D02*
X10180571Y-15025476D01*
X10237714Y-15025476D02*
X10237714Y-14825476D01*
X10218667Y-14854048D01*
X10199619Y-14873095D01*
X10180571Y-14882619D01*
X10485333Y-15025476D02*
X10371048Y-15025476D01*
X10428190Y-15025476D02*
X10428190Y-14825476D01*
X10409143Y-14854048D01*
X10390095Y-14873095D01*
X10371048Y-14882619D01*
X10599619Y-14911190D02*
X10580571Y-14901667D01*
X10571048Y-14892143D01*
X10561524Y-14873095D01*
X10561524Y-14863571D01*
X10571048Y-14844524D01*
X10580571Y-14835000D01*
X10599619Y-14825476D01*
X10637714Y-14825476D01*
X10656762Y-14835000D01*
X10666286Y-14844524D01*
X10675810Y-14863571D01*
X10675810Y-14873095D01*
X10666286Y-14892143D01*
X10656762Y-14901667D01*
X10637714Y-14911190D01*
X10599619Y-14911190D01*
X10580571Y-14920714D01*
X10571048Y-14930238D01*
X10561524Y-14949286D01*
X10561524Y-14987381D01*
X10571048Y-15006428D01*
X10580571Y-15015952D01*
X10599619Y-15025476D01*
X10637714Y-15025476D01*
X10656762Y-15015952D01*
X10666286Y-15006428D01*
X10675810Y-14987381D01*
X10675810Y-14949286D01*
X10666286Y-14930238D01*
X10656762Y-14920714D01*
X10637714Y-14911190D01*
X10866286Y-15025476D02*
X10752000Y-15025476D01*
X10809143Y-15025476D02*
X10809143Y-14825476D01*
X10790095Y-14854048D01*
X10771048Y-14873095D01*
X10752000Y-14882619D01*
X10942476Y-14825476D02*
X10942476Y-14863571D01*
X11018667Y-14825476D02*
X11018667Y-14863571D01*
X11313905Y-15101667D02*
X11304381Y-15092143D01*
X11285333Y-15063571D01*
X11275809Y-15044524D01*
X11266286Y-15015952D01*
X11256762Y-14968333D01*
X11256762Y-14930238D01*
X11266286Y-14882619D01*
X11275809Y-14854048D01*
X11285333Y-14835000D01*
X11304381Y-14806428D01*
X11313905Y-14796905D01*
X11494857Y-15025476D02*
X11380571Y-15025476D01*
X11437714Y-15025476D02*
X11437714Y-14825476D01*
X11418667Y-14854048D01*
X11399619Y-14873095D01*
X11380571Y-14882619D01*
X11732952Y-15025476D02*
X11732952Y-14825476D01*
X11818667Y-15025476D02*
X11818667Y-14920714D01*
X11809143Y-14901667D01*
X11790095Y-14892143D01*
X11761524Y-14892143D01*
X11742476Y-14901667D01*
X11732952Y-14911190D01*
X11942476Y-15025476D02*
X11923428Y-15015952D01*
X11913905Y-15006428D01*
X11904381Y-14987381D01*
X11904381Y-14930238D01*
X11913905Y-14911190D01*
X11923428Y-14901667D01*
X11942476Y-14892143D01*
X11971048Y-14892143D01*
X11990095Y-14901667D01*
X11999619Y-14911190D01*
X12009143Y-14930238D01*
X12009143Y-14987381D01*
X11999619Y-15006428D01*
X11990095Y-15015952D01*
X11971048Y-15025476D01*
X11942476Y-15025476D01*
X12123428Y-15025476D02*
X12104381Y-15015952D01*
X12094857Y-14996905D01*
X12094857Y-14825476D01*
X12275809Y-15015952D02*
X12256762Y-15025476D01*
X12218667Y-15025476D01*
X12199619Y-15015952D01*
X12190095Y-14996905D01*
X12190095Y-14920714D01*
X12199619Y-14901667D01*
X12218667Y-14892143D01*
X12256762Y-14892143D01*
X12275809Y-14901667D01*
X12285333Y-14920714D01*
X12285333Y-14939762D01*
X12190095Y-14958809D01*
X12352000Y-15101667D02*
X12361524Y-15092143D01*
X12380571Y-15063571D01*
X12390095Y-15044524D01*
X12399619Y-15015952D01*
X12409143Y-14968333D01*
X12409143Y-14930238D01*
X12399619Y-14882619D01*
X12390095Y-14854048D01*
X12380571Y-14835000D01*
X12361524Y-14806428D01*
X12352000Y-14796905D01*
X12713905Y-15101667D02*
X12704381Y-15092143D01*
X12685333Y-15063571D01*
X12675809Y-15044524D01*
X12666286Y-15015952D01*
X12656762Y-14968333D01*
X12656762Y-14930238D01*
X12666286Y-14882619D01*
X12675809Y-14854048D01*
X12685333Y-14835000D01*
X12704381Y-14806428D01*
X12713905Y-14796905D01*
X12790095Y-14892143D02*
X12790095Y-15025476D01*
X12790095Y-14911190D02*
X12799619Y-14901667D01*
X12818667Y-14892143D01*
X12847238Y-14892143D01*
X12866286Y-14901667D01*
X12875809Y-14920714D01*
X12875809Y-15025476D01*
X12999619Y-15025476D02*
X12980571Y-15015952D01*
X12971048Y-15006428D01*
X12961524Y-14987381D01*
X12961524Y-14930238D01*
X12971048Y-14911190D01*
X12980571Y-14901667D01*
X12999619Y-14892143D01*
X13028190Y-14892143D01*
X13047238Y-14901667D01*
X13056762Y-14911190D01*
X13066286Y-14930238D01*
X13066286Y-14987381D01*
X13056762Y-15006428D01*
X13047238Y-15015952D01*
X13028190Y-15025476D01*
X12999619Y-15025476D01*
X13123428Y-14892143D02*
X13199619Y-14892143D01*
X13152000Y-14825476D02*
X13152000Y-14996905D01*
X13161524Y-15015952D01*
X13180571Y-15025476D01*
X13199619Y-15025476D01*
X13418667Y-14892143D02*
X13418667Y-15092143D01*
X13418667Y-14901667D02*
X13437714Y-14892143D01*
X13475809Y-14892143D01*
X13494857Y-14901667D01*
X13504381Y-14911190D01*
X13513905Y-14930238D01*
X13513905Y-14987381D01*
X13504381Y-15006428D01*
X13494857Y-15015952D01*
X13475809Y-15025476D01*
X13437714Y-15025476D01*
X13418667Y-15015952D01*
X13628190Y-15025476D02*
X13609143Y-15015952D01*
X13599619Y-14996905D01*
X13599619Y-14825476D01*
X13790095Y-15025476D02*
X13790095Y-14920714D01*
X13780571Y-14901667D01*
X13761524Y-14892143D01*
X13723428Y-14892143D01*
X13704381Y-14901667D01*
X13790095Y-15015952D02*
X13771048Y-15025476D01*
X13723428Y-15025476D01*
X13704381Y-15015952D01*
X13694857Y-14996905D01*
X13694857Y-14977857D01*
X13704381Y-14958809D01*
X13723428Y-14949286D01*
X13771048Y-14949286D01*
X13790095Y-14939762D01*
X13856762Y-14892143D02*
X13932952Y-14892143D01*
X13885333Y-14825476D02*
X13885333Y-14996905D01*
X13894857Y-15015952D01*
X13913905Y-15025476D01*
X13932952Y-15025476D01*
X14075809Y-15015952D02*
X14056762Y-15025476D01*
X14018667Y-15025476D01*
X13999619Y-15015952D01*
X13990095Y-14996905D01*
X13990095Y-14920714D01*
X13999619Y-14901667D01*
X14018667Y-14892143D01*
X14056762Y-14892143D01*
X14075809Y-14901667D01*
X14085333Y-14920714D01*
X14085333Y-14939762D01*
X13990095Y-14958809D01*
X14256762Y-15025476D02*
X14256762Y-14825476D01*
X14256762Y-15015952D02*
X14237714Y-15025476D01*
X14199619Y-15025476D01*
X14180571Y-15015952D01*
X14171048Y-15006428D01*
X14161524Y-14987381D01*
X14161524Y-14930238D01*
X14171048Y-14911190D01*
X14180571Y-14901667D01*
X14199619Y-14892143D01*
X14237714Y-14892143D01*
X14256762Y-14901667D01*
X14332952Y-15101667D02*
X14342476Y-15092143D01*
X14361524Y-15063571D01*
X14371048Y-15044524D01*
X14380571Y-15015952D01*
X14390095Y-14968333D01*
X14390095Y-14930238D01*
X14380571Y-14882619D01*
X14371048Y-14854048D01*
X14361524Y-14835000D01*
X14342476Y-14806428D01*
X14332952Y-14796905D01*
M02*
