G04 #@! TF.GenerationSoftware,KiCad,Pcbnew,6.0.9-8da3e8f707~116~ubuntu20.04.1*
G04 #@! TF.CreationDate,2023-03-08T00:07:42+01:00*
G04 #@! TF.ProjectId,clocks_pmod,636c6f63-6b73-45f7-906d-6f642e6b6963,rev?*
G04 #@! TF.SameCoordinates,Original*
G04 #@! TF.FileFunction,Copper,L1,Top*
G04 #@! TF.FilePolarity,Positive*
%FSLAX46Y46*%
G04 Gerber Fmt 4.6, Leading zero omitted, Abs format (unit mm)*
G04 Created by KiCad (PCBNEW 6.0.9-8da3e8f707~116~ubuntu20.04.1) date 2023-03-08 00:07:42*
%MOMM*%
%LPD*%
G01*
G04 APERTURE LIST*
G04 Aperture macros list*
%AMRoundRect*
0 Rectangle with rounded corners*
0 $1 Rounding radius*
0 $2 $3 $4 $5 $6 $7 $8 $9 X,Y pos of 4 corners*
0 Add a 4 corners polygon primitive as box body*
4,1,4,$2,$3,$4,$5,$6,$7,$8,$9,$2,$3,0*
0 Add four circle primitives for the rounded corners*
1,1,$1+$1,$2,$3*
1,1,$1+$1,$4,$5*
1,1,$1+$1,$6,$7*
1,1,$1+$1,$8,$9*
0 Add four rect primitives between the rounded corners*
20,1,$1+$1,$2,$3,$4,$5,0*
20,1,$1+$1,$4,$5,$6,$7,0*
20,1,$1+$1,$6,$7,$8,$9,0*
20,1,$1+$1,$8,$9,$2,$3,0*%
G04 Aperture macros list end*
G04 #@! TA.AperFunction,ComponentPad*
%ADD10R,1.700000X1.700000*%
G04 #@! TD*
G04 #@! TA.AperFunction,ComponentPad*
%ADD11C,1.700000*%
G04 #@! TD*
G04 #@! TA.AperFunction,SMDPad,CuDef*
%ADD12RoundRect,0.237500X0.237500X-0.287500X0.237500X0.287500X-0.237500X0.287500X-0.237500X-0.287500X0*%
G04 #@! TD*
G04 #@! TA.AperFunction,ComponentPad*
%ADD13O,1.700000X1.700000*%
G04 #@! TD*
G04 #@! TA.AperFunction,ViaPad*
%ADD14C,0.800000*%
G04 #@! TD*
G04 #@! TA.AperFunction,Conductor*
%ADD15C,0.500000*%
G04 #@! TD*
G04 #@! TA.AperFunction,Conductor*
%ADD16C,0.250000*%
G04 #@! TD*
G04 APERTURE END LIST*
D10*
X81280000Y-105410000D03*
D11*
X81280000Y-102870000D03*
X81280000Y-100330000D03*
X81280000Y-97790000D03*
X81280000Y-95250000D03*
X81280000Y-92710000D03*
X81280000Y-90170000D03*
D10*
X80899000Y-116459000D03*
D11*
X80899000Y-118999000D03*
X80899000Y-121539000D03*
X80899000Y-124079000D03*
X80899000Y-126619000D03*
X80899000Y-129159000D03*
X80899000Y-131699000D03*
D12*
X99060000Y-73660000D03*
X99060000Y-71910000D03*
D10*
X81280000Y-73660000D03*
D13*
X81280000Y-71120000D03*
X83820000Y-73660000D03*
X83820000Y-71120000D03*
X86360000Y-73660000D03*
X86360000Y-71120000D03*
X88900000Y-73660000D03*
X88900000Y-71120000D03*
X91440000Y-73660000D03*
X91440000Y-71120000D03*
X93980000Y-73660000D03*
X93980000Y-71120000D03*
D10*
X85090000Y-78740000D03*
D13*
X82550000Y-78740000D03*
D10*
X96520000Y-78740000D03*
D13*
X93980000Y-78740000D03*
D14*
X100162400Y-71892200D03*
D15*
X83820000Y-71120000D02*
X83820000Y-69215000D01*
X83820000Y-69215000D02*
X84455000Y-68580000D01*
X84455000Y-68580000D02*
X94615000Y-68580000D01*
X94615000Y-68580000D02*
X95885000Y-69850000D01*
X95885000Y-69850000D02*
X95885000Y-72390000D01*
X95885000Y-72390000D02*
X97155000Y-73660000D01*
X97155000Y-73660000D02*
X99060000Y-73660000D01*
D16*
X80899000Y-116459000D02*
X80899000Y-115283700D01*
X85090000Y-111092700D02*
X80899000Y-115283700D01*
X85090000Y-78740000D02*
X85090000Y-111092700D01*
X93612600Y-72295300D02*
X93980000Y-72295300D01*
X92804700Y-73103200D02*
X93612600Y-72295300D01*
X92804700Y-76389400D02*
X92804700Y-73103200D01*
X93980000Y-77564700D02*
X92804700Y-76389400D01*
X93980000Y-78740000D02*
X93980000Y-77564700D01*
X93980000Y-71120000D02*
X93980000Y-72295300D01*
X95155300Y-76010600D02*
X93980000Y-74835300D01*
X95155300Y-114902700D02*
X95155300Y-76010600D01*
X80899000Y-129159000D02*
X95155300Y-114902700D01*
X93980000Y-73660000D02*
X93980000Y-74835300D01*
X91440000Y-113538000D02*
X80899000Y-124079000D01*
X91440000Y-73660000D02*
X91440000Y-113538000D01*
X83914700Y-97695300D02*
X81280000Y-100330000D01*
X83914700Y-76199900D02*
X83914700Y-97695300D01*
X85184700Y-74929900D02*
X83914700Y-76199900D01*
X85184700Y-73103200D02*
X85184700Y-74929900D01*
X85992600Y-72295300D02*
X85184700Y-73103200D01*
X86360000Y-72295300D02*
X85992600Y-72295300D01*
X86360000Y-71120000D02*
X86360000Y-72295300D01*
X79717800Y-125437800D02*
X80899000Y-126619000D01*
X79717800Y-118471500D02*
X79717800Y-125437800D01*
X80554900Y-117634400D02*
X79717800Y-118471500D01*
X81940500Y-117634400D02*
X80554900Y-117634400D01*
X86360000Y-113214900D02*
X81940500Y-117634400D01*
X86360000Y-73660000D02*
X86360000Y-113214900D01*
X99077800Y-71892200D02*
X100162400Y-71892200D01*
X99060000Y-71910000D02*
X99077800Y-71892200D01*
D15*
X83820000Y-73660000D02*
X83820000Y-71120000D01*
X79143000Y-77097300D02*
X81280000Y-74960300D01*
X79143000Y-103273000D02*
X79143000Y-77097300D01*
X81280000Y-105410000D02*
X79143000Y-103273000D01*
X81280000Y-73660000D02*
X81280000Y-71120000D01*
X81280000Y-73660000D02*
X81280000Y-74960300D01*
G04 #@! TA.AperFunction,Conductor*
G36*
X100972025Y-67311792D02*
G01*
X101016582Y-67316812D01*
X101018852Y-67317090D01*
X101060708Y-67322600D01*
X101100871Y-67327888D01*
X101126040Y-67333881D01*
X101178918Y-67352384D01*
X101185520Y-67354904D01*
X101247626Y-67380629D01*
X101266442Y-67390350D01*
X101316103Y-67421553D01*
X101325773Y-67428279D01*
X101377159Y-67467709D01*
X101389550Y-67478576D01*
X101431424Y-67520450D01*
X101442291Y-67532841D01*
X101481721Y-67584227D01*
X101488447Y-67593897D01*
X101519650Y-67643558D01*
X101529371Y-67662374D01*
X101555096Y-67724480D01*
X101557616Y-67731082D01*
X101576119Y-67783960D01*
X101582112Y-67809129D01*
X101592906Y-67891113D01*
X101593192Y-67893453D01*
X101598208Y-67937974D01*
X101599000Y-67952081D01*
X101599000Y-139057919D01*
X101598208Y-139072026D01*
X101593192Y-139116547D01*
X101592906Y-139118887D01*
X101582112Y-139200871D01*
X101576119Y-139226040D01*
X101557616Y-139278918D01*
X101555096Y-139285520D01*
X101529371Y-139347626D01*
X101519650Y-139366442D01*
X101488447Y-139416103D01*
X101481721Y-139425773D01*
X101442291Y-139477159D01*
X101431424Y-139489550D01*
X101389550Y-139531424D01*
X101377159Y-139542291D01*
X101325773Y-139581721D01*
X101316103Y-139588447D01*
X101266442Y-139619650D01*
X101247626Y-139629371D01*
X101185520Y-139655096D01*
X101178918Y-139657616D01*
X101126040Y-139676119D01*
X101100871Y-139682112D01*
X101060708Y-139687400D01*
X101018852Y-139692910D01*
X101016582Y-139693188D01*
X100972025Y-139698208D01*
X100957919Y-139699000D01*
X78112081Y-139699000D01*
X78097975Y-139698208D01*
X78053418Y-139693188D01*
X78051148Y-139692910D01*
X78009292Y-139687400D01*
X77969129Y-139682112D01*
X77943960Y-139676119D01*
X77891082Y-139657616D01*
X77884480Y-139655096D01*
X77822374Y-139629371D01*
X77803558Y-139619650D01*
X77753897Y-139588447D01*
X77744227Y-139581721D01*
X77692841Y-139542291D01*
X77680450Y-139531424D01*
X77638576Y-139489550D01*
X77627709Y-139477159D01*
X77588279Y-139425773D01*
X77581553Y-139416103D01*
X77550350Y-139366442D01*
X77540629Y-139347626D01*
X77514904Y-139285520D01*
X77512384Y-139278918D01*
X77493881Y-139226040D01*
X77487888Y-139200871D01*
X77477094Y-139118887D01*
X77476808Y-139116547D01*
X77471792Y-139072026D01*
X77471000Y-139057919D01*
X77471000Y-135616165D01*
X79781866Y-135616165D01*
X79816952Y-135873970D01*
X79889758Y-136123757D01*
X79998686Y-136360039D01*
X80001246Y-136363944D01*
X80001249Y-136363949D01*
X80138775Y-136573712D01*
X80138779Y-136573717D01*
X80141341Y-136577625D01*
X80314591Y-136771735D01*
X80514629Y-136938105D01*
X80737061Y-137073080D01*
X80741375Y-137074889D01*
X80741377Y-137074890D01*
X80972686Y-137171886D01*
X80972691Y-137171888D01*
X80977001Y-137173695D01*
X80981533Y-137174846D01*
X80981536Y-137174847D01*
X81106815Y-137206663D01*
X81229177Y-137237739D01*
X81445286Y-137259500D01*
X81600044Y-137259500D01*
X81602369Y-137259327D01*
X81602375Y-137259327D01*
X81788814Y-137245472D01*
X81788818Y-137245471D01*
X81793466Y-137245126D01*
X82047232Y-137187705D01*
X82051586Y-137186012D01*
X82285370Y-137095098D01*
X82285372Y-137095097D01*
X82289723Y-137093405D01*
X82325285Y-137073080D01*
X82373038Y-137045786D01*
X82515612Y-136964299D01*
X82719936Y-136803223D01*
X82898208Y-136613714D01*
X83046511Y-136399937D01*
X83064258Y-136363949D01*
X83159521Y-136170775D01*
X83159522Y-136170772D01*
X83161586Y-136166587D01*
X83240906Y-135918792D01*
X83282728Y-135661994D01*
X83286134Y-135401835D01*
X83251048Y-135144030D01*
X83178242Y-134894243D01*
X83069314Y-134657961D01*
X83040637Y-134614221D01*
X82929225Y-134444288D01*
X82929221Y-134444283D01*
X82926659Y-134440375D01*
X82753409Y-134246265D01*
X82553371Y-134079895D01*
X82330939Y-133944920D01*
X82326623Y-133943110D01*
X82095314Y-133846114D01*
X82095309Y-133846112D01*
X82090999Y-133844305D01*
X82086467Y-133843154D01*
X82086464Y-133843153D01*
X81961185Y-133811337D01*
X81838823Y-133780261D01*
X81622714Y-133758500D01*
X81467956Y-133758500D01*
X81465631Y-133758673D01*
X81465625Y-133758673D01*
X81279186Y-133772528D01*
X81279182Y-133772529D01*
X81274534Y-133772874D01*
X81020768Y-133830295D01*
X81016416Y-133831987D01*
X81016414Y-133831988D01*
X80782630Y-133922902D01*
X80782628Y-133922903D01*
X80778277Y-133924595D01*
X80774223Y-133926912D01*
X80774221Y-133926913D01*
X80738467Y-133947348D01*
X80552388Y-134053701D01*
X80348064Y-134214777D01*
X80169792Y-134404286D01*
X80021489Y-134618063D01*
X80019423Y-134622253D01*
X80019421Y-134622256D01*
X79999720Y-134662207D01*
X79906414Y-134851413D01*
X79827094Y-135099208D01*
X79785272Y-135356006D01*
X79781866Y-135616165D01*
X77471000Y-135616165D01*
X77471000Y-131684262D01*
X79843520Y-131684262D01*
X79860759Y-131889553D01*
X79917544Y-132087586D01*
X79920359Y-132093063D01*
X79920360Y-132093066D01*
X79941247Y-132133707D01*
X80011712Y-132270818D01*
X80139677Y-132432270D01*
X80296564Y-132565791D01*
X80476398Y-132666297D01*
X80571238Y-132697113D01*
X80666471Y-132728056D01*
X80666475Y-132728057D01*
X80672329Y-132729959D01*
X80876894Y-132754351D01*
X80883029Y-132753879D01*
X80883031Y-132753879D01*
X80939039Y-132749569D01*
X81082300Y-132738546D01*
X81088230Y-132736890D01*
X81088232Y-132736890D01*
X81274797Y-132684800D01*
X81274796Y-132684800D01*
X81280725Y-132683145D01*
X81286214Y-132680372D01*
X81286220Y-132680370D01*
X81459116Y-132593033D01*
X81464610Y-132590258D01*
X81626951Y-132463424D01*
X81761564Y-132307472D01*
X81782387Y-132270818D01*
X81860276Y-132133707D01*
X81863323Y-132128344D01*
X81928351Y-131932863D01*
X81954171Y-131728474D01*
X81954583Y-131699000D01*
X81934480Y-131493970D01*
X81874935Y-131296749D01*
X81778218Y-131114849D01*
X81704859Y-131024902D01*
X81651906Y-130959975D01*
X81651903Y-130959972D01*
X81648011Y-130955200D01*
X81630786Y-130940950D01*
X81494025Y-130827811D01*
X81494021Y-130827809D01*
X81489275Y-130823882D01*
X81308055Y-130725897D01*
X81111254Y-130664977D01*
X81105129Y-130664333D01*
X81105128Y-130664333D01*
X80912498Y-130644087D01*
X80912496Y-130644087D01*
X80906369Y-130643443D01*
X80819529Y-130651346D01*
X80707342Y-130661555D01*
X80707339Y-130661556D01*
X80701203Y-130662114D01*
X80503572Y-130720280D01*
X80321002Y-130815726D01*
X80316201Y-130819586D01*
X80316198Y-130819588D01*
X80305971Y-130827811D01*
X80160447Y-130944815D01*
X80028024Y-131102630D01*
X80025056Y-131108028D01*
X80025053Y-131108033D01*
X80018315Y-131120290D01*
X79928776Y-131283162D01*
X79866484Y-131479532D01*
X79865798Y-131485649D01*
X79865797Y-131485653D01*
X79844207Y-131678137D01*
X79843520Y-131684262D01*
X77471000Y-131684262D01*
X77471000Y-125466607D01*
X79388536Y-125466607D01*
X79391390Y-125477256D01*
X79398291Y-125503010D01*
X79400670Y-125513742D01*
X79407212Y-125550845D01*
X79412723Y-125560390D01*
X79413915Y-125563666D01*
X79415392Y-125566834D01*
X79418246Y-125577484D01*
X79424570Y-125586515D01*
X79439855Y-125608344D01*
X79445761Y-125617615D01*
X79457842Y-125638540D01*
X79464606Y-125650255D01*
X79473051Y-125657341D01*
X79493482Y-125674485D01*
X79501585Y-125681911D01*
X79897257Y-126077583D01*
X79931283Y-126139895D01*
X79928264Y-126204776D01*
X79866484Y-126399532D01*
X79865798Y-126405649D01*
X79865797Y-126405653D01*
X79844207Y-126598137D01*
X79843520Y-126604262D01*
X79860759Y-126809553D01*
X79917544Y-127007586D01*
X79920359Y-127013063D01*
X79920360Y-127013066D01*
X79941247Y-127053707D01*
X80011712Y-127190818D01*
X80139677Y-127352270D01*
X80296564Y-127485791D01*
X80476398Y-127586297D01*
X80571238Y-127617113D01*
X80666471Y-127648056D01*
X80666475Y-127648057D01*
X80672329Y-127649959D01*
X80876894Y-127674351D01*
X80883029Y-127673879D01*
X80883031Y-127673879D01*
X80939039Y-127669569D01*
X81082300Y-127658546D01*
X81088230Y-127656890D01*
X81088232Y-127656890D01*
X81274797Y-127604800D01*
X81274796Y-127604800D01*
X81280725Y-127603145D01*
X81286214Y-127600372D01*
X81286220Y-127600370D01*
X81459116Y-127513033D01*
X81464610Y-127510258D01*
X81626951Y-127383424D01*
X81761564Y-127227472D01*
X81782387Y-127190818D01*
X81860276Y-127053707D01*
X81863323Y-127048344D01*
X81928351Y-126852863D01*
X81954171Y-126648474D01*
X81954583Y-126619000D01*
X81934480Y-126413970D01*
X81874935Y-126216749D01*
X81778218Y-126034849D01*
X81704859Y-125944902D01*
X81651906Y-125879975D01*
X81651903Y-125879972D01*
X81648011Y-125875200D01*
X81643262Y-125871271D01*
X81494025Y-125747811D01*
X81494021Y-125747809D01*
X81489275Y-125743882D01*
X81308055Y-125645897D01*
X81111254Y-125584977D01*
X81105129Y-125584333D01*
X81105128Y-125584333D01*
X80912498Y-125564087D01*
X80912496Y-125564087D01*
X80906369Y-125563443D01*
X80819529Y-125571346D01*
X80707342Y-125581555D01*
X80707339Y-125581556D01*
X80701203Y-125582114D01*
X80503572Y-125640280D01*
X80498108Y-125643137D01*
X80493781Y-125644885D01*
X80423128Y-125651860D01*
X80357482Y-125617156D01*
X80080205Y-125339879D01*
X80046179Y-125277567D01*
X80043300Y-125250784D01*
X80043300Y-125002936D01*
X80063302Y-124934815D01*
X80116958Y-124888322D01*
X80187232Y-124878218D01*
X80250964Y-124906982D01*
X80296564Y-124945791D01*
X80476398Y-125046297D01*
X80571238Y-125077113D01*
X80666471Y-125108056D01*
X80666475Y-125108057D01*
X80672329Y-125109959D01*
X80876894Y-125134351D01*
X80883029Y-125133879D01*
X80883031Y-125133879D01*
X80939039Y-125129569D01*
X81082300Y-125118546D01*
X81088230Y-125116890D01*
X81088232Y-125116890D01*
X81274797Y-125064800D01*
X81274796Y-125064800D01*
X81280725Y-125063145D01*
X81286214Y-125060372D01*
X81286220Y-125060370D01*
X81459116Y-124973033D01*
X81464610Y-124970258D01*
X81626951Y-124843424D01*
X81761564Y-124687472D01*
X81863323Y-124508344D01*
X81928351Y-124312863D01*
X81954171Y-124108474D01*
X81954583Y-124079000D01*
X81934480Y-123873970D01*
X81874935Y-123676749D01*
X81873312Y-123673696D01*
X81865944Y-123604024D01*
X81900808Y-123537518D01*
X91656222Y-113782105D01*
X91664326Y-113774678D01*
X91684750Y-113757540D01*
X91693194Y-113750455D01*
X91698704Y-113740912D01*
X91698707Y-113740908D01*
X91712036Y-113717821D01*
X91717941Y-113708551D01*
X91733232Y-113686713D01*
X91739554Y-113677684D01*
X91742407Y-113667036D01*
X91743886Y-113663865D01*
X91745078Y-113660589D01*
X91750588Y-113651045D01*
X91757134Y-113613924D01*
X91759508Y-113603217D01*
X91769263Y-113566807D01*
X91765979Y-113529269D01*
X91765500Y-113518288D01*
X91765500Y-74750062D01*
X91785502Y-74681941D01*
X91834690Y-74637596D01*
X92000113Y-74554035D01*
X92000116Y-74554033D01*
X92005610Y-74551258D01*
X92167951Y-74424424D01*
X92173608Y-74417871D01*
X92257818Y-74320311D01*
X92317471Y-74281814D01*
X92388467Y-74281678D01*
X92448267Y-74319948D01*
X92477883Y-74384472D01*
X92479200Y-74402642D01*
X92479200Y-76369690D01*
X92478720Y-76380672D01*
X92475436Y-76418207D01*
X92478290Y-76428856D01*
X92485191Y-76454610D01*
X92487570Y-76465342D01*
X92494112Y-76502445D01*
X92499623Y-76511990D01*
X92500815Y-76515266D01*
X92502292Y-76518434D01*
X92505146Y-76529084D01*
X92511470Y-76538115D01*
X92526755Y-76559944D01*
X92532661Y-76569215D01*
X92545995Y-76592310D01*
X92551506Y-76601855D01*
X92559948Y-76608939D01*
X92580381Y-76626085D01*
X92588483Y-76633510D01*
X93549757Y-77594784D01*
X93583783Y-77657096D01*
X93578718Y-77727911D01*
X93536171Y-77784747D01*
X93519038Y-77795540D01*
X93464717Y-77823939D01*
X93402002Y-77856726D01*
X93397201Y-77860586D01*
X93397198Y-77860588D01*
X93373133Y-77879937D01*
X93241447Y-77985815D01*
X93109024Y-78143630D01*
X93106056Y-78149028D01*
X93106053Y-78149033D01*
X93012743Y-78318765D01*
X93009776Y-78324162D01*
X92947484Y-78520532D01*
X92946798Y-78526649D01*
X92946797Y-78526653D01*
X92941609Y-78572910D01*
X92924520Y-78725262D01*
X92941759Y-78930553D01*
X92998544Y-79128586D01*
X93001359Y-79134063D01*
X93001360Y-79134066D01*
X93089897Y-79306341D01*
X93092712Y-79311818D01*
X93220677Y-79473270D01*
X93225370Y-79477264D01*
X93225371Y-79477265D01*
X93332307Y-79568274D01*
X93377564Y-79606791D01*
X93557398Y-79707297D01*
X93641280Y-79734552D01*
X93747471Y-79769056D01*
X93747475Y-79769057D01*
X93753329Y-79770959D01*
X93957894Y-79795351D01*
X93964029Y-79794879D01*
X93964031Y-79794879D01*
X94036625Y-79789293D01*
X94163300Y-79779546D01*
X94169230Y-79777890D01*
X94169232Y-79777890D01*
X94355797Y-79725800D01*
X94355796Y-79725800D01*
X94361725Y-79724145D01*
X94367214Y-79721372D01*
X94367220Y-79721370D01*
X94540116Y-79634033D01*
X94545610Y-79631258D01*
X94550462Y-79627467D01*
X94550467Y-79627464D01*
X94626227Y-79568274D01*
X94692221Y-79542096D01*
X94761892Y-79555753D01*
X94813119Y-79604910D01*
X94829800Y-79667563D01*
X94829800Y-114715684D01*
X94809798Y-114783805D01*
X94792895Y-114804779D01*
X81440491Y-128157183D01*
X81378179Y-128191209D01*
X81308400Y-128184783D01*
X81308055Y-128185897D01*
X81302786Y-128184266D01*
X81111254Y-128124977D01*
X81105129Y-128124333D01*
X81105128Y-128124333D01*
X80912498Y-128104087D01*
X80912496Y-128104087D01*
X80906369Y-128103443D01*
X80819529Y-128111346D01*
X80707342Y-128121555D01*
X80707339Y-128121556D01*
X80701203Y-128122114D01*
X80503572Y-128180280D01*
X80498107Y-128183137D01*
X80494959Y-128184783D01*
X80321002Y-128275726D01*
X80316201Y-128279586D01*
X80316198Y-128279588D01*
X80165254Y-128400950D01*
X80160447Y-128404815D01*
X80028024Y-128562630D01*
X80025056Y-128568028D01*
X80025053Y-128568033D01*
X79961287Y-128684024D01*
X79928776Y-128743162D01*
X79866484Y-128939532D01*
X79865798Y-128945649D01*
X79865797Y-128945653D01*
X79844207Y-129138137D01*
X79843520Y-129144262D01*
X79860759Y-129349553D01*
X79917544Y-129547586D01*
X79920359Y-129553063D01*
X79920360Y-129553066D01*
X79941247Y-129593707D01*
X80011712Y-129730818D01*
X80139677Y-129892270D01*
X80296564Y-130025791D01*
X80476398Y-130126297D01*
X80571238Y-130157113D01*
X80666471Y-130188056D01*
X80666475Y-130188057D01*
X80672329Y-130189959D01*
X80876894Y-130214351D01*
X80883029Y-130213879D01*
X80883031Y-130213879D01*
X80939039Y-130209569D01*
X81082300Y-130198546D01*
X81088230Y-130196890D01*
X81088232Y-130196890D01*
X81274797Y-130144800D01*
X81274796Y-130144800D01*
X81280725Y-130143145D01*
X81286214Y-130140372D01*
X81286220Y-130140370D01*
X81459116Y-130053033D01*
X81464610Y-130050258D01*
X81626951Y-129923424D01*
X81761564Y-129767472D01*
X81782387Y-129730818D01*
X81860276Y-129593707D01*
X81863323Y-129588344D01*
X81928351Y-129392863D01*
X81954171Y-129188474D01*
X81954583Y-129159000D01*
X81934480Y-128953970D01*
X81874935Y-128756749D01*
X81873312Y-128753696D01*
X81865944Y-128684024D01*
X81900808Y-128617518D01*
X95371515Y-115146811D01*
X95379619Y-115139384D01*
X95400049Y-115122241D01*
X95408494Y-115115155D01*
X95415001Y-115103885D01*
X95427339Y-115082515D01*
X95433245Y-115073244D01*
X95434645Y-115071245D01*
X95454854Y-115042384D01*
X95457708Y-115031734D01*
X95459185Y-115028566D01*
X95460377Y-115025290D01*
X95465888Y-115015745D01*
X95472430Y-114978642D01*
X95474809Y-114967910D01*
X95484564Y-114931507D01*
X95481279Y-114893957D01*
X95480800Y-114882976D01*
X95480800Y-79910325D01*
X95500802Y-79842204D01*
X95554458Y-79795711D01*
X95631381Y-79786746D01*
X95650252Y-79790500D01*
X97389748Y-79790500D01*
X97408621Y-79786746D01*
X97436061Y-79781288D01*
X97436062Y-79781288D01*
X97448231Y-79778867D01*
X97514552Y-79734552D01*
X97558867Y-79668231D01*
X97565670Y-79634033D01*
X97569293Y-79615816D01*
X97570500Y-79609748D01*
X97570500Y-77870252D01*
X97558867Y-77811769D01*
X97514552Y-77745448D01*
X97448231Y-77701133D01*
X97436062Y-77698712D01*
X97436061Y-77698712D01*
X97395816Y-77690707D01*
X97389748Y-77689500D01*
X95650252Y-77689500D01*
X95631381Y-77693254D01*
X95560669Y-77686927D01*
X95504601Y-77643373D01*
X95480800Y-77569675D01*
X95480800Y-76030313D01*
X95481279Y-76019332D01*
X95483603Y-75992770D01*
X95483603Y-75992768D01*
X95484563Y-75981793D01*
X95474808Y-75945383D01*
X95472433Y-75934672D01*
X95467801Y-75908406D01*
X95465888Y-75897555D01*
X95460378Y-75888011D01*
X95459186Y-75884735D01*
X95457707Y-75881564D01*
X95454854Y-75870916D01*
X95433240Y-75840048D01*
X95427336Y-75830779D01*
X95414007Y-75807692D01*
X95414004Y-75807688D01*
X95408494Y-75798145D01*
X95379624Y-75773920D01*
X95371533Y-75766506D01*
X94410025Y-74804999D01*
X94376001Y-74742688D01*
X94381065Y-74671873D01*
X94423612Y-74615037D01*
X94442310Y-74603439D01*
X94540116Y-74554033D01*
X94545610Y-74551258D01*
X94707951Y-74424424D01*
X94713608Y-74417871D01*
X94838540Y-74273134D01*
X94838540Y-74273133D01*
X94842564Y-74268472D01*
X94863387Y-74231818D01*
X94893601Y-74178631D01*
X94944323Y-74089344D01*
X94976118Y-73993766D01*
X98077000Y-73993766D01*
X98077337Y-74000282D01*
X98087075Y-74094132D01*
X98089968Y-74107528D01*
X98140488Y-74258953D01*
X98146653Y-74272115D01*
X98230426Y-74407492D01*
X98239460Y-74418890D01*
X98352129Y-74531363D01*
X98363540Y-74540375D01*
X98499063Y-74623912D01*
X98512241Y-74630056D01*
X98663766Y-74680315D01*
X98677132Y-74683181D01*
X98769770Y-74692672D01*
X98776185Y-74693000D01*
X98787885Y-74693000D01*
X98803124Y-74688525D01*
X98804329Y-74687135D01*
X98806000Y-74679452D01*
X98806000Y-74674885D01*
X99314000Y-74674885D01*
X99318475Y-74690124D01*
X99319865Y-74691329D01*
X99327548Y-74693000D01*
X99343766Y-74693000D01*
X99350282Y-74692663D01*
X99444132Y-74682925D01*
X99457528Y-74680032D01*
X99608953Y-74629512D01*
X99622115Y-74623347D01*
X99757492Y-74539574D01*
X99768890Y-74530540D01*
X99881363Y-74417871D01*
X99890375Y-74406460D01*
X99973912Y-74270937D01*
X99980056Y-74257759D01*
X100030315Y-74106234D01*
X100033181Y-74092868D01*
X100042672Y-74000230D01*
X100043000Y-73993815D01*
X100043000Y-73932115D01*
X100038525Y-73916876D01*
X100037135Y-73915671D01*
X100029452Y-73914000D01*
X99332115Y-73914000D01*
X99316876Y-73918475D01*
X99315671Y-73919865D01*
X99314000Y-73927548D01*
X99314000Y-74674885D01*
X98806000Y-74674885D01*
X98806000Y-73932115D01*
X98801525Y-73916876D01*
X98800135Y-73915671D01*
X98792452Y-73914000D01*
X98095115Y-73914000D01*
X98079876Y-73918475D01*
X98078671Y-73919865D01*
X98077000Y-73927548D01*
X98077000Y-73993766D01*
X94976118Y-73993766D01*
X95009351Y-73893863D01*
X95035171Y-73689474D01*
X95035583Y-73660000D01*
X95015480Y-73454970D01*
X94995226Y-73387885D01*
X98077000Y-73387885D01*
X98081475Y-73403124D01*
X98082865Y-73404329D01*
X98090548Y-73406000D01*
X100024885Y-73406000D01*
X100040124Y-73401525D01*
X100041329Y-73400135D01*
X100043000Y-73392452D01*
X100043000Y-73326234D01*
X100042663Y-73319718D01*
X100032925Y-73225868D01*
X100030032Y-73212472D01*
X99979512Y-73061047D01*
X99973347Y-73047885D01*
X99889574Y-72912508D01*
X99880540Y-72901110D01*
X99767871Y-72788637D01*
X99756460Y-72779625D01*
X99634394Y-72704383D01*
X99586901Y-72651611D01*
X99575477Y-72581539D01*
X99603751Y-72516416D01*
X99605337Y-72514680D01*
X99610711Y-72510711D01*
X99647752Y-72460561D01*
X99668787Y-72432082D01*
X99725349Y-72389171D01*
X99796130Y-72383651D01*
X99846846Y-72406981D01*
X99848624Y-72408345D01*
X99859559Y-72416736D01*
X100005638Y-72477244D01*
X100013826Y-72478322D01*
X100047187Y-72482714D01*
X100162400Y-72497882D01*
X100170588Y-72496804D01*
X100310974Y-72478322D01*
X100319162Y-72477244D01*
X100465241Y-72416736D01*
X100590682Y-72320482D01*
X100686936Y-72195041D01*
X100747444Y-72048962D01*
X100768082Y-71892200D01*
X100747444Y-71735438D01*
X100686936Y-71589359D01*
X100590682Y-71463918D01*
X100465241Y-71367664D01*
X100319162Y-71307156D01*
X100162400Y-71286518D01*
X100005638Y-71307156D01*
X99859559Y-71367664D01*
X99853008Y-71372691D01*
X99853004Y-71372693D01*
X99830059Y-71390299D01*
X99763839Y-71415899D01*
X99694290Y-71401634D01*
X99652005Y-71365195D01*
X99616307Y-71316864D01*
X99616303Y-71316860D01*
X99610711Y-71309289D01*
X99579881Y-71286518D01*
X99512345Y-71236635D01*
X99512343Y-71236634D01*
X99504768Y-71231039D01*
X99495881Y-71227918D01*
X99495879Y-71227917D01*
X99387748Y-71189944D01*
X99387746Y-71189943D01*
X99380500Y-71187399D01*
X99372856Y-71186676D01*
X99372854Y-71186676D01*
X99364879Y-71185922D01*
X99349833Y-71184500D01*
X99060147Y-71184500D01*
X98770168Y-71184501D01*
X98767218Y-71184780D01*
X98767213Y-71184780D01*
X98747150Y-71186676D01*
X98747149Y-71186676D01*
X98739500Y-71187399D01*
X98732252Y-71189944D01*
X98732249Y-71189945D01*
X98624121Y-71227917D01*
X98624119Y-71227918D01*
X98615232Y-71231039D01*
X98607657Y-71236634D01*
X98607655Y-71236635D01*
X98540119Y-71286518D01*
X98509289Y-71309289D01*
X98503697Y-71316860D01*
X98439461Y-71403830D01*
X98431039Y-71415232D01*
X98427918Y-71424119D01*
X98427917Y-71424121D01*
X98389944Y-71532252D01*
X98387399Y-71539500D01*
X98384500Y-71570167D01*
X98384501Y-72249832D01*
X98387399Y-72280500D01*
X98389944Y-72287748D01*
X98389945Y-72287751D01*
X98425562Y-72389171D01*
X98431039Y-72404768D01*
X98436634Y-72412343D01*
X98436635Y-72412345D01*
X98472248Y-72460561D01*
X98509289Y-72510711D01*
X98510503Y-72511608D01*
X98542530Y-72570259D01*
X98537465Y-72641074D01*
X98494918Y-72697910D01*
X98485711Y-72704187D01*
X98362508Y-72780427D01*
X98351110Y-72789460D01*
X98238637Y-72902129D01*
X98229625Y-72913540D01*
X98146088Y-73049063D01*
X98139944Y-73062241D01*
X98089685Y-73213766D01*
X98086819Y-73227132D01*
X98077328Y-73319770D01*
X98077000Y-73326185D01*
X98077000Y-73387885D01*
X94995226Y-73387885D01*
X94955935Y-73257749D01*
X94859218Y-73075849D01*
X94760236Y-72954485D01*
X94732906Y-72920975D01*
X94732903Y-72920972D01*
X94729011Y-72916200D01*
X94711786Y-72901950D01*
X94575025Y-72788811D01*
X94575021Y-72788809D01*
X94570275Y-72784882D01*
X94389055Y-72686897D01*
X94339684Y-72671614D01*
X94321968Y-72666130D01*
X94262808Y-72626879D01*
X94234261Y-72561874D01*
X94245390Y-72491755D01*
X94253803Y-72478645D01*
X94253643Y-72478552D01*
X94259157Y-72469002D01*
X94266240Y-72460561D01*
X94270008Y-72450208D01*
X94270011Y-72450203D01*
X94272363Y-72443740D01*
X94281644Y-72423836D01*
X94285076Y-72417892D01*
X94290588Y-72408345D01*
X94292502Y-72397491D01*
X94292504Y-72397485D01*
X94293696Y-72390724D01*
X94299378Y-72369516D01*
X94301730Y-72363052D01*
X94305500Y-72352694D01*
X94305500Y-72210062D01*
X94325502Y-72141941D01*
X94374690Y-72097596D01*
X94540113Y-72014035D01*
X94540116Y-72014033D01*
X94545610Y-72011258D01*
X94561345Y-71998965D01*
X94703101Y-71888213D01*
X94707951Y-71884424D01*
X94765992Y-71817183D01*
X94838540Y-71733134D01*
X94838540Y-71733133D01*
X94842564Y-71728472D01*
X94863387Y-71691818D01*
X94881056Y-71660714D01*
X94944323Y-71549344D01*
X95009351Y-71353863D01*
X95035171Y-71149474D01*
X95035583Y-71120000D01*
X95015480Y-70914970D01*
X94955935Y-70717749D01*
X94859218Y-70535849D01*
X94783206Y-70442649D01*
X94732906Y-70380975D01*
X94732903Y-70380972D01*
X94729011Y-70376200D01*
X94711786Y-70361950D01*
X94575025Y-70248811D01*
X94575021Y-70248809D01*
X94570275Y-70244882D01*
X94389055Y-70146897D01*
X94192254Y-70085977D01*
X94186129Y-70085333D01*
X94186128Y-70085333D01*
X93993498Y-70065087D01*
X93993496Y-70065087D01*
X93987369Y-70064443D01*
X93900529Y-70072346D01*
X93788342Y-70082555D01*
X93788339Y-70082556D01*
X93782203Y-70083114D01*
X93584572Y-70141280D01*
X93402002Y-70236726D01*
X93397201Y-70240586D01*
X93397198Y-70240588D01*
X93364688Y-70266727D01*
X93241447Y-70365815D01*
X93109024Y-70523630D01*
X93106056Y-70529028D01*
X93106053Y-70529033D01*
X93099315Y-70541290D01*
X93009776Y-70704162D01*
X92947484Y-70900532D01*
X92946798Y-70906649D01*
X92946797Y-70906653D01*
X92925207Y-71099137D01*
X92924520Y-71105262D01*
X92925036Y-71111406D01*
X92939741Y-71286518D01*
X92941759Y-71310553D01*
X92943458Y-71316478D01*
X92989395Y-71476678D01*
X92998544Y-71508586D01*
X93001359Y-71514063D01*
X93001360Y-71514066D01*
X93089897Y-71686341D01*
X93092712Y-71691818D01*
X93220677Y-71853270D01*
X93225370Y-71857264D01*
X93225371Y-71857265D01*
X93318537Y-71936556D01*
X93357450Y-71995939D01*
X93358081Y-72066933D01*
X93325969Y-72121605D01*
X92588485Y-72859089D01*
X92580381Y-72866516D01*
X92551506Y-72890745D01*
X92545993Y-72900294D01*
X92532661Y-72923385D01*
X92526755Y-72932656D01*
X92505146Y-72963516D01*
X92502291Y-72974169D01*
X92500819Y-72977327D01*
X92499626Y-72980605D01*
X92494112Y-72990155D01*
X92493373Y-72994344D01*
X92453753Y-73048154D01*
X92387431Y-73073491D01*
X92317940Y-73058950D01*
X92279804Y-73027523D01*
X92192906Y-72920975D01*
X92192903Y-72920972D01*
X92189011Y-72916200D01*
X92171786Y-72901950D01*
X92035025Y-72788811D01*
X92035021Y-72788809D01*
X92030275Y-72784882D01*
X91849055Y-72686897D01*
X91652254Y-72625977D01*
X91646129Y-72625333D01*
X91646128Y-72625333D01*
X91453498Y-72605087D01*
X91453496Y-72605087D01*
X91447369Y-72604443D01*
X91362263Y-72612188D01*
X91248342Y-72622555D01*
X91248339Y-72622556D01*
X91242203Y-72623114D01*
X91044572Y-72681280D01*
X90862002Y-72776726D01*
X90857201Y-72780586D01*
X90857198Y-72780588D01*
X90720190Y-72890745D01*
X90701447Y-72905815D01*
X90569024Y-73063630D01*
X90566056Y-73069028D01*
X90566053Y-73069033D01*
X90487198Y-73212472D01*
X90469776Y-73244162D01*
X90407484Y-73440532D01*
X90406798Y-73446649D01*
X90406797Y-73446653D01*
X90401609Y-73492910D01*
X90384520Y-73645262D01*
X90401759Y-73850553D01*
X90403458Y-73856478D01*
X90442839Y-73993815D01*
X90458544Y-74048586D01*
X90461359Y-74054063D01*
X90461360Y-74054066D01*
X90536025Y-74199348D01*
X90552712Y-74231818D01*
X90680677Y-74393270D01*
X90685370Y-74397264D01*
X90685371Y-74397265D01*
X90775938Y-74474343D01*
X90837564Y-74526791D01*
X90842942Y-74529797D01*
X90842944Y-74529798D01*
X90874563Y-74547469D01*
X91017398Y-74627297D01*
X91025890Y-74630056D01*
X91027441Y-74630560D01*
X91086045Y-74670636D01*
X91113679Y-74736034D01*
X91114500Y-74750392D01*
X91114500Y-113350983D01*
X91094498Y-113419104D01*
X91077595Y-113440078D01*
X82386219Y-122131454D01*
X82323907Y-122165480D01*
X82253092Y-122160415D01*
X82196256Y-122117868D01*
X82171445Y-122051348D01*
X82176566Y-122005730D01*
X82229376Y-121831915D01*
X82231555Y-121821834D01*
X82259590Y-121608887D01*
X82260109Y-121602212D01*
X82261572Y-121542364D01*
X82261378Y-121535646D01*
X82243781Y-121321604D01*
X82242096Y-121311424D01*
X82190214Y-121104875D01*
X82186894Y-121095124D01*
X82101972Y-120899814D01*
X82097105Y-120890739D01*
X82032063Y-120790197D01*
X82021377Y-120780995D01*
X82011812Y-120785398D01*
X80988095Y-121809115D01*
X80925783Y-121843141D01*
X80854968Y-121838076D01*
X80809905Y-121809115D01*
X80628885Y-121628095D01*
X80594859Y-121565783D01*
X80599924Y-121494968D01*
X80628885Y-121449905D01*
X81652389Y-120426401D01*
X81659410Y-120413544D01*
X81652611Y-120404213D01*
X81648554Y-120401518D01*
X81462117Y-120298599D01*
X81452705Y-120294369D01*
X81261031Y-120226493D01*
X81203495Y-120184899D01*
X81177579Y-120118801D01*
X81191513Y-120049185D01*
X81240872Y-119998154D01*
X81269206Y-119986362D01*
X81274790Y-119984803D01*
X81274799Y-119984800D01*
X81280725Y-119983145D01*
X81286214Y-119980372D01*
X81286220Y-119980370D01*
X81459116Y-119893033D01*
X81464610Y-119890258D01*
X81626951Y-119763424D01*
X81761564Y-119607472D01*
X81863323Y-119428344D01*
X81928351Y-119232863D01*
X81954171Y-119028474D01*
X81954583Y-118999000D01*
X81934480Y-118793970D01*
X81874935Y-118596749D01*
X81778218Y-118414849D01*
X81658935Y-118268594D01*
X81651906Y-118259975D01*
X81651903Y-118259972D01*
X81648011Y-118255200D01*
X81623380Y-118234823D01*
X81560718Y-118182985D01*
X81520979Y-118124151D01*
X81519357Y-118053173D01*
X81556367Y-117992586D01*
X81620257Y-117961625D01*
X81641033Y-117959900D01*
X81920790Y-117959900D01*
X81931772Y-117960380D01*
X81958320Y-117962703D01*
X81958322Y-117962703D01*
X81969307Y-117963664D01*
X82005715Y-117953908D01*
X82016442Y-117951530D01*
X82019801Y-117950938D01*
X82053545Y-117944988D01*
X82063090Y-117939477D01*
X82066366Y-117938285D01*
X82069534Y-117936808D01*
X82080184Y-117933954D01*
X82111044Y-117912345D01*
X82120315Y-117906439D01*
X82143406Y-117893107D01*
X82152955Y-117887594D01*
X82177185Y-117858717D01*
X82184611Y-117850615D01*
X86576215Y-113459011D01*
X86584319Y-113451584D01*
X86604749Y-113434441D01*
X86613194Y-113427355D01*
X86618707Y-113417806D01*
X86632039Y-113394715D01*
X86637945Y-113385444D01*
X86653230Y-113363615D01*
X86659554Y-113354584D01*
X86662408Y-113343934D01*
X86663885Y-113340766D01*
X86665077Y-113337490D01*
X86670588Y-113327945D01*
X86677130Y-113290842D01*
X86679509Y-113280110D01*
X86689264Y-113243707D01*
X86685979Y-113206157D01*
X86685500Y-113195176D01*
X86685500Y-74750062D01*
X86705502Y-74681941D01*
X86754690Y-74637596D01*
X86920113Y-74554035D01*
X86920116Y-74554033D01*
X86925610Y-74551258D01*
X87087951Y-74424424D01*
X87093608Y-74417871D01*
X87218540Y-74273134D01*
X87218540Y-74273133D01*
X87222564Y-74268472D01*
X87243387Y-74231818D01*
X87273601Y-74178631D01*
X87324323Y-74089344D01*
X87389351Y-73893863D01*
X87415171Y-73689474D01*
X87415583Y-73660000D01*
X87414138Y-73645262D01*
X87844520Y-73645262D01*
X87861759Y-73850553D01*
X87863458Y-73856478D01*
X87902839Y-73993815D01*
X87918544Y-74048586D01*
X87921359Y-74054063D01*
X87921360Y-74054066D01*
X87996025Y-74199348D01*
X88012712Y-74231818D01*
X88140677Y-74393270D01*
X88145370Y-74397264D01*
X88145371Y-74397265D01*
X88235938Y-74474343D01*
X88297564Y-74526791D01*
X88302942Y-74529797D01*
X88302944Y-74529798D01*
X88334563Y-74547469D01*
X88477398Y-74627297D01*
X88561280Y-74654552D01*
X88667471Y-74689056D01*
X88667475Y-74689057D01*
X88673329Y-74690959D01*
X88877894Y-74715351D01*
X88884029Y-74714879D01*
X88884031Y-74714879D01*
X88956625Y-74709293D01*
X89083300Y-74699546D01*
X89089230Y-74697890D01*
X89089232Y-74697890D01*
X89275797Y-74645800D01*
X89275796Y-74645800D01*
X89281725Y-74644145D01*
X89287214Y-74641372D01*
X89287220Y-74641370D01*
X89460116Y-74554033D01*
X89465610Y-74551258D01*
X89627951Y-74424424D01*
X89633608Y-74417871D01*
X89758540Y-74273134D01*
X89758540Y-74273133D01*
X89762564Y-74268472D01*
X89783387Y-74231818D01*
X89813601Y-74178631D01*
X89864323Y-74089344D01*
X89929351Y-73893863D01*
X89955171Y-73689474D01*
X89955583Y-73660000D01*
X89935480Y-73454970D01*
X89875935Y-73257749D01*
X89779218Y-73075849D01*
X89680236Y-72954485D01*
X89652906Y-72920975D01*
X89652903Y-72920972D01*
X89649011Y-72916200D01*
X89631786Y-72901950D01*
X89495025Y-72788811D01*
X89495021Y-72788809D01*
X89490275Y-72784882D01*
X89309055Y-72686897D01*
X89112254Y-72625977D01*
X89106129Y-72625333D01*
X89106128Y-72625333D01*
X88913498Y-72605087D01*
X88913496Y-72605087D01*
X88907369Y-72604443D01*
X88822263Y-72612188D01*
X88708342Y-72622555D01*
X88708339Y-72622556D01*
X88702203Y-72623114D01*
X88504572Y-72681280D01*
X88322002Y-72776726D01*
X88317201Y-72780586D01*
X88317198Y-72780588D01*
X88180190Y-72890745D01*
X88161447Y-72905815D01*
X88029024Y-73063630D01*
X88026056Y-73069028D01*
X88026053Y-73069033D01*
X87947198Y-73212472D01*
X87929776Y-73244162D01*
X87867484Y-73440532D01*
X87866798Y-73446649D01*
X87866797Y-73446653D01*
X87861609Y-73492910D01*
X87844520Y-73645262D01*
X87414138Y-73645262D01*
X87395480Y-73454970D01*
X87335935Y-73257749D01*
X87239218Y-73075849D01*
X87140236Y-72954485D01*
X87112906Y-72920975D01*
X87112903Y-72920972D01*
X87109011Y-72916200D01*
X87091786Y-72901950D01*
X86955025Y-72788811D01*
X86955021Y-72788809D01*
X86950275Y-72784882D01*
X86769055Y-72686897D01*
X86719684Y-72671614D01*
X86701968Y-72666130D01*
X86642808Y-72626879D01*
X86614261Y-72561874D01*
X86625390Y-72491755D01*
X86633803Y-72478645D01*
X86633643Y-72478552D01*
X86639157Y-72469002D01*
X86646240Y-72460561D01*
X86650008Y-72450208D01*
X86650011Y-72450203D01*
X86652363Y-72443740D01*
X86661644Y-72423836D01*
X86665076Y-72417892D01*
X86670588Y-72408345D01*
X86672502Y-72397491D01*
X86672504Y-72397485D01*
X86673696Y-72390724D01*
X86679378Y-72369516D01*
X86681730Y-72363052D01*
X86685500Y-72352694D01*
X86685500Y-72210062D01*
X86705502Y-72141941D01*
X86754690Y-72097596D01*
X86920113Y-72014035D01*
X86920116Y-72014033D01*
X86925610Y-72011258D01*
X86941345Y-71998965D01*
X87083101Y-71888213D01*
X87087951Y-71884424D01*
X87145992Y-71817183D01*
X87218540Y-71733134D01*
X87218540Y-71733133D01*
X87222564Y-71728472D01*
X87243387Y-71691818D01*
X87261056Y-71660714D01*
X87324323Y-71549344D01*
X87389351Y-71353863D01*
X87415171Y-71149474D01*
X87415583Y-71120000D01*
X87414138Y-71105262D01*
X87844520Y-71105262D01*
X87845036Y-71111406D01*
X87859741Y-71286518D01*
X87861759Y-71310553D01*
X87863458Y-71316478D01*
X87909395Y-71476678D01*
X87918544Y-71508586D01*
X87921359Y-71514063D01*
X87921360Y-71514066D01*
X88009897Y-71686341D01*
X88012712Y-71691818D01*
X88140677Y-71853270D01*
X88145370Y-71857264D01*
X88145371Y-71857265D01*
X88219541Y-71920388D01*
X88297564Y-71986791D01*
X88302942Y-71989797D01*
X88302944Y-71989798D01*
X88333387Y-72006812D01*
X88477398Y-72087297D01*
X88572238Y-72118113D01*
X88667471Y-72149056D01*
X88667475Y-72149057D01*
X88673329Y-72150959D01*
X88877894Y-72175351D01*
X88884029Y-72174879D01*
X88884031Y-72174879D01*
X88940039Y-72170569D01*
X89083300Y-72159546D01*
X89089230Y-72157890D01*
X89089232Y-72157890D01*
X89275797Y-72105800D01*
X89275796Y-72105800D01*
X89281725Y-72104145D01*
X89287214Y-72101372D01*
X89287220Y-72101370D01*
X89460116Y-72014033D01*
X89465610Y-72011258D01*
X89481345Y-71998965D01*
X89623101Y-71888213D01*
X89627951Y-71884424D01*
X89685992Y-71817183D01*
X89758540Y-71733134D01*
X89758540Y-71733133D01*
X89762564Y-71728472D01*
X89783387Y-71691818D01*
X89801056Y-71660714D01*
X89864323Y-71549344D01*
X89929351Y-71353863D01*
X89955171Y-71149474D01*
X89955583Y-71120000D01*
X89954138Y-71105262D01*
X90384520Y-71105262D01*
X90385036Y-71111406D01*
X90399741Y-71286518D01*
X90401759Y-71310553D01*
X90403458Y-71316478D01*
X90449395Y-71476678D01*
X90458544Y-71508586D01*
X90461359Y-71514063D01*
X90461360Y-71514066D01*
X90549897Y-71686341D01*
X90552712Y-71691818D01*
X90680677Y-71853270D01*
X90685370Y-71857264D01*
X90685371Y-71857265D01*
X90759541Y-71920388D01*
X90837564Y-71986791D01*
X90842942Y-71989797D01*
X90842944Y-71989798D01*
X90873387Y-72006812D01*
X91017398Y-72087297D01*
X91112238Y-72118113D01*
X91207471Y-72149056D01*
X91207475Y-72149057D01*
X91213329Y-72150959D01*
X91417894Y-72175351D01*
X91424029Y-72174879D01*
X91424031Y-72174879D01*
X91480039Y-72170569D01*
X91623300Y-72159546D01*
X91629230Y-72157890D01*
X91629232Y-72157890D01*
X91815797Y-72105800D01*
X91815796Y-72105800D01*
X91821725Y-72104145D01*
X91827214Y-72101372D01*
X91827220Y-72101370D01*
X92000116Y-72014033D01*
X92005610Y-72011258D01*
X92021345Y-71998965D01*
X92163101Y-71888213D01*
X92167951Y-71884424D01*
X92225992Y-71817183D01*
X92298540Y-71733134D01*
X92298540Y-71733133D01*
X92302564Y-71728472D01*
X92323387Y-71691818D01*
X92341056Y-71660714D01*
X92404323Y-71549344D01*
X92469351Y-71353863D01*
X92495171Y-71149474D01*
X92495583Y-71120000D01*
X92475480Y-70914970D01*
X92415935Y-70717749D01*
X92319218Y-70535849D01*
X92243206Y-70442649D01*
X92192906Y-70380975D01*
X92192903Y-70380972D01*
X92189011Y-70376200D01*
X92171786Y-70361950D01*
X92035025Y-70248811D01*
X92035021Y-70248809D01*
X92030275Y-70244882D01*
X91849055Y-70146897D01*
X91652254Y-70085977D01*
X91646129Y-70085333D01*
X91646128Y-70085333D01*
X91453498Y-70065087D01*
X91453496Y-70065087D01*
X91447369Y-70064443D01*
X91360529Y-70072346D01*
X91248342Y-70082555D01*
X91248339Y-70082556D01*
X91242203Y-70083114D01*
X91044572Y-70141280D01*
X90862002Y-70236726D01*
X90857201Y-70240586D01*
X90857198Y-70240588D01*
X90824688Y-70266727D01*
X90701447Y-70365815D01*
X90569024Y-70523630D01*
X90566056Y-70529028D01*
X90566053Y-70529033D01*
X90559315Y-70541290D01*
X90469776Y-70704162D01*
X90407484Y-70900532D01*
X90406798Y-70906649D01*
X90406797Y-70906653D01*
X90385207Y-71099137D01*
X90384520Y-71105262D01*
X89954138Y-71105262D01*
X89935480Y-70914970D01*
X89875935Y-70717749D01*
X89779218Y-70535849D01*
X89703206Y-70442649D01*
X89652906Y-70380975D01*
X89652903Y-70380972D01*
X89649011Y-70376200D01*
X89631786Y-70361950D01*
X89495025Y-70248811D01*
X89495021Y-70248809D01*
X89490275Y-70244882D01*
X89309055Y-70146897D01*
X89112254Y-70085977D01*
X89106129Y-70085333D01*
X89106128Y-70085333D01*
X88913498Y-70065087D01*
X88913496Y-70065087D01*
X88907369Y-70064443D01*
X88820529Y-70072346D01*
X88708342Y-70082555D01*
X88708339Y-70082556D01*
X88702203Y-70083114D01*
X88504572Y-70141280D01*
X88322002Y-70236726D01*
X88317201Y-70240586D01*
X88317198Y-70240588D01*
X88284688Y-70266727D01*
X88161447Y-70365815D01*
X88029024Y-70523630D01*
X88026056Y-70529028D01*
X88026053Y-70529033D01*
X88019315Y-70541290D01*
X87929776Y-70704162D01*
X87867484Y-70900532D01*
X87866798Y-70906649D01*
X87866797Y-70906653D01*
X87845207Y-71099137D01*
X87844520Y-71105262D01*
X87414138Y-71105262D01*
X87395480Y-70914970D01*
X87335935Y-70717749D01*
X87239218Y-70535849D01*
X87163206Y-70442649D01*
X87112906Y-70380975D01*
X87112903Y-70380972D01*
X87109011Y-70376200D01*
X87091786Y-70361950D01*
X86955025Y-70248811D01*
X86955021Y-70248809D01*
X86950275Y-70244882D01*
X86769055Y-70146897D01*
X86572254Y-70085977D01*
X86566129Y-70085333D01*
X86566128Y-70085333D01*
X86373498Y-70065087D01*
X86373496Y-70065087D01*
X86367369Y-70064443D01*
X86280529Y-70072346D01*
X86168342Y-70082555D01*
X86168339Y-70082556D01*
X86162203Y-70083114D01*
X85964572Y-70141280D01*
X85782002Y-70236726D01*
X85777201Y-70240586D01*
X85777198Y-70240588D01*
X85744688Y-70266727D01*
X85621447Y-70365815D01*
X85489024Y-70523630D01*
X85486056Y-70529028D01*
X85486053Y-70529033D01*
X85479315Y-70541290D01*
X85389776Y-70704162D01*
X85387914Y-70710032D01*
X85371068Y-70763138D01*
X85331405Y-70822022D01*
X85266202Y-70850114D01*
X85196163Y-70838497D01*
X85143523Y-70790857D01*
X85128762Y-70755735D01*
X85111214Y-70685875D01*
X85107894Y-70676124D01*
X85022972Y-70480814D01*
X85018105Y-70471739D01*
X84902426Y-70292926D01*
X84896136Y-70284757D01*
X84752806Y-70127240D01*
X84745273Y-70120215D01*
X84578139Y-69988222D01*
X84569552Y-69982517D01*
X84383117Y-69879599D01*
X84373705Y-69875369D01*
X84172959Y-69804280D01*
X84162988Y-69801646D01*
X84091837Y-69788972D01*
X84078540Y-69790432D01*
X84074000Y-69804989D01*
X84074000Y-74978517D01*
X84078064Y-74992359D01*
X84091478Y-74994393D01*
X84098184Y-74993534D01*
X84108262Y-74991392D01*
X84312255Y-74930191D01*
X84321842Y-74926433D01*
X84437944Y-74869555D01*
X84507918Y-74857548D01*
X84573275Y-74885278D01*
X84613265Y-74943941D01*
X84615192Y-75014911D01*
X84582474Y-75071799D01*
X83698473Y-75955801D01*
X83690381Y-75963216D01*
X83661506Y-75987445D01*
X83655993Y-75996994D01*
X83642661Y-76020085D01*
X83636755Y-76029356D01*
X83615146Y-76060216D01*
X83612292Y-76070866D01*
X83610815Y-76074034D01*
X83609623Y-76077310D01*
X83604112Y-76086855D01*
X83600292Y-76108522D01*
X83597570Y-76123958D01*
X83595192Y-76134685D01*
X83585436Y-76171093D01*
X83586397Y-76182078D01*
X83586397Y-76182080D01*
X83588720Y-76208628D01*
X83589200Y-76219610D01*
X83589200Y-77998157D01*
X83569198Y-78066278D01*
X83515542Y-78112771D01*
X83445268Y-78122875D01*
X83380688Y-78093381D01*
X83365557Y-78077793D01*
X83302906Y-78000975D01*
X83302903Y-78000972D01*
X83299011Y-77996200D01*
X83281786Y-77981950D01*
X83145025Y-77868811D01*
X83145021Y-77868809D01*
X83140275Y-77864882D01*
X82959055Y-77766897D01*
X82762254Y-77705977D01*
X82756129Y-77705333D01*
X82756128Y-77705333D01*
X82563498Y-77685087D01*
X82563496Y-77685087D01*
X82557369Y-77684443D01*
X82470529Y-77692346D01*
X82358342Y-77702555D01*
X82358339Y-77702556D01*
X82352203Y-77703114D01*
X82154572Y-77761280D01*
X81972002Y-77856726D01*
X81967201Y-77860586D01*
X81967198Y-77860588D01*
X81943133Y-77879937D01*
X81811447Y-77985815D01*
X81679024Y-78143630D01*
X81676056Y-78149028D01*
X81676053Y-78149033D01*
X81582743Y-78318765D01*
X81579776Y-78324162D01*
X81517484Y-78520532D01*
X81516798Y-78526649D01*
X81516797Y-78526653D01*
X81511609Y-78572910D01*
X81494520Y-78725262D01*
X81511759Y-78930553D01*
X81568544Y-79128586D01*
X81571359Y-79134063D01*
X81571360Y-79134066D01*
X81659897Y-79306341D01*
X81662712Y-79311818D01*
X81790677Y-79473270D01*
X81795370Y-79477264D01*
X81795371Y-79477265D01*
X81902307Y-79568274D01*
X81947564Y-79606791D01*
X82127398Y-79707297D01*
X82211280Y-79734552D01*
X82317471Y-79769056D01*
X82317475Y-79769057D01*
X82323329Y-79770959D01*
X82527894Y-79795351D01*
X82534029Y-79794879D01*
X82534031Y-79794879D01*
X82606625Y-79789293D01*
X82733300Y-79779546D01*
X82739230Y-79777890D01*
X82739232Y-79777890D01*
X82925797Y-79725800D01*
X82925796Y-79725800D01*
X82931725Y-79724145D01*
X82937214Y-79721372D01*
X82937220Y-79721370D01*
X83110116Y-79634033D01*
X83115610Y-79631258D01*
X83277951Y-79504424D01*
X83312437Y-79464472D01*
X83367818Y-79400311D01*
X83427471Y-79361814D01*
X83498467Y-79361678D01*
X83558267Y-79399948D01*
X83587883Y-79464472D01*
X83589200Y-79482642D01*
X83589200Y-97508283D01*
X83569198Y-97576404D01*
X83552295Y-97597378D01*
X81821490Y-99328183D01*
X81759178Y-99362209D01*
X81689400Y-99355781D01*
X81689055Y-99356897D01*
X81683776Y-99355263D01*
X81683777Y-99355263D01*
X81492254Y-99295977D01*
X81486129Y-99295333D01*
X81486128Y-99295333D01*
X81293498Y-99275087D01*
X81293496Y-99275087D01*
X81287369Y-99274443D01*
X81200529Y-99282346D01*
X81088342Y-99292555D01*
X81088339Y-99292556D01*
X81082203Y-99293114D01*
X80884572Y-99351280D01*
X80702002Y-99446726D01*
X80697201Y-99450586D01*
X80697198Y-99450588D01*
X80546254Y-99571950D01*
X80541447Y-99575815D01*
X80409024Y-99733630D01*
X80406056Y-99739028D01*
X80406053Y-99739033D01*
X80342287Y-99855024D01*
X80309776Y-99914162D01*
X80247484Y-100110532D01*
X80246798Y-100116649D01*
X80246797Y-100116653D01*
X80225207Y-100309137D01*
X80224520Y-100315262D01*
X80241759Y-100520553D01*
X80298544Y-100718586D01*
X80301359Y-100724063D01*
X80301360Y-100724066D01*
X80322247Y-100764707D01*
X80392712Y-100901818D01*
X80520677Y-101063270D01*
X80677564Y-101196791D01*
X80857398Y-101297297D01*
X80922437Y-101318429D01*
X80981042Y-101358502D01*
X81008680Y-101423898D01*
X80996574Y-101493855D01*
X80948568Y-101546162D01*
X80922646Y-101558027D01*
X80756868Y-101612212D01*
X80747359Y-101616209D01*
X80558466Y-101714540D01*
X80549734Y-101720039D01*
X80529677Y-101735099D01*
X80521223Y-101746427D01*
X80527968Y-101758758D01*
X81267188Y-102497978D01*
X81281132Y-102505592D01*
X81282965Y-102505461D01*
X81289580Y-102501210D01*
X82033389Y-101757401D01*
X82040410Y-101744544D01*
X82033611Y-101735213D01*
X82029554Y-101732518D01*
X81843117Y-101629599D01*
X81833705Y-101625369D01*
X81642031Y-101557493D01*
X81584495Y-101515899D01*
X81558579Y-101449801D01*
X81572513Y-101380185D01*
X81621872Y-101329154D01*
X81650206Y-101317362D01*
X81655790Y-101315803D01*
X81655799Y-101315800D01*
X81661725Y-101314145D01*
X81667214Y-101311372D01*
X81667220Y-101311370D01*
X81840116Y-101224033D01*
X81845610Y-101221258D01*
X82007951Y-101094424D01*
X82142564Y-100938472D01*
X82163387Y-100901818D01*
X82241276Y-100764707D01*
X82244323Y-100759344D01*
X82309351Y-100563863D01*
X82335171Y-100359474D01*
X82335583Y-100330000D01*
X82315480Y-100124970D01*
X82255935Y-99927749D01*
X82254312Y-99924696D01*
X82246944Y-99855024D01*
X82281808Y-99788518D01*
X84130922Y-97939405D01*
X84139026Y-97931978D01*
X84159449Y-97914841D01*
X84167894Y-97907755D01*
X84186739Y-97875115D01*
X84192643Y-97865847D01*
X84207931Y-97844013D01*
X84214253Y-97834984D01*
X84217106Y-97824338D01*
X84218583Y-97821170D01*
X84219776Y-97817893D01*
X84225288Y-97808345D01*
X84231832Y-97771231D01*
X84234212Y-97760496D01*
X84241110Y-97734754D01*
X84243963Y-97724107D01*
X84240679Y-97686569D01*
X84240200Y-97675588D01*
X84240200Y-79916500D01*
X84260202Y-79848379D01*
X84313858Y-79801886D01*
X84366200Y-79790500D01*
X84638500Y-79790500D01*
X84706621Y-79810502D01*
X84753114Y-79864158D01*
X84764500Y-79916500D01*
X84764500Y-110905684D01*
X84744498Y-110973805D01*
X84727595Y-110994779D01*
X80682785Y-115039589D01*
X80674681Y-115047016D01*
X80645806Y-115071245D01*
X80640293Y-115080794D01*
X80626961Y-115103885D01*
X80621055Y-115113156D01*
X80599446Y-115144016D01*
X80596592Y-115154666D01*
X80595115Y-115157834D01*
X80593923Y-115161110D01*
X80588412Y-115170655D01*
X80584401Y-115193405D01*
X80581870Y-115207758D01*
X80579492Y-115218485D01*
X80569736Y-115254893D01*
X80571191Y-115271517D01*
X80557204Y-115341120D01*
X80507807Y-115392114D01*
X80445671Y-115408500D01*
X80029252Y-115408500D01*
X80023184Y-115409707D01*
X79982939Y-115417712D01*
X79982938Y-115417712D01*
X79970769Y-115420133D01*
X79904448Y-115464448D01*
X79860133Y-115530769D01*
X79848500Y-115589252D01*
X79848500Y-117328748D01*
X79860133Y-117387231D01*
X79904448Y-117453552D01*
X79970769Y-117497867D01*
X79982650Y-117500230D01*
X80037770Y-117544648D01*
X80060192Y-117612011D01*
X80042635Y-117680802D01*
X80023368Y-117705605D01*
X79501578Y-118227396D01*
X79493474Y-118234822D01*
X79464606Y-118259045D01*
X79459093Y-118268594D01*
X79445761Y-118291685D01*
X79439855Y-118300956D01*
X79418246Y-118331816D01*
X79415392Y-118342466D01*
X79413915Y-118345634D01*
X79412723Y-118348910D01*
X79407212Y-118358455D01*
X79401262Y-118392199D01*
X79400670Y-118395558D01*
X79398292Y-118406285D01*
X79388536Y-118442693D01*
X79389497Y-118453678D01*
X79389497Y-118453680D01*
X79391820Y-118480228D01*
X79392300Y-118491210D01*
X79392300Y-125418090D01*
X79391820Y-125429072D01*
X79388536Y-125466607D01*
X77471000Y-125466607D01*
X77471000Y-110595028D01*
X79778025Y-110595028D01*
X79815347Y-110838930D01*
X79892003Y-111073460D01*
X79894393Y-111078051D01*
X79967541Y-111218566D01*
X80005935Y-111292321D01*
X80009038Y-111296454D01*
X80009040Y-111296457D01*
X80036413Y-111332914D01*
X80154083Y-111489636D01*
X80332468Y-111660104D01*
X80336740Y-111663018D01*
X80336741Y-111663019D01*
X80365893Y-111682905D01*
X80536300Y-111799149D01*
X80648202Y-111851092D01*
X80755409Y-111900856D01*
X80755413Y-111900857D01*
X80760104Y-111903035D01*
X80997871Y-111968974D01*
X81003008Y-111969523D01*
X81195957Y-111990144D01*
X81195965Y-111990144D01*
X81199292Y-111990500D01*
X81342554Y-111990500D01*
X81345127Y-111990288D01*
X81345138Y-111990288D01*
X81520760Y-111975849D01*
X81520766Y-111975848D01*
X81525911Y-111975425D01*
X81765217Y-111915316D01*
X81991493Y-111816928D01*
X82198661Y-111682905D01*
X82220516Y-111663019D01*
X82256536Y-111630243D01*
X82381158Y-111516846D01*
X82384357Y-111512795D01*
X82384361Y-111512791D01*
X82530881Y-111327264D01*
X82530884Y-111327259D01*
X82534082Y-111323210D01*
X82536577Y-111318691D01*
X82650830Y-111111722D01*
X82650832Y-111111718D01*
X82653327Y-111107198D01*
X82663495Y-111078486D01*
X82733965Y-110879485D01*
X82733966Y-110879481D01*
X82735691Y-110874610D01*
X82778961Y-110631694D01*
X82781975Y-110384972D01*
X82744653Y-110141070D01*
X82667997Y-109906540D01*
X82554065Y-109687679D01*
X82405917Y-109490364D01*
X82227532Y-109319896D01*
X82199212Y-109300577D01*
X82027979Y-109183770D01*
X82027980Y-109183770D01*
X82023700Y-109180851D01*
X81911798Y-109128908D01*
X81804591Y-109079144D01*
X81804587Y-109079143D01*
X81799896Y-109076965D01*
X81562129Y-109011026D01*
X81556992Y-109010477D01*
X81364043Y-108989856D01*
X81364035Y-108989856D01*
X81360708Y-108989500D01*
X81217446Y-108989500D01*
X81214873Y-108989712D01*
X81214862Y-108989712D01*
X81039240Y-109004151D01*
X81039234Y-109004152D01*
X81034089Y-109004575D01*
X80794783Y-109064684D01*
X80568507Y-109163072D01*
X80361339Y-109297095D01*
X80357514Y-109300575D01*
X80357512Y-109300577D01*
X80336281Y-109319896D01*
X80178842Y-109463154D01*
X80175643Y-109467205D01*
X80175639Y-109467209D01*
X80029119Y-109652736D01*
X80029116Y-109652741D01*
X80025918Y-109656790D01*
X80023425Y-109661306D01*
X80023423Y-109661309D01*
X80011150Y-109683543D01*
X79906673Y-109872802D01*
X79904949Y-109877671D01*
X79904947Y-109877675D01*
X79892984Y-109911458D01*
X79824309Y-110105390D01*
X79781039Y-110348306D01*
X79778025Y-110595028D01*
X77471000Y-110595028D01*
X77471000Y-103287310D01*
X78687636Y-103287310D01*
X78689328Y-103296574D01*
X78689328Y-103296575D01*
X78698172Y-103345001D01*
X78698822Y-103348904D01*
X78701494Y-103366672D01*
X78707551Y-103406962D01*
X78710679Y-103413475D01*
X78711975Y-103420573D01*
X78739025Y-103472647D01*
X78740768Y-103476137D01*
X78766191Y-103529079D01*
X78771077Y-103534365D01*
X78771110Y-103534413D01*
X78774421Y-103540788D01*
X78778725Y-103545828D01*
X78815952Y-103583055D01*
X78819381Y-103586620D01*
X78858146Y-103628556D01*
X78864505Y-103632249D01*
X78870663Y-103637766D01*
X80192595Y-104959698D01*
X80226621Y-105022010D01*
X80229500Y-105048793D01*
X80229500Y-106279748D01*
X80241133Y-106338231D01*
X80285448Y-106404552D01*
X80351769Y-106448867D01*
X80363938Y-106451288D01*
X80363939Y-106451288D01*
X80404184Y-106459293D01*
X80410252Y-106460500D01*
X82149748Y-106460500D01*
X82155816Y-106459293D01*
X82196061Y-106451288D01*
X82196062Y-106451288D01*
X82208231Y-106448867D01*
X82274552Y-106404552D01*
X82318867Y-106338231D01*
X82330500Y-106279748D01*
X82330500Y-104540252D01*
X82318867Y-104481769D01*
X82274552Y-104415448D01*
X82208231Y-104371133D01*
X82196062Y-104368712D01*
X82196061Y-104368712D01*
X82155816Y-104360707D01*
X82149748Y-104359500D01*
X81870107Y-104359500D01*
X81801986Y-104339498D01*
X81755493Y-104285842D01*
X81745389Y-104215568D01*
X81774883Y-104150988D01*
X81814675Y-104120349D01*
X81973093Y-104042741D01*
X81981944Y-104037465D01*
X82029247Y-104003723D01*
X82037648Y-103993023D01*
X82030660Y-103979870D01*
X80921922Y-102871132D01*
X81644408Y-102871132D01*
X81644539Y-102872965D01*
X81648790Y-102879580D01*
X82390474Y-103621264D01*
X82402484Y-103627823D01*
X82414223Y-103618855D01*
X82445004Y-103576019D01*
X82450315Y-103567180D01*
X82544670Y-103376267D01*
X82548469Y-103366672D01*
X82610376Y-103162915D01*
X82612555Y-103152834D01*
X82640590Y-102939887D01*
X82641109Y-102933212D01*
X82642572Y-102873364D01*
X82642378Y-102866646D01*
X82624781Y-102652604D01*
X82623096Y-102642424D01*
X82571214Y-102435875D01*
X82567894Y-102426124D01*
X82482972Y-102230814D01*
X82478105Y-102221739D01*
X82413063Y-102121197D01*
X82402377Y-102111995D01*
X82392812Y-102116398D01*
X81652022Y-102857188D01*
X81644408Y-102871132D01*
X80921922Y-102871132D01*
X80169849Y-102119059D01*
X80158313Y-102112759D01*
X80146031Y-102122382D01*
X80098089Y-102192662D01*
X80093004Y-102201613D01*
X80003338Y-102394783D01*
X79999775Y-102404470D01*
X79942864Y-102609681D01*
X79940933Y-102619800D01*
X79918302Y-102831574D01*
X79918050Y-102841863D01*
X79930309Y-103054477D01*
X79931746Y-103064700D01*
X79940804Y-103104894D01*
X79936268Y-103175745D01*
X79894146Y-103232896D01*
X79827813Y-103258202D01*
X79758328Y-103243629D01*
X79728792Y-103221689D01*
X79630405Y-103123302D01*
X79596379Y-103060990D01*
X79593500Y-103034207D01*
X79593500Y-97775262D01*
X80224520Y-97775262D01*
X80225036Y-97781406D01*
X80238304Y-97939405D01*
X80241759Y-97980553D01*
X80298544Y-98178586D01*
X80301359Y-98184063D01*
X80301360Y-98184066D01*
X80322247Y-98224707D01*
X80392712Y-98361818D01*
X80520677Y-98523270D01*
X80677564Y-98656791D01*
X80857398Y-98757297D01*
X80952238Y-98788112D01*
X81047471Y-98819056D01*
X81047475Y-98819057D01*
X81053329Y-98820959D01*
X81257894Y-98845351D01*
X81264029Y-98844879D01*
X81264031Y-98844879D01*
X81320039Y-98840569D01*
X81463300Y-98829546D01*
X81469230Y-98827890D01*
X81469232Y-98827890D01*
X81655797Y-98775800D01*
X81655796Y-98775800D01*
X81661725Y-98774145D01*
X81667214Y-98771372D01*
X81667220Y-98771370D01*
X81840116Y-98684033D01*
X81845610Y-98681258D01*
X82007951Y-98554424D01*
X82142564Y-98398472D01*
X82163387Y-98361818D01*
X82241276Y-98224707D01*
X82244323Y-98219344D01*
X82309351Y-98023863D01*
X82335171Y-97819474D01*
X82335583Y-97790000D01*
X82315480Y-97584970D01*
X82255935Y-97387749D01*
X82159218Y-97205849D01*
X82085859Y-97115902D01*
X82032906Y-97050975D01*
X82032903Y-97050972D01*
X82029011Y-97046200D01*
X82011786Y-97031950D01*
X81875025Y-96918811D01*
X81875021Y-96918809D01*
X81870275Y-96914882D01*
X81689055Y-96816897D01*
X81492254Y-96755977D01*
X81486129Y-96755333D01*
X81486128Y-96755333D01*
X81293498Y-96735087D01*
X81293496Y-96735087D01*
X81287369Y-96734443D01*
X81200529Y-96742346D01*
X81088342Y-96752555D01*
X81088339Y-96752556D01*
X81082203Y-96753114D01*
X80884572Y-96811280D01*
X80702002Y-96906726D01*
X80697201Y-96910586D01*
X80697198Y-96910588D01*
X80686971Y-96918811D01*
X80541447Y-97035815D01*
X80409024Y-97193630D01*
X80406056Y-97199028D01*
X80406053Y-97199033D01*
X80399315Y-97211290D01*
X80309776Y-97374162D01*
X80247484Y-97570532D01*
X80246798Y-97576649D01*
X80246797Y-97576653D01*
X80234468Y-97686569D01*
X80224520Y-97775262D01*
X79593500Y-97775262D01*
X79593500Y-95235262D01*
X80224520Y-95235262D01*
X80241759Y-95440553D01*
X80298544Y-95638586D01*
X80301359Y-95644063D01*
X80301360Y-95644066D01*
X80322247Y-95684707D01*
X80392712Y-95821818D01*
X80520677Y-95983270D01*
X80677564Y-96116791D01*
X80857398Y-96217297D01*
X80952238Y-96248112D01*
X81047471Y-96279056D01*
X81047475Y-96279057D01*
X81053329Y-96280959D01*
X81257894Y-96305351D01*
X81264029Y-96304879D01*
X81264031Y-96304879D01*
X81320039Y-96300569D01*
X81463300Y-96289546D01*
X81469230Y-96287890D01*
X81469232Y-96287890D01*
X81655797Y-96235800D01*
X81655796Y-96235800D01*
X81661725Y-96234145D01*
X81667214Y-96231372D01*
X81667220Y-96231370D01*
X81840116Y-96144033D01*
X81845610Y-96141258D01*
X82007951Y-96014424D01*
X82142564Y-95858472D01*
X82163387Y-95821818D01*
X82241276Y-95684707D01*
X82244323Y-95679344D01*
X82309351Y-95483863D01*
X82335171Y-95279474D01*
X82335583Y-95250000D01*
X82315480Y-95044970D01*
X82255935Y-94847749D01*
X82159218Y-94665849D01*
X82085859Y-94575902D01*
X82032906Y-94510975D01*
X82032903Y-94510972D01*
X82029011Y-94506200D01*
X82011786Y-94491950D01*
X81875025Y-94378811D01*
X81875021Y-94378809D01*
X81870275Y-94374882D01*
X81689055Y-94276897D01*
X81492254Y-94215977D01*
X81486129Y-94215333D01*
X81486128Y-94215333D01*
X81293498Y-94195087D01*
X81293496Y-94195087D01*
X81287369Y-94194443D01*
X81200529Y-94202346D01*
X81088342Y-94212555D01*
X81088339Y-94212556D01*
X81082203Y-94213114D01*
X80884572Y-94271280D01*
X80702002Y-94366726D01*
X80697201Y-94370586D01*
X80697198Y-94370588D01*
X80686971Y-94378811D01*
X80541447Y-94495815D01*
X80409024Y-94653630D01*
X80406056Y-94659028D01*
X80406053Y-94659033D01*
X80399315Y-94671290D01*
X80309776Y-94834162D01*
X80247484Y-95030532D01*
X80246798Y-95036649D01*
X80246797Y-95036653D01*
X80225207Y-95229137D01*
X80224520Y-95235262D01*
X79593500Y-95235262D01*
X79593500Y-92695262D01*
X80224520Y-92695262D01*
X80241759Y-92900553D01*
X80298544Y-93098586D01*
X80301359Y-93104063D01*
X80301360Y-93104066D01*
X80322247Y-93144707D01*
X80392712Y-93281818D01*
X80520677Y-93443270D01*
X80677564Y-93576791D01*
X80857398Y-93677297D01*
X80952238Y-93708113D01*
X81047471Y-93739056D01*
X81047475Y-93739057D01*
X81053329Y-93740959D01*
X81257894Y-93765351D01*
X81264029Y-93764879D01*
X81264031Y-93764879D01*
X81320039Y-93760569D01*
X81463300Y-93749546D01*
X81469230Y-93747890D01*
X81469232Y-93747890D01*
X81655797Y-93695800D01*
X81655796Y-93695800D01*
X81661725Y-93694145D01*
X81667214Y-93691372D01*
X81667220Y-93691370D01*
X81840116Y-93604033D01*
X81845610Y-93601258D01*
X82007951Y-93474424D01*
X82142564Y-93318472D01*
X82163387Y-93281818D01*
X82241276Y-93144707D01*
X82244323Y-93139344D01*
X82309351Y-92943863D01*
X82335171Y-92739474D01*
X82335583Y-92710000D01*
X82315480Y-92504970D01*
X82255935Y-92307749D01*
X82159218Y-92125849D01*
X82085859Y-92035902D01*
X82032906Y-91970975D01*
X82032903Y-91970972D01*
X82029011Y-91966200D01*
X82011786Y-91951950D01*
X81875025Y-91838811D01*
X81875021Y-91838809D01*
X81870275Y-91834882D01*
X81689055Y-91736897D01*
X81492254Y-91675977D01*
X81486129Y-91675333D01*
X81486128Y-91675333D01*
X81293498Y-91655087D01*
X81293496Y-91655087D01*
X81287369Y-91654443D01*
X81200529Y-91662346D01*
X81088342Y-91672555D01*
X81088339Y-91672556D01*
X81082203Y-91673114D01*
X80884572Y-91731280D01*
X80702002Y-91826726D01*
X80697201Y-91830586D01*
X80697198Y-91830588D01*
X80686971Y-91838811D01*
X80541447Y-91955815D01*
X80409024Y-92113630D01*
X80406056Y-92119028D01*
X80406053Y-92119033D01*
X80399315Y-92131290D01*
X80309776Y-92294162D01*
X80247484Y-92490532D01*
X80246798Y-92496649D01*
X80246797Y-92496653D01*
X80225207Y-92689137D01*
X80224520Y-92695262D01*
X79593500Y-92695262D01*
X79593500Y-90155262D01*
X80224520Y-90155262D01*
X80241759Y-90360553D01*
X80298544Y-90558586D01*
X80301359Y-90564063D01*
X80301360Y-90564066D01*
X80322247Y-90604707D01*
X80392712Y-90741818D01*
X80520677Y-90903270D01*
X80677564Y-91036791D01*
X80857398Y-91137297D01*
X80952238Y-91168113D01*
X81047471Y-91199056D01*
X81047475Y-91199057D01*
X81053329Y-91200959D01*
X81257894Y-91225351D01*
X81264029Y-91224879D01*
X81264031Y-91224879D01*
X81320039Y-91220569D01*
X81463300Y-91209546D01*
X81469230Y-91207890D01*
X81469232Y-91207890D01*
X81655797Y-91155800D01*
X81655796Y-91155800D01*
X81661725Y-91154145D01*
X81667214Y-91151372D01*
X81667220Y-91151370D01*
X81840116Y-91064033D01*
X81845610Y-91061258D01*
X82007951Y-90934424D01*
X82142564Y-90778472D01*
X82163387Y-90741818D01*
X82241276Y-90604707D01*
X82244323Y-90599344D01*
X82309351Y-90403863D01*
X82335171Y-90199474D01*
X82335583Y-90170000D01*
X82315480Y-89964970D01*
X82255935Y-89767749D01*
X82159218Y-89585849D01*
X82085859Y-89495902D01*
X82032906Y-89430975D01*
X82032903Y-89430972D01*
X82029011Y-89426200D01*
X82011786Y-89411950D01*
X81875025Y-89298811D01*
X81875021Y-89298809D01*
X81870275Y-89294882D01*
X81689055Y-89196897D01*
X81492254Y-89135977D01*
X81486129Y-89135333D01*
X81486128Y-89135333D01*
X81293498Y-89115087D01*
X81293496Y-89115087D01*
X81287369Y-89114443D01*
X81200529Y-89122346D01*
X81088342Y-89132555D01*
X81088339Y-89132556D01*
X81082203Y-89133114D01*
X80884572Y-89191280D01*
X80702002Y-89286726D01*
X80697201Y-89290586D01*
X80697198Y-89290588D01*
X80686971Y-89298811D01*
X80541447Y-89415815D01*
X80409024Y-89573630D01*
X80406056Y-89579028D01*
X80406053Y-89579033D01*
X80399315Y-89591290D01*
X80309776Y-89754162D01*
X80247484Y-89950532D01*
X80246798Y-89956649D01*
X80246797Y-89956653D01*
X80225207Y-90149137D01*
X80224520Y-90155262D01*
X79593500Y-90155262D01*
X79593500Y-85551252D01*
X79613502Y-85483131D01*
X79667158Y-85436638D01*
X79737432Y-85426534D01*
X79802012Y-85456028D01*
X79839265Y-85512107D01*
X79892003Y-85673460D01*
X80005935Y-85892321D01*
X80154083Y-86089636D01*
X80332468Y-86260104D01*
X80336740Y-86263018D01*
X80336741Y-86263019D01*
X80365893Y-86282905D01*
X80536300Y-86399149D01*
X80648202Y-86451092D01*
X80755409Y-86500856D01*
X80755413Y-86500857D01*
X80760104Y-86503035D01*
X80997871Y-86568974D01*
X81003008Y-86569523D01*
X81195957Y-86590144D01*
X81195965Y-86590144D01*
X81199292Y-86590500D01*
X81342554Y-86590500D01*
X81345127Y-86590288D01*
X81345138Y-86590288D01*
X81520760Y-86575849D01*
X81520766Y-86575848D01*
X81525911Y-86575425D01*
X81765217Y-86515316D01*
X81991493Y-86416928D01*
X82198661Y-86282905D01*
X82220516Y-86263019D01*
X82256536Y-86230243D01*
X82381158Y-86116846D01*
X82384357Y-86112795D01*
X82384361Y-86112791D01*
X82530881Y-85927264D01*
X82530884Y-85927259D01*
X82534082Y-85923210D01*
X82536577Y-85918691D01*
X82650830Y-85711722D01*
X82650832Y-85711718D01*
X82653327Y-85707198D01*
X82665275Y-85673460D01*
X82733965Y-85479485D01*
X82733966Y-85479481D01*
X82735691Y-85474610D01*
X82778961Y-85231694D01*
X82781975Y-84984972D01*
X82744653Y-84741070D01*
X82667997Y-84506540D01*
X82554065Y-84287679D01*
X82405917Y-84090364D01*
X82227532Y-83919896D01*
X82199212Y-83900577D01*
X82027979Y-83783770D01*
X82027980Y-83783770D01*
X82023700Y-83780851D01*
X81911798Y-83728908D01*
X81804591Y-83679144D01*
X81804587Y-83679143D01*
X81799896Y-83676965D01*
X81562129Y-83611026D01*
X81556992Y-83610477D01*
X81364043Y-83589856D01*
X81364035Y-83589856D01*
X81360708Y-83589500D01*
X81217446Y-83589500D01*
X81214873Y-83589712D01*
X81214862Y-83589712D01*
X81039240Y-83604151D01*
X81039234Y-83604152D01*
X81034089Y-83604575D01*
X80794783Y-83664684D01*
X80568507Y-83763072D01*
X80361339Y-83897095D01*
X80357514Y-83900575D01*
X80357512Y-83900577D01*
X80336281Y-83919896D01*
X80178842Y-84063154D01*
X80175643Y-84067205D01*
X80175639Y-84067209D01*
X80029119Y-84252736D01*
X80029116Y-84252741D01*
X80025918Y-84256790D01*
X80023425Y-84261306D01*
X80023423Y-84261309D01*
X80011150Y-84283543D01*
X79906673Y-84472802D01*
X79904949Y-84477671D01*
X79904947Y-84477675D01*
X79838273Y-84665957D01*
X79796679Y-84723493D01*
X79730581Y-84749409D01*
X79660965Y-84735475D01*
X79609934Y-84686116D01*
X79593500Y-84623897D01*
X79593500Y-77336093D01*
X79613502Y-77267972D01*
X79630405Y-77246998D01*
X81574350Y-75303053D01*
X81585439Y-75293199D01*
X81604709Y-75278007D01*
X81604711Y-75278005D01*
X81612110Y-75272172D01*
X81645462Y-75223915D01*
X81647757Y-75220703D01*
X81677040Y-75181058D01*
X81677041Y-75181057D01*
X81682634Y-75173484D01*
X81685027Y-75166668D01*
X81689131Y-75160731D01*
X81706826Y-75104781D01*
X81708071Y-75101050D01*
X81724396Y-75054563D01*
X81724396Y-75054561D01*
X81727519Y-75045669D01*
X81727801Y-75038481D01*
X81727812Y-75038422D01*
X81729980Y-75031570D01*
X81730500Y-75024963D01*
X81730500Y-74972284D01*
X81730597Y-74967337D01*
X81730622Y-74966703D01*
X81732838Y-74910306D01*
X81730954Y-74903200D01*
X81730500Y-74894956D01*
X81730500Y-74836500D01*
X81750502Y-74768379D01*
X81804158Y-74721886D01*
X81856500Y-74710500D01*
X82149748Y-74710500D01*
X82155816Y-74709293D01*
X82196061Y-74701288D01*
X82196062Y-74701288D01*
X82208231Y-74698867D01*
X82232090Y-74682925D01*
X82264239Y-74661443D01*
X82274552Y-74654552D01*
X82318867Y-74588231D01*
X82325670Y-74554033D01*
X82329293Y-74535816D01*
X82330500Y-74529748D01*
X82330500Y-74246752D01*
X82350502Y-74178631D01*
X82404158Y-74132138D01*
X82474432Y-74122034D01*
X82539012Y-74151528D01*
X82573243Y-74199348D01*
X82601770Y-74269603D01*
X82606413Y-74278794D01*
X82717694Y-74460388D01*
X82723777Y-74468699D01*
X82863213Y-74629667D01*
X82870580Y-74636883D01*
X83034434Y-74772916D01*
X83042881Y-74778831D01*
X83226756Y-74886279D01*
X83236042Y-74890729D01*
X83435001Y-74966703D01*
X83444899Y-74969579D01*
X83548250Y-74990606D01*
X83562299Y-74989410D01*
X83566000Y-74979065D01*
X83566000Y-69803102D01*
X83562082Y-69789758D01*
X83547806Y-69787771D01*
X83509324Y-69793660D01*
X83499288Y-69796051D01*
X83296868Y-69862212D01*
X83287359Y-69866209D01*
X83098463Y-69964542D01*
X83089738Y-69970036D01*
X82919433Y-70097905D01*
X82911726Y-70104748D01*
X82764590Y-70258717D01*
X82758104Y-70266727D01*
X82638098Y-70442649D01*
X82633000Y-70451623D01*
X82543338Y-70644783D01*
X82539775Y-70654470D01*
X82511012Y-70758185D01*
X82473533Y-70818483D01*
X82409405Y-70848946D01*
X82338986Y-70839903D01*
X82284636Y-70794224D01*
X82268973Y-70760933D01*
X82268143Y-70758185D01*
X82255935Y-70717749D01*
X82159218Y-70535849D01*
X82083206Y-70442649D01*
X82032906Y-70380975D01*
X82032903Y-70380972D01*
X82029011Y-70376200D01*
X82011786Y-70361950D01*
X81875025Y-70248811D01*
X81875021Y-70248809D01*
X81870275Y-70244882D01*
X81689055Y-70146897D01*
X81492254Y-70085977D01*
X81486129Y-70085333D01*
X81486128Y-70085333D01*
X81293498Y-70065087D01*
X81293496Y-70065087D01*
X81287369Y-70064443D01*
X81200529Y-70072346D01*
X81088342Y-70082555D01*
X81088339Y-70082556D01*
X81082203Y-70083114D01*
X80884572Y-70141280D01*
X80702002Y-70236726D01*
X80697201Y-70240586D01*
X80697198Y-70240588D01*
X80664688Y-70266727D01*
X80541447Y-70365815D01*
X80409024Y-70523630D01*
X80406056Y-70529028D01*
X80406053Y-70529033D01*
X80399315Y-70541290D01*
X80309776Y-70704162D01*
X80247484Y-70900532D01*
X80246798Y-70906649D01*
X80246797Y-70906653D01*
X80225207Y-71099137D01*
X80224520Y-71105262D01*
X80225036Y-71111406D01*
X80239741Y-71286518D01*
X80241759Y-71310553D01*
X80243458Y-71316478D01*
X80289395Y-71476678D01*
X80298544Y-71508586D01*
X80301359Y-71514063D01*
X80301360Y-71514066D01*
X80389897Y-71686341D01*
X80392712Y-71691818D01*
X80520677Y-71853270D01*
X80525370Y-71857264D01*
X80525371Y-71857265D01*
X80599541Y-71920388D01*
X80677564Y-71986791D01*
X80764971Y-72035641D01*
X80814676Y-72086333D01*
X80829500Y-72145628D01*
X80829500Y-72483500D01*
X80809498Y-72551621D01*
X80755842Y-72598114D01*
X80703500Y-72609500D01*
X80410252Y-72609500D01*
X80404184Y-72610707D01*
X80363939Y-72618712D01*
X80363938Y-72618712D01*
X80351769Y-72621133D01*
X80285448Y-72665448D01*
X80241133Y-72731769D01*
X80229500Y-72790252D01*
X80229500Y-74529748D01*
X80230707Y-74535816D01*
X80234331Y-74554033D01*
X80241133Y-74588231D01*
X80285448Y-74654552D01*
X80295761Y-74661443D01*
X80327911Y-74682925D01*
X80351769Y-74698867D01*
X80363938Y-74701288D01*
X80363939Y-74701288D01*
X80404184Y-74709293D01*
X80410252Y-74710500D01*
X80588507Y-74710500D01*
X80656628Y-74730502D01*
X80703121Y-74784158D01*
X80713225Y-74854432D01*
X80683731Y-74919012D01*
X80677602Y-74925595D01*
X78848650Y-76754547D01*
X78837561Y-76764401D01*
X78818291Y-76779593D01*
X78818289Y-76779595D01*
X78810890Y-76785428D01*
X78805535Y-76793175D01*
X78805534Y-76793177D01*
X78777545Y-76833675D01*
X78775250Y-76836887D01*
X78740366Y-76884116D01*
X78737973Y-76890932D01*
X78733869Y-76896869D01*
X78731029Y-76905849D01*
X78731028Y-76905851D01*
X78716182Y-76952795D01*
X78714929Y-76956550D01*
X78695481Y-77011931D01*
X78695199Y-77019119D01*
X78695188Y-77019178D01*
X78693020Y-77026030D01*
X78692500Y-77032637D01*
X78692500Y-77085316D01*
X78692403Y-77090262D01*
X78690162Y-77147294D01*
X78692046Y-77154400D01*
X78692500Y-77162647D01*
X78692500Y-103238780D01*
X78691627Y-103253589D01*
X78687636Y-103287310D01*
X77471000Y-103287310D01*
X77471000Y-67952081D01*
X77471792Y-67937974D01*
X77476808Y-67893453D01*
X77477094Y-67891113D01*
X77487888Y-67809129D01*
X77493881Y-67783960D01*
X77512384Y-67731082D01*
X77514904Y-67724480D01*
X77540629Y-67662374D01*
X77550350Y-67643558D01*
X77581553Y-67593897D01*
X77588279Y-67584227D01*
X77627709Y-67532841D01*
X77638576Y-67520450D01*
X77680450Y-67478576D01*
X77692841Y-67467709D01*
X77744227Y-67428279D01*
X77753897Y-67421553D01*
X77803558Y-67390350D01*
X77822374Y-67380629D01*
X77884480Y-67354904D01*
X77891082Y-67352384D01*
X77943960Y-67333881D01*
X77969129Y-67327888D01*
X78009292Y-67322600D01*
X78051148Y-67317090D01*
X78053418Y-67316812D01*
X78097975Y-67311792D01*
X78112081Y-67311000D01*
X100957919Y-67311000D01*
X100972025Y-67311792D01*
G37*
G04 #@! TD.AperFunction*
M02*
