M48
; DRILL file {KiCad 6.0.9-8da3e8f707~116~ubuntu20.04.1} date sre 08 mar 2023 00:07:59
; FORMAT={-:-/ absolute / metric / decimal}
; #@! TF.CreationDate,2023-03-08T00:07:59+01:00
; #@! TF.GenerationSoftware,Kicad,Pcbnew,6.0.9-8da3e8f707~116~ubuntu20.04.1
; #@! TF.FileFunction,Plated,1,2,PTH
FMAT,2
METRIC
; #@! TA.AperFunction,Plated,PTH,ViaDrill
T1C0.400
; #@! TA.AperFunction,Plated,PTH,ComponentDrill
T2C1.000
%
G90
G05
T1
X100.162Y-71.892
T2
X80.899Y-116.459
X80.899Y-118.999
X80.899Y-121.539
X80.899Y-124.079
X80.899Y-126.619
X80.899Y-129.159
X80.899Y-131.699
X81.28Y-71.12
X81.28Y-73.66
X81.28Y-90.17
X81.28Y-92.71
X81.28Y-95.25
X81.28Y-97.79
X81.28Y-100.33
X81.28Y-102.87
X81.28Y-105.41
X82.55Y-78.74
X83.82Y-71.12
X83.82Y-73.66
X85.09Y-78.74
X86.36Y-71.12
X86.36Y-73.66
X88.9Y-71.12
X88.9Y-73.66
X91.44Y-71.12
X91.44Y-73.66
X93.98Y-71.12
X93.98Y-73.66
X93.98Y-78.74
X96.52Y-78.74
T0
M30
